<svg width="140" height="45" viewBox="0 0 140 45" fill="none" xmlns="http://www.w3.org/2000/svg">
<g clip-path="url(#clip0_30_93)">
<path d="M73.7832 11.4049C73.7832 12.9856 72.5148 14.259 70.9403 14.259C69.3658 14.259 68.0975 12.9856 68.0975 11.4049C68.0975 9.82408 69.3221 8.55067 70.9403 8.55067C72.5586 8.59458 73.7832 9.86799 73.7832 11.4049ZM62.0618 17.1571C62.0618 17.4206 62.0618 17.8597 62.0618 17.8597C62.0618 17.8597 60.706 16.1033 57.8194 16.1033C53.0522 16.1033 49.3346 19.7479 49.3346 24.7976C49.3346 29.8034 53.0084 33.4919 57.8194 33.4919C60.7497 33.4919 62.0618 31.6915 62.0618 31.6915V32.438C62.0618 32.7893 62.3243 33.0528 62.6741 33.0528H66.2168V16.5424C66.2168 16.5424 62.9803 16.5424 62.6741 16.5424C62.3243 16.5424 62.0618 16.8498 62.0618 17.1571ZM62.0618 27.7396C61.4058 28.7056 60.0937 29.5399 58.5192 29.5399C55.7201 29.5399 53.577 27.7835 53.577 24.7976C53.577 21.8117 55.7201 20.0552 58.5192 20.0552C60.05 20.0552 61.4495 20.9335 62.0618 21.8556V27.7396ZM68.841 16.5424H73.0397V33.0528H68.841V16.5424ZM131.559 16.1033C128.672 16.1033 127.316 17.8597 127.316 17.8597V8.59458H123.118V33.0528C123.118 33.0528 126.354 33.0528 126.66 33.0528C127.01 33.0528 127.273 32.7454 127.273 32.438V31.6915C127.273 31.6915 128.629 33.4919 131.515 33.4919C136.282 33.4919 140 29.8034 140 24.7976C140 19.7918 136.282 16.1033 131.559 16.1033ZM130.859 29.496C129.241 29.496 127.972 28.6617 127.316 27.6957V21.8117C127.972 20.9335 129.372 20.0113 130.859 20.0113C133.658 20.0113 135.801 21.7678 135.801 24.7537C135.801 27.7396 133.658 29.496 130.859 29.496ZM120.931 23.2607V33.0967H116.732V23.7437C116.732 21.0213 115.858 19.9235 113.496 19.9235C112.227 19.9235 110.915 20.5822 110.084 21.5482V33.0528H105.886V16.5424H109.21C109.559 16.5424 109.822 16.8498 109.822 17.1571V17.8597C111.047 16.5863 112.665 16.1033 114.283 16.1033C116.12 16.1033 117.651 16.6302 118.875 17.6841C120.362 18.9136 120.931 20.4943 120.931 23.2607ZM95.6951 16.1033C92.8085 16.1033 91.4527 17.8597 91.4527 17.8597V8.59458H87.254V33.0528C87.254 33.0528 90.4905 33.0528 90.7966 33.0528C91.1465 33.0528 91.4089 32.7454 91.4089 32.438V31.6915C91.4089 31.6915 92.7647 33.4919 95.6513 33.4919C100.419 33.4919 104.136 29.8034 104.136 24.7976C104.18 19.7918 100.462 16.1033 95.6951 16.1033ZM94.9953 29.496C93.3771 29.496 92.1087 28.6617 91.4527 27.6957V21.8117C92.1087 20.9335 93.5083 20.0113 94.9953 20.0113C97.7944 20.0113 99.9375 21.7678 99.9375 24.7537C99.9375 27.7396 97.7944 29.496 94.9953 29.496ZM83.6238 16.1033C84.8922 16.1033 85.5482 16.3228 85.5482 16.3228V20.2309C85.5482 20.2309 82.0493 19.0453 79.8625 21.5482V33.0967H75.6638V16.5424C75.6638 16.5424 78.9003 16.5424 79.2065 16.5424C79.5564 16.5424 79.8188 16.8498 79.8188 17.1571V17.8597C80.606 16.9376 82.3118 16.1033 83.6238 16.1033ZM40.0187 31.5598C39.8 31.0329 39.5814 30.4621 39.3627 29.979C39.0128 29.1886 38.6629 28.4422 38.3567 27.7396L38.313 27.6957C35.2952 21.1091 32.0587 14.4347 28.6473 7.8481L28.5161 7.58464C28.1662 6.92598 27.8163 6.22341 27.4664 5.52084C27.029 4.73045 26.5917 3.89615 25.8919 3.10576C24.4923 1.34933 22.4805 0.383301 20.3374 0.383301C18.1506 0.383301 16.1824 1.34933 14.7391 3.01794C14.0831 3.80833 13.602 4.64263 13.1646 5.43302C12.8147 6.13559 12.4648 6.83816 12.1149 7.49682L11.9837 7.76028C8.61604 14.3469 5.33582 21.0213 2.31801 27.6079L2.27427 27.6957C1.96812 28.3983 1.61823 29.1447 1.26834 29.9351C1.04965 30.4181 0.830973 30.9451 0.612291 31.5159C0.0437189 33.1406 -0.131226 34.6775 0.0874553 36.2582C0.568555 39.5515 2.75537 42.3179 5.77318 43.5474C6.91032 44.0304 8.0912 44.25 9.31582 44.25C9.66571 44.25 10.1031 44.2061 10.453 44.1622C11.8963 43.9865 13.3833 43.5035 14.8266 42.6692C16.6198 41.6593 18.3255 40.2102 20.2499 38.1025C22.1743 40.2102 23.9238 41.6593 25.6732 42.6692C27.1165 43.5035 28.6035 43.9865 30.0468 44.1622C30.3967 44.2061 30.8341 44.25 31.184 44.25C32.4086 44.25 33.6332 44.0304 34.7266 43.5474C37.7882 42.3179 39.9313 39.5076 40.4124 36.2582C40.7622 34.7214 40.5873 33.1845 40.0187 31.5598ZM20.2936 33.8432C17.9319 30.8572 16.4011 28.047 15.8763 25.6758C15.6576 24.6659 15.6139 23.7876 15.7451 22.9973C15.8325 22.2947 16.095 21.6799 16.4448 21.153C17.2758 19.9674 18.6754 19.2209 20.2936 19.2209C21.9119 19.2209 23.3552 19.9235 24.1424 21.153C24.4923 21.6799 24.7547 22.2947 24.8422 22.9973C24.9734 23.7876 24.9297 24.7098 24.711 25.6758C24.1862 28.0031 22.6554 30.8133 20.2936 33.8432ZM37.7444 35.907C37.4383 38.1903 35.9075 40.1663 33.7644 41.0445C32.7148 41.4836 31.5776 41.6153 30.4405 41.4836C29.3471 41.3519 28.2537 41.0006 27.1165 40.3419C25.542 39.4637 23.9675 38.1025 22.1306 36.0826C25.0172 32.5258 26.7666 29.2765 27.4227 26.3784C27.7288 25.0171 27.7726 23.7876 27.6413 22.646C27.4664 21.5482 27.0728 20.5383 26.4605 19.66C25.1046 17.6841 22.8303 16.5424 20.2936 16.5424C17.7569 16.5424 15.4826 17.728 14.1268 19.66C13.5145 20.5383 13.1209 21.5482 12.9459 22.646C12.771 23.7876 12.8147 25.061 13.1646 26.3784C13.8207 29.2765 15.6139 32.5698 18.4567 36.1265C16.6635 38.1464 15.0453 39.5076 13.4708 40.3858C12.3336 41.0445 11.2402 41.3958 10.1468 41.5275C8.96593 41.6592 7.82879 41.4836 6.82285 41.0884C4.67977 40.2102 3.149 38.2342 2.84284 35.9509C2.71164 34.8531 2.79911 33.7553 3.23647 32.5258C3.36768 32.0867 3.58636 31.6476 3.80504 31.1207C4.1112 30.4181 4.46109 29.6717 4.81098 28.9252L4.85472 28.8374C7.87252 22.2947 11.109 15.6203 14.4767 9.12151L14.6079 8.85804C14.9578 8.19938 15.3077 7.49682 15.6576 6.83816C16.0075 6.13559 16.4011 5.47693 16.8822 4.90609C17.8007 3.85224 19.0253 3.2814 20.3811 3.2814C21.7369 3.2814 22.9616 3.85224 23.88 4.90609C24.3611 5.47693 24.7547 6.13559 25.1046 6.83816C25.4545 7.49682 25.8044 8.19938 26.1543 8.85804L26.2855 9.12151C29.6095 15.6642 32.846 22.3386 35.8638 28.8813V28.9252C36.2137 29.6278 36.5198 30.4181 36.8697 31.1207C37.0884 31.6476 37.3071 32.0867 37.4383 32.5258C37.7882 33.6675 37.9194 34.7653 37.7444 35.907Z" fill="#F7F7F7"/>
</g>
<defs>
<clipPath id="clip0_30_93">
<rect width="140" height="43.8667" fill="white" transform="translate(0 0.383301)"/>
</clipPath>
</defs>
</svg>
