<svg width="150" height="31" viewBox="0 0 150 31" fill="none" xmlns="http://www.w3.org/2000/svg">
<g clip-path="url(#clip0_30_52)">
<path d="M17.4 6.11007L8.7 11.6535L17.4 17.1969L8.7 22.7403L0 17.167L8.7 11.6235L0 6.11007L8.7 0.56665L17.4 6.11007ZM8.655 24.5232L17.355 18.9798L26.055 24.5232L17.355 30.0667L8.655 24.5232ZM17.4 17.167L26.1 11.6235L17.4 6.11007L26.055 0.56665L34.755 6.11007L26.055 11.6535L34.755 17.1969L26.055 22.7403L17.4 17.167Z" fill="#F7F7F7"/>
<path d="M41.5801 6.1101H48.6151C53.1001 6.1101 56.8051 8.70203 56.8051 14.62V15.8635C56.8051 21.8265 53.3401 24.5083 48.7501 24.5083H41.5801V6.1101ZM45.5101 9.45114V21.1523H48.5251C51.0751 21.1523 52.7851 19.4892 52.7851 15.7886V14.8148C52.7851 11.1142 50.9851 9.45114 48.3901 9.45114H45.5101ZM58.8901 9.63093H62.0401L62.5501 13.0918C63.1501 10.7396 64.6801 9.4811 67.4551 9.4811H68.4301V13.4514H66.8101C63.6151 13.4514 62.8351 14.5601 62.8351 17.7063V24.5532H58.9501V9.63093H58.8901ZM69.2101 17.3917V16.9722C69.2101 11.9831 72.4051 9.25637 76.7551 9.25637C81.1951 9.25637 84.3001 11.9831 84.3001 16.9722V17.3917C84.3001 22.2909 81.2851 24.9278 76.7551 24.9278C71.9401 24.8828 69.2101 22.3059 69.2101 17.3917ZM80.3251 17.3468V16.9722C80.3251 14.2005 78.9301 12.5375 76.7101 12.5375C74.5351 12.5375 73.0951 14.0657 73.0951 16.9722V17.3468C73.0951 20.0286 74.4901 21.5568 76.7101 21.5568C78.9301 21.5118 80.3251 20.0286 80.3251 17.3468ZM86.3401 9.63093H89.5801L89.9551 12.4476C90.7351 10.5598 92.4001 9.25637 94.8601 9.25637C98.6551 9.25637 101.16 11.9831 101.16 17.0321V17.4516C101.16 22.3508 98.3851 24.9428 94.8601 24.9428C92.5051 24.9428 90.8851 23.879 90.0901 22.1711V29.7071H86.2951L86.3401 9.63093ZM97.2151 17.3468V17.0172C97.2151 14.0507 95.6851 12.5824 93.6451 12.5824C91.4701 12.5824 90.0301 14.2455 90.0301 17.0172V17.3018C90.0301 19.9387 91.4251 21.6017 93.6001 21.6017C95.8351 21.5568 97.2151 20.1335 97.2151 17.3468ZM106.905 21.7965L106.575 24.5233H103.245V4.64185H107.04V12.2678C107.88 10.3201 109.545 9.25637 111.9 9.25637C115.47 9.30132 118.11 11.7584 118.11 16.7025V17.167C118.11 22.1111 115.605 24.9428 111.81 24.9428C109.305 24.8828 107.685 23.7292 106.905 21.7965ZM114.12 17.167V16.7924C114.12 14.0657 112.635 12.5375 110.55 12.5375C108.42 12.5375 106.935 14.2455 106.935 16.8374V17.167C106.935 19.9387 108.375 21.5568 110.505 21.5568C112.785 21.5568 114.12 20.1335 114.12 17.167ZM119.775 17.3917V16.9722C119.775 11.9831 122.97 9.25637 127.32 9.25637C131.76 9.25637 134.865 11.9831 134.865 16.9722V17.3917C134.865 22.2909 131.805 24.9278 127.32 24.9278C122.505 24.8828 119.775 22.3059 119.775 17.3917ZM130.92 17.3468V16.9722C130.92 14.2005 129.525 12.5375 127.305 12.5375C125.13 12.5375 123.69 14.0657 123.69 16.9722V17.3468C123.69 20.0286 125.085 21.5568 127.305 21.5568C129.54 21.5118 130.92 20.0286 130.92 17.3468ZM139.95 16.7924L134.715 9.63093H139.2L142.215 14.1106L145.275 9.63093H149.715L144.405 16.7475L150 24.5233H145.605L142.185 19.5791L138.855 24.5233H134.265L139.95 16.7924Z" fill="#F7F7F7"/>
</g>
<defs>
<clipPath id="clip0_30_52">
<rect width="150" height="29.5" fill="white" transform="translate(0 0.56665)"/>
</clipPath>
</defs>
</svg>
