<svg width="190" height="77" viewBox="0 0 190 77" fill="none" xmlns="http://www.w3.org/2000/svg">
<path d="M127.701 32.8762V34.0739C127.701 34.0739 126.705 32.5748 124.438 32.5748C122.171 32.5748 119.827 34.2216 119.827 38.13C119.827 42.0384 123.432 43.0704 123.996 43.0704C124.559 43.0704 126.326 43.2421 127.651 41.9146V42.9466H130.176V32.8762H127.701ZM125.085 40.8228C123.568 40.8228 122.339 39.5053 122.339 37.8825C122.339 36.2596 123.56 34.9322 125.085 34.9322C126.611 34.9322 127.832 36.2496 127.832 37.8725C127.832 39.4953 126.595 40.8228 125.085 40.8228Z" fill="#F7F7F7"/>
<path d="M144.193 32.8762V34.0739C144.193 34.0739 143.197 32.5748 140.93 32.5748C138.663 32.5748 136.319 34.2216 136.319 38.13C136.319 42.0384 139.924 43.0704 140.488 43.0704C141.052 43.0704 142.818 43.2421 144.143 41.9146V42.9466H146.668V32.8762H144.193ZM141.569 40.8228C140.052 40.8228 138.823 39.5053 138.823 37.8825C138.823 36.2596 140.052 34.9322 141.569 34.9322C143.087 34.9322 144.316 36.2496 144.316 37.8725C144.316 39.4953 143.085 40.8228 141.569 40.8228Z" fill="#F7F7F7"/>
<path d="M156.221 29.0416V34.0798C156.221 34.0798 155.225 32.5808 152.959 32.5808C150.692 32.5808 148.35 34.2276 148.35 38.126C148.35 42.0244 151.955 43.0664 152.518 43.0664C153.082 43.0664 154.849 43.2381 156.173 41.9107V42.9427H158.699V29.0416H156.221ZM153.598 40.8188C152.08 40.8188 150.851 39.5013 150.851 37.8785C150.851 36.2556 152.08 34.9322 153.598 34.9322C155.116 34.9322 156.345 36.2496 156.345 37.8725C156.345 39.4953 155.114 40.8228 153.598 40.8228V40.8188Z" fill="#F7F7F7"/>
<path d="M132.22 28.9438H134.785V42.9367H132.196C132.196 42.9367 132.204 28.9278 132.22 28.9438Z" fill="#F7F7F7"/>
<path d="M160.922 32.8443H163.489V42.9367H160.9C160.9 42.9367 160.906 32.8263 160.922 32.8443Z" fill="#F7F7F7"/>
<path d="M162.262 31.5029C162.977 31.5029 163.557 30.922 163.557 30.2054C163.557 29.4888 162.977 28.9079 162.262 28.9079C161.547 28.9079 160.968 29.4888 160.968 30.2054C160.968 30.922 161.547 31.5029 162.262 31.5029Z" fill="#F7F7F7"/>
<path d="M165.762 32.8603V42.9367H168.23V37.5132C168.23 37.5132 168.198 35.1039 170.568 34.8923C170.568 34.8923 172.161 34.5969 172.161 37.2517V42.9167H174.681V35.5969C174.681 35.5969 174.468 32.5828 171.395 32.5828C170.823 32.5597 170.253 32.657 169.721 32.8685C169.189 33.0799 168.708 33.4008 168.307 33.8104V32.8762C168.307 32.8762 165.794 32.8922 165.762 32.8603Z" fill="#F7F7F7"/>
<path d="M15.3369 32.8522V42.9287H17.8048V37.1519C17.8048 37.1519 17.9761 34.8663 20.1591 34.8663C20.1591 34.8663 21.7047 34.9641 21.7047 37.0042V42.9027H24.2801V37.0062C24.2801 37.0062 24.6227 34.8104 26.5109 34.8104C28.3992 34.8104 28.1781 36.8066 28.1781 36.8066V42.8768H30.6559V35.6907C30.6559 35.6907 30.4348 32.5807 27.4869 32.5807C24.539 32.5807 23.9793 34.3992 23.9793 34.3992C23.6756 33.8522 23.2309 33.397 22.6917 33.081C22.1525 32.765 21.5386 32.5998 20.914 32.6027C18.723 32.6027 17.8247 34.0778 17.8247 34.0778V32.8482C17.8247 32.8482 15.3369 32.8263 15.3369 32.8522Z" fill="#F7F7F7"/>
<path d="M32.8647 32.8762H35.3664V42.9047H32.8867C32.8867 42.9047 32.9245 32.8143 32.8647 32.8762Z" fill="#F7F7F7"/>
<path d="M42.2542 35.7526L43.7501 34.3034C43.7501 34.3034 42.8179 32.5828 40.3421 32.5828C37.8663 32.5828 37.3743 34.6228 37.3743 34.6228C37.3743 34.6228 36.6134 36.8345 38.9439 38.112C41.2743 39.3896 41.8618 39.4894 41.5671 40.4216C41.2723 41.3537 39.3362 40.9625 38.428 39.8227L36.9321 41.4456C36.9321 41.4456 38.2069 43.3139 40.4397 43.1423C42.6725 42.9706 43.3338 41.8648 43.3338 41.8648C43.6895 41.4214 43.9128 40.8863 43.978 40.3212C44.0433 39.756 43.9476 39.1839 43.7023 38.671C43.7023 38.671 43.0888 37.3675 40.6369 36.4353C40.6369 36.4353 39.0673 35.9682 39.8023 35.038C40.5373 34.1078 42.2542 35.7526 42.2542 35.7526Z" fill="#F7F7F7"/>
<path d="M46.3253 29.1435H48.7991V32.8303H50.2451V35.0261H48.7792V42.8908H46.3751V35.04H45.0007V32.8443H46.3014C46.3014 32.8443 46.3014 29.1155 46.3253 29.1435Z" fill="#F7F7F7"/>
<path d="M56.4537 32.5808C56.4537 32.5808 51.2292 32.5309 51.2292 37.9384C51.2292 43.3459 56.6489 43.2221 56.6489 43.2221C56.6489 43.2221 59.6366 43.3459 60.9891 41.0264L58.9574 39.9545C58.9574 39.9545 58.344 40.9126 56.6529 40.9865C55.9352 41.0418 55.2224 40.8289 54.652 40.3888C54.0816 39.9487 53.6939 39.3126 53.5636 38.6031L61.6802 38.5532C61.6802 38.5532 62.1682 32.8263 56.4537 32.5808ZM53.7071 36.6109C53.9091 36.0467 54.283 35.5604 54.7759 35.2209C55.2688 34.8813 55.8557 34.7056 56.4537 34.7186C57.0548 34.7096 57.6431 34.8931 58.1328 35.2424C58.6226 35.5918 58.9882 36.0887 59.1765 36.6609L53.7071 36.6109Z" fill="#F7F7F7"/>
<path d="M63.1401 32.8762H65.2992V34.0559C65.2992 34.0559 66.4525 31.8921 68.512 32.8583L67.7512 35.054C67.7512 35.054 66.3569 33.9242 65.6916 36.3814V42.8948H63.2238C63.2238 42.8948 63.174 32.8762 63.1401 32.8762Z" fill="#F7F7F7"/>
<path d="M34.2034 31.5029C34.9184 31.5029 35.498 30.922 35.498 30.2054C35.498 29.4888 34.9184 28.9079 34.2034 28.9079C33.4883 28.9079 32.9087 29.4888 32.9087 30.2054C32.9087 30.922 33.4883 31.5029 34.2034 31.5029Z" fill="#F7F7F7"/>
<path d="M82.9766 24.8178C82.9748 25.4802 83.1042 26.1364 83.3572 26.7484C83.6102 27.3603 83.9818 27.9159 84.4505 28.3829L85.3448 29.2792C87.6195 27.1464 90.615 25.955 93.7299 25.9443C96.8449 25.9335 99.8485 27.1042 102.138 29.2213L103.034 28.323C104.063 27.2891 105.437 26.6734 106.892 26.5944L97.0327 16.7156C96.1676 15.8488 94.9944 15.3618 93.7712 15.3618C92.5479 15.3618 91.3747 15.8488 90.5096 16.7156L83.0164 24.225C82.9917 24.4217 82.9784 24.6196 82.9766 24.8178Z" fill="#F7F7F7"/>
<path d="M80.3015 49.1327C80.9625 49.1344 81.6172 49.0048 82.2278 48.7513C82.8385 48.4977 83.3928 48.1253 83.8589 47.6555L84.7532 46.7593C82.625 44.4797 81.4362 41.4777 81.4255 38.356C81.4148 35.2343 82.5829 32.2241 84.6954 29.9299L83.7991 29.0317C82.7674 28.0005 82.153 26.6232 82.0742 25.1652L72.2168 35.044C71.3519 35.911 70.866 37.0867 70.866 38.3127C70.866 39.5386 71.3519 40.7144 72.2168 41.5813L79.7099 49.0907C79.9061 49.1162 80.1037 49.1302 80.3015 49.1327Z" fill="#F7F7F7"/>
<path d="M104.57 51.8135C104.571 51.1511 104.442 50.4949 104.189 49.8829C103.936 49.271 103.564 48.7154 103.096 48.2484L102.201 47.3521C99.9268 49.4849 96.9312 50.6763 93.8163 50.687C90.7013 50.6977 87.6977 49.527 85.4085 47.41L84.5122 48.3083C83.4833 49.3422 82.109 49.9579 80.6541 50.0369L90.5115 59.9157C91.3766 60.7825 92.5498 61.2695 93.7731 61.2695C94.9964 61.2695 96.1696 60.7825 97.0346 59.9157L104.528 52.4063C104.553 52.2097 104.567 52.0117 104.57 51.8135Z" fill="#F7F7F7"/>
<path d="M115.325 35.048L107.832 27.5466C107.634 27.5222 107.434 27.5095 107.235 27.5086C106.574 27.5068 105.919 27.6365 105.308 27.89C104.698 28.1436 104.143 28.516 103.677 28.9858L102.783 29.882C104.911 32.1616 106.1 35.1636 106.111 38.2853C106.121 41.407 104.953 44.4172 102.841 46.7114L103.737 47.6096C104.769 48.6408 105.383 50.018 105.462 51.4761L115.325 41.5853C116.19 40.7184 116.676 39.5426 116.676 38.3167C116.676 37.0907 116.19 35.915 115.325 35.048Z" fill="#F7F7F7"/>
<path d="M89.0117 29.6485C89.0117 29.6485 92.0771 29.6105 93.792 31.2214C95.1356 30.168 96.7948 29.6004 98.5007 29.6105C97.1243 28.6631 95.4975 28.1481 93.8279 28.1314C91.1051 28.1314 89.0117 29.6485 89.0117 29.6485Z" fill="#F7F7F7"/>
<path d="M93.4413 31.3392C93.4413 31.3392 91.1806 29.6165 88.2626 30.0657C86.9307 31.1097 85.9561 32.5434 85.4741 34.1677C85.4741 34.1677 89.1231 31.7843 93.4413 31.3392Z" fill="#F7F7F7"/>
<path d="M94.1326 31.3532C94.1326 31.3532 96.3375 29.6105 99.2714 30.0038C99.2714 30.0038 101.16 31.3532 102.167 34.1956C99.6858 32.7624 96.9622 31.7988 94.1326 31.3532Z" fill="#F7F7F7"/>
<path d="M85.3865 34.5749C85.3865 34.5749 89.171 32.1217 93.7402 31.6166C93.7402 31.6166 98.15 32.1975 102.094 34.4831C102.094 34.4831 102.542 35.531 102.841 37.593C102.841 37.593 95.9072 35.1578 93.7581 34.2775C93.7581 34.2775 87.5357 36.7507 84.8806 37.5172C84.8826 37.5152 85.1256 35.0061 85.3865 34.5749Z" fill="#F7F7F7"/>
<path d="M92.1506 35.1937C92.1506 35.1937 93.4214 34.7825 93.6823 34.5948C94.1994 34.8253 94.7318 35.0194 95.2758 35.1757L93.8556 36.1498L92.1506 35.1937Z" fill="#F7F7F7"/>
<path d="M84.5639 37.4593C84.5639 37.4593 84.5639 36.5231 84.789 35.9802L83.574 34.4631L84.5639 37.4593Z" fill="#F7F7F7"/>
<path d="M102.777 36.054C102.919 36.4922 103.014 36.9447 103.058 37.4034L104.068 34.501L102.777 36.054Z" fill="#F7F7F7"/>
<path d="M90.2066 40.6252C90.105 40.6219 90.0059 40.5927 89.9188 40.5403C89.8316 40.4879 89.7592 40.4141 89.7084 40.3259C89.6576 40.2376 89.6301 40.1379 89.6285 40.036C89.6269 39.9342 89.6513 39.8336 89.6993 39.7438C89.7473 39.654 89.8174 39.578 89.9029 39.5229C89.9884 39.4678 90.0865 39.4355 90.1879 39.429C90.2894 39.4226 90.3908 39.4421 90.4826 39.4858C90.5744 39.5296 90.6535 39.5961 90.7125 39.679C90.6314 39.3876 90.4477 39.1355 90.1954 38.9694C89.9431 38.8033 89.6393 38.7343 89.3402 38.7754C89.0411 38.8164 88.767 38.9646 88.5685 39.1926C88.3701 39.4205 88.2607 39.7128 88.2607 40.0154C88.2607 40.3179 88.3701 40.6102 88.5685 40.8382C88.767 41.0661 89.0411 41.2143 89.3402 41.2554C89.6393 41.2964 89.9431 41.2275 90.1954 41.0613C90.4477 40.8952 90.6314 40.6431 90.7125 40.3517C90.6579 40.4362 90.583 40.5056 90.4945 40.5534C90.4061 40.6012 90.3071 40.6259 90.2066 40.6252Z" fill="#F7F7F7"/>
<path d="M98.2893 38.7648C98.0182 38.7657 97.7547 38.8552 97.539 39.0199C97.3233 39.1846 97.1671 39.4153 97.0942 39.677C97.1666 39.572 97.2707 39.4929 97.3911 39.4512C97.5116 39.4096 97.6421 39.4077 97.7638 39.4457C97.8854 39.4837 97.9917 39.5597 98.0672 39.6625C98.1427 39.7653 98.1834 39.8897 98.1834 40.0174C98.1834 40.1451 98.1427 40.2694 98.0672 40.3722C97.9917 40.4751 97.8854 40.5511 97.7638 40.5891C97.6421 40.6271 97.5116 40.6251 97.3911 40.5835C97.2707 40.5419 97.1666 40.4628 97.0942 40.3577C97.1587 40.5808 97.2839 40.7816 97.4558 40.9373C97.6278 41.0931 97.8396 41.1978 98.0676 41.2396C98.2956 41.2814 98.5307 41.2586 98.7466 41.1739C98.9624 41.0893 99.1504 40.946 99.2895 40.7601C99.4285 40.5743 99.5132 40.3533 99.5339 40.1219C99.5546 39.8906 99.5105 39.658 99.4066 39.4504C99.3027 39.2427 99.1432 39.0682 98.9458 38.9464C98.7484 38.8246 98.5211 38.7603 98.2893 38.7608V38.7648Z" fill="#F7F7F7"/>
<path d="M99.7553 44.314C99.7553 44.314 99.6119 43.316 98.7355 43.274C98.5815 43.249 98.4238 43.2853 98.2962 43.3752C98.1685 43.465 98.081 43.6014 98.0523 43.7551C98.3909 43.5236 98.5961 43.5874 98.5961 43.5874C98.5961 43.5874 99.2952 43.7292 99.0243 44.3859C98.7535 45.0426 97.0325 44.839 97.0325 44.839C97.0325 44.839 95.7677 44.5995 94.9631 44.7931C94.2995 44.9164 93.6189 44.9164 92.9553 44.7931C92.1586 44.5935 90.8858 44.839 90.8858 44.839C90.8858 44.839 89.1729 45.0486 88.894 44.3859C88.6152 43.7232 89.3223 43.5874 89.3223 43.5874C89.3223 43.5874 89.5214 43.5256 89.866 43.7551C89.8374 43.6014 89.7499 43.465 89.6222 43.3752C89.4945 43.2853 89.3368 43.249 89.1828 43.274C88.3065 43.324 88.163 44.314 88.163 44.314C88.163 44.314 87.9081 45.9329 90.1907 46.3221C92.4215 46.7034 93.4453 46.3521 93.9492 46.0407C94.4531 46.3521 95.4769 46.7034 97.7078 46.3221C100.01 45.9309 99.7553 44.314 99.7553 44.314Z" fill="#F7F7F7"/>
<path d="M89.5355 41.747C89.1766 41.747 88.8258 41.6403 88.5274 41.4405C88.229 41.2407 87.9964 40.9567 87.8591 40.6244C87.7217 40.2921 87.6858 39.9265 87.7558 39.5738C87.8258 39.221 87.9986 38.897 88.2524 38.6427C88.5062 38.3883 88.8295 38.2152 89.1815 38.145C89.5335 38.0748 89.8983 38.1108 90.2299 38.2485C90.5614 38.3861 90.8448 38.6192 91.0442 38.9182C91.2436 39.2173 91.35 39.5689 91.35 39.9285C91.3495 40.4106 91.1581 40.8729 90.818 41.2138C90.4778 41.5547 90.0166 41.7465 89.5355 41.747ZM89.5355 38.3077C89.216 38.3077 88.9037 38.4026 88.638 38.5805C88.3724 38.7584 88.1654 39.0112 88.0431 39.307C87.9208 39.6028 87.8888 39.9283 87.9512 40.2423C88.0135 40.5564 88.1673 40.8448 88.3933 41.0712C88.6192 41.2976 88.907 41.4518 89.2203 41.5143C89.5337 41.5767 89.8585 41.5447 90.1536 41.4222C90.4488 41.2996 90.7011 41.0921 90.8786 40.8259C91.0561 40.5597 91.1508 40.2467 91.1508 39.9265C91.1498 39.4977 90.9792 39.0867 90.6764 38.7837C90.3737 38.4806 89.9634 38.3102 89.5355 38.3097V38.3077Z" fill="#F7F7F7"/>
<path d="M98.2576 41.747C97.8988 41.747 97.5479 41.6403 97.2495 41.4405C96.9511 41.2407 96.7186 40.9567 96.5812 40.6244C96.4439 40.2921 96.408 39.9265 96.478 39.5738C96.548 39.221 96.7208 38.897 96.9746 38.6427C97.2283 38.3883 97.5517 38.2152 97.9036 38.145C98.2556 38.0748 98.6205 38.1108 98.952 38.2485C99.2836 38.3861 99.567 38.6192 99.7664 38.9182C99.9658 39.2173 100.072 39.5689 100.072 39.9285C100.072 40.4106 99.8803 40.8729 99.5401 41.2138C99.2 41.5547 98.7387 41.7465 98.2576 41.747ZM98.2576 38.3077C97.9382 38.3077 97.6258 38.4026 97.3602 38.5805C97.0946 38.7584 96.8875 39.0112 96.7653 39.307C96.643 39.6028 96.611 39.9283 96.6733 40.2423C96.7357 40.5564 96.8895 40.8448 97.1154 41.0712C97.3413 41.2976 97.6292 41.4518 97.9425 41.5143C98.2559 41.5767 98.5806 41.5447 98.8758 41.4222C99.171 41.2996 99.4233 41.0921 99.6008 40.8259C99.7783 40.5597 99.873 40.2467 99.873 39.9265C99.8719 39.4977 99.7014 39.0867 99.3986 38.7837C99.0958 38.4806 98.6856 38.3102 98.2576 38.3097V38.3077Z" fill="#F7F7F7"/>
</svg>
