<svg width="140" height="37" viewBox="0 0 140 37" fill="none" xmlns="http://www.w3.org/2000/svg">
<g clip-path="url(#clip0_30_34)">
<path d="M26.1699 22.2522C25.0581 21.5678 23.7753 21.3967 22.4924 21.3967C21.4662 21.3967 19.8412 20.7122 19.8412 18.7444C19.8412 18.06 20.0978 17.3755 20.6109 16.8622C21.1241 16.3489 21.8083 16.0922 22.4924 16.0922C23.7753 16.0067 25.0581 15.8355 26.1699 15.2367C27.1962 14.6378 28.0514 13.7822 28.65 12.7555C29.2487 11.7289 29.5053 10.6167 29.5053 9.41888C29.5053 8.2211 29.1632 7.10888 28.65 6.08221C28.0514 5.05554 27.1962 4.19999 26.1699 3.6011C25.1436 3.00221 24.0318 2.74554 22.8345 2.74554C21.6372 2.74554 20.5254 3.08777 19.4992 3.6011C18.4729 4.19999 17.6177 5.05554 17.019 6.08221C16.4204 7.10888 16.1638 8.2211 16.0783 9.41888C16.0783 10.7022 16.5059 11.9 17.1045 13.0122C17.6177 13.9533 17.8742 15.6644 16.1638 16.6911C15.5651 17.0333 14.7954 17.1189 14.1113 16.9478C13.4271 16.7767 12.8284 16.3489 12.4863 15.75C11.8022 14.7233 11.0325 13.6967 9.92066 13.0122C8.89439 12.4133 7.7826 12.1567 6.58529 12.1567C5.38798 12.1567 4.27619 12.4989 3.24992 13.0122C2.22365 13.6111 1.36843 14.4667 0.769774 15.4933C0.171118 16.52 -0.0854492 17.6322 -0.0854492 18.83C-0.0854492 20.0278 0.25664 21.14 0.769774 22.1667C1.36843 23.1933 2.22365 24.0489 3.24992 24.6478C4.27619 25.2467 5.38798 25.5033 6.58529 25.5033C7.7826 25.5033 8.89439 25.1611 9.92066 24.6478C11.0325 23.9633 11.8877 23.0222 12.4863 21.91C12.9995 21.0544 14.3678 19.9422 16.0783 20.8833C16.6769 21.2255 17.1045 21.8244 17.2756 22.5089C17.4466 23.1933 17.3611 23.8778 17.019 24.5622C16.4204 25.6744 15.9927 26.8722 15.9927 28.1555C15.9927 29.3533 16.3348 30.4655 16.848 31.4922C17.4466 32.5189 18.3018 33.3744 19.3281 33.9733C20.3544 34.5722 21.4662 34.8289 22.6635 34.8289C23.8608 34.8289 24.9726 34.4867 25.9989 33.9733C27.0251 33.3744 27.8803 32.5189 28.479 31.4922C29.0777 30.4655 29.3342 29.3533 29.3342 28.1555C29.3342 26.9578 28.9921 25.8455 28.479 24.8189C28.0514 23.7067 27.1962 22.8511 26.1699 22.2522Z" fill="#F7F7F7"/>
<path d="M38.7418 8.56331H43.36V10.7878C43.9586 10.0178 44.7283 9.41887 45.6691 8.99109C46.5243 8.56331 47.5506 8.3922 48.4913 8.3922C49.1755 8.3922 49.8597 8.47775 50.4583 8.64886V13.9533C50.4583 13.9533 49.7742 13.6966 48.2347 13.6966C45.5836 13.6966 43.7876 15.4933 43.7876 18.1455V29.0111H38.6562V8.56331H38.7418ZM63.7998 8.56331H68.418V10.5311C70.0429 9.1622 72.0955 8.30664 74.148 8.30664C79.2793 8.30664 83.7265 12.7555 83.7265 18.7444C83.7265 24.7333 79.2793 29.1822 74.148 29.1822C72.181 29.1822 70.2995 28.4978 68.8456 27.2144V36.2833H63.7143V8.56331H63.7998ZM78.5952 18.7444C78.5952 15.4078 76.3716 13.1833 73.5494 13.1833C70.6416 13.1833 68.418 15.4078 68.418 18.7444C68.418 22.0811 70.6416 24.3055 73.5494 24.3055C76.4571 24.3055 78.5952 22.0811 78.5952 18.7444ZM87.4895 8.56331H92.1077V10.5311C93.7326 9.1622 95.7851 8.30664 97.8377 8.30664C102.969 8.30664 107.416 12.7555 107.416 18.7444C107.416 24.7333 102.969 29.1822 97.8377 29.1822C95.8707 29.1822 93.9892 28.4978 92.5353 27.2144V36.2833H87.404V8.56331H87.4895ZM102.285 18.7444C102.285 15.4078 100.061 13.1833 97.239 13.1833C94.3313 13.1833 92.1077 15.4078 92.1077 18.7444C92.1077 22.0811 94.3313 24.3055 97.239 24.3055C100.147 24.3055 102.285 22.0811 102.285 18.7444ZM111.179 1.03442H116.311V28.9255H111.179V1.03442ZM120.073 18.7444C120.073 13.0122 124.692 8.30664 130.251 8.30664C135.553 8.30664 140 12.4989 140 18.7444C140 19.4289 139.915 20.1133 139.744 20.7122H125.547C125.975 22.68 127.599 24.22 130.165 24.22C132.56 24.22 133.5 23.1078 133.5 23.1078H139.059C138.033 25.76 134.869 29.0966 130.165 29.0966C124.692 29.1822 120.073 24.5622 120.073 18.7444ZM135.125 17.2044C134.869 16.0922 134.27 15.0655 133.415 14.3811C132.56 13.6966 131.448 13.2689 130.251 13.2689C129.139 13.2689 128.027 13.6966 127.086 14.3811C126.231 15.0655 125.547 16.0922 125.376 17.2044H135.125ZM53.4516 3.25886C53.4516 2.48886 53.7937 1.71886 54.3068 1.20553C54.82 0.692198 55.5897 0.349976 56.3594 0.349976C57.1291 0.349976 57.8988 0.692198 58.4119 1.20553C58.925 1.71886 59.2671 2.48886 59.2671 3.25886C59.2671 4.02886 58.925 4.79886 58.4119 5.3122C57.8988 5.82553 57.1291 6.16775 56.3594 6.16775C55.5897 6.16775 54.82 5.82553 54.3068 5.3122C53.7937 4.71331 53.4516 4.02886 53.4516 3.25886ZM53.7937 8.56331H58.925V28.9255H53.7937V8.56331Z" fill="#F7F7F7"/>
</g>
<defs>
<clipPath id="clip0_30_34">
<rect width="140" height="35.9333" fill="white" transform="translate(0 0.349976)"/>
</clipPath>
</defs>
</svg>
