<svg width="150" height="46" viewBox="0 0 150 46" fill="none" xmlns="http://www.w3.org/2000/svg">
<g clip-path="url(#clip0_30_40)">
<path d="M36.3885 20.7996C29.2464 16.5533 17.4656 16.1629 10.6475 18.2345C9.55259 18.5669 8.39483 17.9482 8.06307 16.8521C7.73131 15.7555 8.34874 14.5972 9.44438 14.264C17.2711 11.8854 30.2817 12.3449 38.5039 17.2311C39.4889 17.8162 39.812 19.0895 39.228 20.074C38.6438 21.0598 37.3709 21.3847 36.3885 20.7996ZM36.1546 27.0887C35.6538 27.9028 34.5907 28.1578 33.7787 27.6583C27.8242 23.9941 18.7445 22.9326 11.6999 25.0733C10.7864 25.3496 9.82151 24.8341 9.54412 23.9212C9.26877 23.0066 9.7841 22.0424 10.696 21.7644C18.7434 19.3197 28.7474 20.5037 35.5863 24.7112C36.3983 25.2118 36.6539 26.2767 36.1546 27.0887ZM33.4434 33.1287C33.0455 33.7822 32.1951 33.9872 31.5448 33.5889C26.3416 30.4054 19.7927 29.6862 12.0801 31.45C11.3368 31.6206 10.5961 31.1542 10.4265 30.4103C10.2563 29.6663 10.7203 28.9249 11.4652 28.7552C19.9053 26.8235 27.1453 27.6549 32.9855 31.2275C33.6366 31.6256 33.8416 32.4772 33.4434 33.1287ZM23.2821 1.13508C11.0453 1.13508 1.125 11.0658 1.125 23.3163C1.125 35.5678 11.0453 45.4983 23.2821 45.4983C35.5194 45.4983 45.4391 35.5678 45.4391 23.3163C45.4391 11.0658 35.5194 1.13508 23.2821 1.13508Z" fill="#F7F7F7"/>
<path d="M61.4066 21.6125C57.581 20.6991 56.8997 20.0581 56.8997 18.7115C56.8997 17.4388 58.0967 16.5827 59.8763 16.5827C61.6014 16.5827 63.3116 17.233 65.1052 18.5716C65.1595 18.6122 65.2275 18.6283 65.2944 18.6177C65.3614 18.6077 65.4204 18.5711 65.4598 18.5155L67.3277 15.8794C67.4045 15.7711 67.3836 15.6212 67.2801 15.5383C65.1457 13.8237 62.7422 12.9902 59.9329 12.9902C55.8022 12.9902 52.917 15.4715 52.917 19.0225C52.917 22.8302 55.4059 24.1782 59.7069 25.2189C63.3677 26.0631 63.9855 26.7702 63.9855 28.0347C63.9855 29.4356 62.7362 30.3065 60.7256 30.3065C58.4928 30.3065 56.6711 29.5535 54.6336 27.787C54.583 27.7435 54.5137 27.7235 54.4497 27.7271C54.3825 27.7327 54.3208 27.7639 54.278 27.8155L52.1835 30.311C52.0957 30.4146 52.1068 30.5692 52.2081 30.6587C54.5791 32.7775 57.4945 33.8969 60.6409 33.8969C65.092 33.8969 67.9683 31.4619 67.9683 27.6935C67.9683 24.5087 66.0675 22.7473 61.4066 21.6125Z" fill="#F7F7F7"/>
<path d="M81.2696 25.8809C81.2696 28.5703 79.6149 30.4468 77.2456 30.4468C74.9032 30.4468 73.1363 28.485 73.1363 25.8809C73.1363 23.2772 74.9032 21.3151 77.2456 21.3151C79.5768 21.3151 81.2696 23.2348 81.2696 25.8809ZM78.0385 17.8353C76.1092 17.8353 74.5267 18.596 73.2218 20.1548V18.4003C73.2218 18.2617 73.1096 18.1489 72.9712 18.1489H69.5459C69.4076 18.1489 69.2957 18.2617 69.2957 18.4003V37.8958C69.2957 38.0343 69.4076 38.1471 69.5459 38.1471H72.9712C73.1096 38.1471 73.2218 38.0343 73.2218 37.8958V31.7422C74.527 33.2085 76.1097 33.9247 78.0385 33.9247C81.6234 33.9247 85.2524 31.162 85.2524 25.8809C85.2524 20.5987 81.6234 17.8353 78.0385 17.8353Z" fill="#F7F7F7"/>
<path d="M94.5546 30.475C92.099 30.475 90.2477 28.4998 90.2477 25.8809C90.2477 23.2511 92.035 21.3426 94.498 21.3426C96.9694 21.3426 98.8332 23.3177 98.8332 25.9383C98.8332 28.5679 97.0337 30.475 94.5546 30.475ZM94.5546 17.8353C89.9379 17.8353 86.321 21.3943 86.321 25.9383C86.321 30.4331 89.913 33.9547 94.498 33.9547C99.1311 33.9547 102.759 30.4077 102.759 25.8809C102.759 21.3693 99.156 17.8353 94.5546 17.8353Z" fill="#F7F7F7"/>
<path d="M112.618 18.149H108.849V14.2908C108.849 14.1522 108.737 14.0397 108.599 14.0397H105.174C105.035 14.0397 104.922 14.1522 104.922 14.2908V18.149H103.275C103.137 18.149 103.026 18.2618 103.026 18.4003V21.3475C103.026 21.486 103.137 21.5987 103.275 21.5987H104.922V29.225C104.922 32.3069 106.454 33.8694 109.476 33.8694C110.705 33.8694 111.724 33.6154 112.685 33.07C112.763 33.0263 112.812 32.9421 112.812 32.8525V30.046C112.812 29.9592 112.767 29.8777 112.693 29.8322C112.618 29.7853 112.525 29.7829 112.449 29.8208C111.789 30.1531 111.151 30.3066 110.438 30.3066C109.339 30.3066 108.849 29.8073 108.849 28.6876V21.5987H112.618C112.756 21.5987 112.868 21.486 112.868 21.3475V18.4003C112.868 18.2618 112.756 18.149 112.618 18.149Z" fill="#F7F7F7"/>
<path d="M125.751 18.1641V17.6902C125.751 16.2961 126.285 15.6745 127.483 15.6745C128.197 15.6745 128.77 15.8164 129.413 16.031C129.492 16.0559 129.574 16.0434 129.639 15.996C129.705 15.9486 129.742 15.8726 129.742 15.7921V12.9023C129.742 12.7918 129.671 12.6941 129.565 12.6618C128.887 12.4597 128.018 12.252 126.718 12.252C123.554 12.252 121.882 14.0357 121.882 17.4084V18.1341H120.236C120.098 18.1341 119.985 18.2467 119.985 18.3852V21.3475C119.985 21.486 120.098 21.5987 120.236 21.5987H121.882V33.3619C121.882 33.5004 121.993 33.613 122.131 33.613H125.557C125.695 33.613 125.808 33.5004 125.808 33.3619V21.5987H129.006L133.905 33.3588C133.349 34.5944 132.802 34.8402 132.056 34.8402C131.452 34.8402 130.817 34.6598 130.167 34.3039C130.106 34.2701 130.033 34.2646 129.967 34.285C129.902 34.3083 129.847 34.3568 129.819 34.4207L128.658 36.9706C128.603 37.0911 128.65 37.2326 128.766 37.2951C129.978 37.9522 131.072 38.2327 132.424 38.2327C134.954 38.2327 136.352 37.053 137.584 33.8797L143.527 18.5063C143.557 18.4289 143.548 18.3418 143.501 18.2729C143.454 18.2051 143.378 18.1641 143.295 18.1641H139.729C139.622 18.1641 139.526 18.2319 139.491 18.3323L135.838 28.7785L131.837 18.3254C131.8 18.2282 131.707 18.1641 131.603 18.1641H125.751Z" fill="#F7F7F7"/>
<path d="M118.138 18.1489H114.712C114.574 18.1489 114.461 18.2618 114.461 18.4003V33.3618C114.461 33.5004 114.574 33.613 114.712 33.613H118.138C118.276 33.613 118.388 33.5004 118.388 33.3618V18.4003C118.388 18.2618 118.276 18.1489 118.138 18.1489Z" fill="#F7F7F7"/>
<path d="M116.442 11.3365C115.085 11.3365 113.984 12.4366 113.984 13.7949C113.984 15.1542 115.085 16.2553 116.442 16.2553C117.799 16.2553 118.899 15.1542 118.899 13.7949C118.899 12.4366 117.799 11.3365 116.442 11.3365Z" fill="#F7F7F7"/>
<path d="M146.592 19.6372H145.964V20.4385H146.592C146.905 20.4385 147.092 20.285 147.092 20.0376C147.092 19.777 146.905 19.6372 146.592 19.6372ZM146.999 20.7802L147.681 21.736H147.106L146.492 20.8594H145.964V21.736H145.483V19.2026H146.611C147.199 19.2026 147.586 19.5038 147.586 20.0107C147.586 20.4259 147.346 20.6797 146.999 20.7802ZM146.464 18.3598C145.23 18.3598 144.295 19.3422 144.295 20.5457C144.295 21.7485 145.223 22.7179 146.452 22.7179C147.686 22.7179 148.621 21.736 148.621 20.532C148.621 19.3292 147.693 18.3598 146.464 18.3598ZM146.452 22.9594C145.096 22.9594 144.041 21.8693 144.041 20.5457C144.041 19.222 145.11 18.1195 146.464 18.1195C147.82 18.1195 148.875 19.2095 148.875 20.532C148.875 21.8558 147.807 22.9594 146.452 22.9594Z" fill="#F7F7F7"/>
</g>
<defs>
<clipPath id="clip0_30_40">
<rect width="150" height="45.0397" fill="white" transform="translate(0 0.796814)"/>
</clipPath>
</defs>
</svg>
