<svg width="150" height="37" viewBox="0 0 150 37" fill="none" xmlns="http://www.w3.org/2000/svg">
<g clip-path="url(#clip0_30_95)">
<path fill-rule="evenodd" clip-rule="evenodd" d="M83.3439 23.2722C83.3439 23.5581 83.2965 23.8917 83.2491 24.1299C82.8224 25.3688 81.6846 26.1789 80.3571 26.1789C79.1719 26.1789 78.2712 25.5118 78.2712 24.0823C78.2712 21.8904 80.6416 21.3186 83.3913 21.3186V23.2722H83.3439ZM87.6106 19.4602C87.6106 15.8865 86.0936 12.6939 80.926 12.6939C78.2712 12.6939 76.1378 13.4563 75 14.1234L75.8533 17.0301C77.1808 16.2677 78.6504 15.8388 80.1675 15.7912C82.8224 15.7912 83.2491 17.2683 83.2491 18.2213V18.4596C77.5126 18.4596 73.9096 20.4609 73.9096 24.5111C73.9096 26.989 75.7585 29.3238 78.9823 29.3238C80.926 29.3238 82.5853 28.5614 83.5809 27.2749H83.6757C83.6757 27.2749 84.3394 30.0386 87.9425 28.9903C87.7528 27.8467 87.658 26.6078 87.658 25.1782V19.4602H87.6106ZM0 7.78595L4.36157 25.7024C5.07269 28.6091 6.30531 29.705 9.90834 28.9903L12.2314 19.4602C12.8003 17.0777 13.2269 15.41 13.6062 12.9798H13.6536C13.9381 15.41 14.3173 17.0777 14.7914 19.4602L16.2137 26.0836C16.7351 28.3708 18.0626 29.8003 21.6182 28.9903L27.165 7.8336H22.6612L20.7649 16.9824C20.2434 19.6508 19.7693 21.7474 19.4374 24.1776C19.1056 21.7474 18.6789 19.7461 18.1574 17.173L16.2137 7.8336H11.5202L9.38685 16.9348C8.81795 19.6985 8.24905 21.938 7.86978 24.2729H7.82238C7.44311 22.081 6.96903 19.2696 6.44753 16.6012L4.74083 7.78595H0ZM35.414 23.2722C35.414 23.5581 35.414 23.8917 35.3192 24.1299C34.8925 25.3688 33.7547 26.1789 32.4273 26.1789C31.2421 26.1789 30.3413 25.5118 30.3413 24.0823C30.3413 21.8904 32.7118 21.3186 35.4614 21.3186V23.2722H35.414ZM39.7282 19.4602C39.7282 15.8865 38.2111 12.6939 33.0436 12.6939C30.3887 12.6939 28.2554 13.4563 27.1176 14.1234L27.9709 17.0301C29.2984 16.2677 30.768 15.8388 32.2851 15.7912C34.9399 15.7912 35.3666 17.2683 35.3666 18.2213V18.4596C29.6302 18.4596 26.0272 20.4609 26.0272 24.5111C26.0272 26.989 27.8761 29.3238 31.0999 29.3238C33.0436 29.3238 34.7029 28.5614 35.6985 27.2749H35.7933C35.7933 27.2749 36.457 30.0386 40.0601 28.9903C39.8704 27.8467 39.7756 26.6078 39.7756 25.1782V19.4602H39.7282ZM46.3179 24.4635V7.78595H42.0512V28.9426H46.3179V24.4635ZM100.743 7.8336V23.4152C100.743 25.5595 101.122 27.0843 102.023 27.9896C102.781 28.7997 104.014 29.3238 105.484 29.3238C106.764 29.3238 107.996 29.0856 108.565 28.8473L108.518 25.4641C108.091 25.6071 107.57 25.6548 106.906 25.6548C105.436 25.6548 104.962 24.7494 104.962 22.7957V16.8871H108.707V12.8369H104.962V7.78595L100.743 7.8336ZM89.6966 13.0751V28.9903H94.1056V20.8421C94.1056 20.4132 94.153 20.032 94.2004 19.6508C94.5322 17.9354 95.8123 16.8395 97.7086 16.8395C98.2301 16.8395 98.5619 16.8871 98.9886 16.9348V12.7416C98.6568 12.6939 98.3249 12.6463 98.0405 12.6463C96.3812 12.6463 94.5322 13.6946 93.7263 16.0294H93.6315V13.0275L89.6966 13.0751ZM48.8306 13.0751V28.9903H53.0973V19.6508C53.0973 19.222 53.1448 18.7455 53.287 18.3643C53.6188 17.4113 54.5196 16.3153 55.8944 16.3153C57.6485 16.3153 58.4545 17.7925 58.4545 19.8891V28.9426H62.7686V19.5079C62.7686 19.079 62.8161 18.5549 62.9583 18.2213C63.2901 17.0777 64.3805 16.2677 65.5657 16.2677C67.3198 16.2677 68.1732 17.6972 68.1732 20.2226V28.9426H72.4874V19.6032C72.4874 14.6952 69.9747 12.6939 67.1776 12.6939C65.8976 12.6939 64.9494 13.0275 64.0487 13.5516C63.2901 14.0281 62.6264 14.6952 62.0575 15.5529H62.0101C61.299 13.7899 59.5449 12.6463 57.6485 12.6939C55.7522 12.5986 53.9507 13.5516 53.0499 15.2194H53.0025V13.0751H48.8306Z" fill="#F7F7F7"/>
<path fill-rule="evenodd" clip-rule="evenodd" d="M131.795 12.3604C132.649 12.3604 133.36 11.8839 133.455 11.3597L134.26 1.78206C134.26 0.829052 133.17 0.0666504 131.795 0.0666504C130.42 0.0666504 129.33 0.829052 129.33 1.78206L130.183 11.3597C130.231 11.9315 130.942 12.3604 131.795 12.3604ZM126.628 15.3623C127.054 14.5999 127.007 13.7899 126.58 13.4087L118.758 7.92892C117.952 7.45242 116.719 8.02422 116.056 9.21548C115.345 10.4067 115.487 11.7886 116.293 12.2174L124.968 16.2677C125.49 16.4583 126.248 16.0771 126.628 15.3623ZM136.915 15.3147C137.342 16.0771 138.053 16.4583 138.622 16.22L147.25 12.1698C148.056 11.6933 148.199 10.3591 147.487 9.16783C146.776 7.97657 145.591 7.40477 144.785 7.88127L136.963 13.4087C136.536 13.7899 136.489 14.5999 136.915 15.3147ZM131.795 24.2729C132.649 24.2729 133.36 24.7494 133.455 25.2736L134.26 34.8512C134.26 35.8042 133.17 36.5667 131.795 36.5667C130.42 36.5667 129.33 35.8042 129.33 34.8512L130.183 25.2736C130.231 24.7018 130.942 24.2729 131.795 24.2729ZM136.915 21.3186C137.342 20.5562 138.053 20.175 138.622 20.3656L147.25 24.4159C148.056 24.8924 148.199 26.2266 147.487 27.4178C146.776 28.6091 145.591 29.1809 144.785 28.7044L136.963 23.2246C136.536 22.8911 136.489 22.0334 136.915 21.3186ZM126.628 21.3186C127.054 22.0334 127.007 22.8911 126.58 23.2723L118.758 28.752C117.952 29.2285 116.719 28.6567 116.056 27.4655C115.345 26.2742 115.487 24.94 116.293 24.4635L124.968 20.4133C125.49 20.175 126.248 20.5562 126.628 21.3186ZM149.099 27.8943H149.194C149.289 27.8943 149.384 27.8467 149.384 27.799C149.384 27.7037 149.336 27.7037 149.241 27.7037H149.147V27.8943H149.099ZM149.099 28.3232H148.91V27.5608H149.194C149.336 27.5608 149.384 27.5608 149.479 27.6084C149.526 27.6561 149.573 27.7037 149.573 27.7514C149.573 27.8467 149.526 27.8943 149.431 27.942C149.526 27.9896 149.573 28.0373 149.573 28.1326C149.573 28.2755 149.621 28.2755 149.621 28.3232H149.431C149.384 28.2755 149.384 28.2279 149.384 28.1326C149.384 28.0373 149.336 28.0373 149.241 28.0373H149.147L149.099 28.3232ZM149.194 27.3225C148.862 27.3225 148.625 27.6084 148.625 27.942C148.625 28.2755 148.862 28.5614 149.194 28.5614C149.526 28.5614 149.763 28.2755 149.763 27.942C149.81 27.6084 149.526 27.3225 149.194 27.3225ZM149.194 27.1796C149.621 27.1796 149.953 27.5131 149.953 27.942C149.953 28.3708 149.621 28.7044 149.194 28.7044C148.767 28.7044 148.388 28.3708 148.388 27.942C148.436 27.5131 148.767 27.1796 149.194 27.1796Z" fill="#F7F7F7"/>
</g>
<defs>
<clipPath id="clip0_30_95">
<rect width="150" height="36.5" fill="white" transform="translate(0 0.0666504)"/>
</clipPath>
</defs>
</svg>
