<svg width="21" height="20" viewBox="0 0 21 20" fill="none" xmlns="http://www.w3.org/2000/svg">
<path fill-rule="evenodd" clip-rule="evenodd" d="M17.5518 3.125C17.5518 2.95924 17.486 2.80027 17.3688 2.68306C17.2515 2.56585 17.0926 2.5 16.9268 2.5H9.42681C9.26105 2.5 9.10208 2.56585 8.98487 2.68306C8.86766 2.80027 8.80181 2.95924 8.80181 3.125C8.80181 3.29076 8.86766 3.44973 8.98487 3.56694C9.10208 3.68415 9.26105 3.75 9.42681 3.75H15.4181L2.73431 16.4325C2.6762 16.4906 2.63011 16.5596 2.59866 16.6355C2.56721 16.7114 2.55103 16.7928 2.55103 16.875C2.55103 16.9572 2.56721 17.0386 2.59866 17.1145C2.63011 17.1904 2.6762 17.2594 2.73431 17.3175C2.79242 17.3756 2.86141 17.4217 2.93734 17.4532C3.01326 17.4846 3.09464 17.5008 3.17681 17.5008C3.25899 17.5008 3.34037 17.4846 3.41629 17.4532C3.49222 17.4217 3.56121 17.3756 3.61931 17.3175L16.3018 4.63375V10.625C16.3018 10.7908 16.3677 10.9497 16.4849 11.0669C16.6021 11.1842 16.7611 11.25 16.9268 11.25C17.0926 11.25 17.2515 11.1842 17.3688 11.0669C17.486 10.9497 17.5518 10.7908 17.5518 10.625V3.125Z" fill="#0A142F"/>
</svg>
