<svg width="1329" height="574" viewBox="0 0 1329 574" fill="none" xmlns="http://www.w3.org/2000/svg">
<g clip-path="url(#clip0_4_6396)">
<path d="M1295.55 514.114C1293.1 516.437 1289.38 518.093 1289.38 518.093C1289.38 518.093 1280.84 523.138 1271.86 525.69C1268.68 526.565 1263.82 527.955 1257.5 527.784C1256.84 527.746 1256.18 527.708 1255.5 527.67C1254.84 527.613 1254.2 527.555 1253.57 527.422C1253.07 527.346 1252.6 527.289 1252.13 527.194C1251.87 527.156 1251.63 527.118 1251.37 527.06C1243.29 525.537 1237.75 521.844 1235.7 520.378C1233.74 518.931 1226.93 513.619 1224.66 505.09C1223.27 499.816 1223.25 492.258 1227.23 491.115C1228.01 490.925 1228.81 490.963 1229.62 490.392C1231.22 489.307 1230.7 487.346 1230.32 484.699C1229.62 479.806 1229.24 477.35 1230.42 475.884C1230.94 475.199 1232.77 474.076 1236.4 471.848C1238.93 470.306 1239.14 470.287 1239.42 469.83C1240.77 467.469 1236.29 465.432 1235.37 461.167C1234.71 457.893 1236.26 453.971 1239.63 452.143C1241.66 451.096 1242.75 451.572 1246.82 449.972C1249.7 448.83 1251.16 448.221 1252.18 447.212C1256.09 443.252 1248.76 437.026 1252.34 433.98C1254.11 432.476 1257.79 432.4 1261.3 432.324C1264.88 432.285 1265.8 432.876 1267.24 432.723C1275.52 431.962 1274.36 409.648 1278.25 409.572C1281.2 409.515 1289.12 422.652 1289.83 432.381C1289.9 433.885 1289.94 436.836 1292.68 439.177C1295.81 441.9 1299.35 441.1 1300.93 443.252C1301.71 444.356 1301.38 445.327 1297.82 454.085C1296.66 456.884 1295.86 458.806 1297.13 459.796C1298.38 460.767 1300.69 460.063 1302.44 461.472C1302.74 461.681 1303.29 462.195 1303.59 463.3C1304.72 466.936 1301.94 471.772 1300.5 474.114C1297.68 478.816 1295.74 481.006 1296.78 481.843C1297.86 482.643 1300.39 481.101 1302.77 482.205C1304.42 483.024 1305.01 484.718 1305.08 485.88C1305.17 487.498 1304.04 488.64 1300.25 491.763C1296.36 494.961 1295.62 495.342 1293.64 497.093C1290.18 500.083 1287.04 502.805 1288.15 504.252C1289.17 505.566 1292.51 504.519 1295.25 506.48C1295.37 506.556 1297.44 508.079 1297.56 510.154C1297.65 511.525 1296.76 512.934 1295.53 514.095L1295.55 514.114Z" fill="#1C5939"/>
<path d="M1282.78 510.935C1281.43 513.41 1277.52 513.486 1274.71 513.981C1272.05 514.457 1269.43 515.123 1266.89 515.961C1262.05 517.541 1257.58 519.769 1253.59 522.491C1253.59 522.491 1253.59 522.453 1253.59 522.434C1254.91 517.655 1255.71 512.762 1256.63 507.964C1257.57 503.014 1258.64 498.064 1260.43 493.267C1261.94 489.268 1264.15 485.556 1266.53 481.9C1271.77 479.958 1277.57 479.806 1282.94 478.245C1287.63 476.874 1292.18 473.752 1291.85 469.354C1291.83 468.973 1291.07 469.049 1291.1 469.43C1291.43 474.075 1286.01 476.912 1281.15 478.055C1276.48 479.159 1271.6 479.521 1267.1 481.044C1267.38 480.606 1267.67 480.187 1267.95 479.749C1270.31 476.246 1272.59 472.667 1273.75 468.764C1274.57 466.079 1275.09 463.338 1275.52 460.596C1280.28 458.54 1284.45 455.303 1286.83 451.362C1287.04 451.02 1286.34 450.772 1286.15 451.134C1283.93 454.808 1280.04 457.873 1275.66 459.853C1275.68 459.701 1275.68 459.568 1275.73 459.435C1276.67 452.847 1277.21 446.203 1277.28 439.596C1277.28 439.025 1277.28 438.435 1277.28 437.845C1277.28 437.464 1276.55 437.388 1276.55 437.769C1276.6 444.032 1276.13 450.315 1275.37 456.522C1274.97 459.834 1274.45 463.128 1273.68 466.403C1273.49 467.145 1273.3 467.888 1273.04 468.611C1270.52 467.564 1269.74 465.241 1268.89 463.223C1268.14 461.453 1267.1 459.777 1265.76 458.254C1263.09 455.246 1259.37 452.885 1255.1 451.553C1254.65 451.419 1254.37 451.971 1254.82 452.105C1259.34 453.533 1263.21 456.103 1265.83 459.416C1267.17 461.129 1267.95 462.957 1268.77 464.842C1269.55 466.612 1270.64 468.326 1272.83 469.183C1272.05 471.467 1270.99 473.657 1269.67 475.827C1266.96 480.244 1263.68 484.414 1261.44 489.021C1259.27 493.495 1257.93 498.217 1256.89 502.938C1256.8 503.338 1256.73 503.757 1256.63 504.157C1252.01 500.539 1247.18 496.713 1245.25 491.629C1244.8 490.449 1244.54 489.23 1244.47 487.993C1244.42 486.793 1244.54 485.594 1244.21 484.414C1243.62 482.224 1241.52 480.72 1239.47 479.349C1239.09 479.102 1238.64 479.578 1239 479.825C1240.18 480.606 1241.36 481.405 1242.28 482.414C1243.19 483.443 1243.6 484.585 1243.67 485.841C1243.76 487.079 1243.67 488.316 1243.88 489.535C1244.07 490.639 1244.44 491.724 1244.94 492.772C1247.18 497.569 1251.8 501.225 1256.28 504.709C1256.35 504.766 1256.44 504.785 1256.51 504.785C1255.26 510.877 1254.37 517.084 1252.65 523.1C1252.65 523.1 1252.65 523.138 1252.65 523.157C1252.62 523.215 1252.6 523.253 1252.6 523.31C1252.6 523.31 1252.6 523.31 1252.6 523.329C1252.25 524.566 1251.85 525.804 1251.4 527.022C1251.63 527.079 1251.89 527.117 1252.15 527.156C1252.6 525.918 1253 524.662 1253.38 523.405C1257.79 520.283 1262.86 517.827 1268.35 516.151C1271.15 515.294 1274.03 514.685 1276.95 514.228C1279.52 513.847 1282.35 513.276 1283.48 511.144C1283.67 510.782 1282.99 510.554 1282.8 510.915L1282.78 510.935Z" fill="#679778"/>
<path d="M1318.07 522.91H97.9534C75.8638 523.595 45.7116 528.603 44.8393 533.019C43.8492 538.027 77.349 539.912 102.692 540.159C158.211 540.711 213.753 541.263 269.272 541.796C274.364 541.853 279.692 541.911 284.053 542.425C296.147 543.872 292.21 547.794 281.13 549.507C270.05 551.24 255.197 551.582 241.901 552.534C228.605 553.486 215.026 555.599 215.898 558.379C217.077 562.168 241.595 563.501 260.785 563.748C340.68 564.814 421.023 564.624 500.753 563.158C534.37 562.549 572.562 561.977 597.409 566.49C604.576 567.784 610.163 569.46 618.367 570.488C681.854 578.503 787.564 573.21 856.025 573.82C928.258 574.467 1001.98 575.076 1071.52 571.154C1090.9 570.069 1112 568.203 1118.65 564.453C1125.72 560.454 1113.49 556.266 1104.08 552.477C1094.67 548.669 1089.13 543.491 1105.31 540.711C1113.89 539.245 1126.1 538.979 1137.46 538.902C1194.25 538.56 1253.99 541.397 1306.21 536.98C1334.26 534.6 1332.45 528.222 1318.04 522.91H1318.07Z" fill="#679778"/>
<path d="M178.296 57.488C173.487 57.45 169.503 63.4853 169.385 71.0056C169.291 77.2693 171.931 82.5621 175.609 84.1804C175.514 84.4279 175.444 84.6564 175.349 84.9039C173.133 91.0344 170.281 97.3362 165.542 102.496C164.835 101.944 164.104 101.372 163.373 100.82C158.187 96.9554 152.671 93.4713 146.965 90.1586C149.323 87.6074 149.842 84.2946 150.384 81.2294C151.02 77.7072 151.397 74.166 151.515 70.6058C151.61 67.8642 151.515 65.1226 151.303 62.381C151.445 62.362 151.562 62.3239 151.704 62.3048C156.301 61.1435 157.763 54.4038 155.004 47.2261C152.223 40.0485 146.258 35.1746 141.685 36.336C137.088 37.4973 135.626 44.2371 138.384 51.4147C140.553 57.0311 144.702 61.2387 148.592 62.2477C148.804 64.7799 148.899 67.3311 148.828 69.8823C148.757 73.0998 148.451 76.3174 147.956 79.5159C147.46 82.6383 147.154 86.2937 144.749 88.902C137.653 84.8658 130.345 81.039 123.131 77.098C123.178 77.0218 123.226 76.9266 123.249 76.8314C124.994 70.7771 124.829 64.6466 122.919 58.6494C122.589 57.6404 122.235 56.6503 121.835 55.6603C124.64 53.1853 125.206 47.6069 122.943 41.743C120.161 34.5654 114.196 29.6914 109.623 30.8528C105.026 32.0142 103.564 38.7539 106.322 45.9315C109.034 52.9378 114.786 57.7546 119.336 56.8978C121.599 62.9902 122.565 69.273 120.75 75.8033C116.884 73.652 113.065 71.4435 109.34 69.1398C103.446 65.4653 97.7883 61.4862 92.7198 57.0882C94.7943 54.0801 92.7905 48.3113 87.6512 43.228C81.7575 37.4212 73.9778 34.6986 70.253 37.1546C66.5281 39.6106 68.2962 46.3123 74.1899 52.1381C79.7065 57.5832 86.8968 60.3248 90.8338 58.6113C98.8492 65.5605 108.232 71.4244 117.945 76.9076C114.361 77.7453 110.589 77.8786 106.888 78.107C102.621 78.3736 98.3541 78.602 94.0871 78.6782C91.2817 78.7163 88.4527 78.6782 85.6473 78.564C83.5727 75.7272 77.7026 73.3473 70.5359 72.7762C61.2709 72.0337 53.397 74.5468 52.9019 78.4117C52.4304 82.2765 59.55 86.0081 68.7913 86.7506C78.0562 87.4931 85.9302 84.98 86.4253 81.1152C86.4253 81.0009 86.4253 80.8867 86.4253 80.7725C89.0892 80.8677 91.7768 80.8867 94.4407 80.8486C98.7313 80.7725 102.998 80.544 107.289 80.2775C111.721 80.0109 116.153 79.8205 120.349 78.564C120.467 78.5259 120.562 78.4878 120.656 78.4307C122.896 79.6682 125.135 80.8867 127.398 82.1052C132.49 84.8468 137.606 87.5883 142.628 90.4251C132.797 94.6327 122.212 97.4885 111.297 98.8783C109.104 96.0225 102.456 94.1567 94.7708 94.5185C85.4823 94.9373 78.1741 98.4214 78.4334 102.305C78.6927 106.189 86.4489 108.988 95.7373 108.55C104.837 108.131 112.004 104.78 112.051 101.011C123.249 99.5447 134.141 96.6127 144.207 92.2338C144.514 92.1005 144.726 91.9101 144.844 91.7007C148.097 93.5665 151.28 95.5085 154.391 97.5266C157.81 99.7541 161.063 102.096 164.175 104.552C164.081 104.59 163.963 104.628 163.869 104.704C157.503 108.645 150.502 111.825 143.028 114.147C141.072 114.757 139.021 115.328 136.946 115.861C133.976 113.614 127.422 112.72 120.326 113.881C111.202 115.366 104.578 119.669 105.544 123.457C106.487 127.265 114.668 129.131 123.791 127.646C132.915 126.161 139.539 121.858 138.573 118.069C138.549 117.974 138.502 117.86 138.478 117.765C140.152 117.346 141.803 116.87 143.406 116.394C151.397 113.995 158.871 110.587 165.637 106.399C165.825 106.284 165.943 106.151 166.037 106.018C170.493 109.673 174.642 113.576 178.509 117.689C179.239 118.469 179.947 119.269 180.677 120.049C180.583 120.088 180.465 120.126 180.371 120.183C176.717 122.41 172.827 124.371 168.749 126.028C165.495 124.162 159.436 123.495 152.883 124.562C143.759 126.047 137.135 130.349 138.101 134.138C139.044 137.946 147.225 139.812 156.348 138.327C165.472 136.842 172.096 132.539 171.13 128.75C171.035 128.369 170.87 128.027 170.658 127.684C174.642 126.009 178.485 124.086 182.092 121.877C182.139 121.839 182.186 121.82 182.21 121.782C188.622 129.093 194.28 136.823 199.679 144.629C200.527 145.866 203.026 144.971 202.178 143.734C196.543 135.566 190.579 127.456 183.836 119.84C186.312 117.403 188.669 114.795 190.673 112.053C190.862 112.091 191.05 112.148 191.262 112.167C196.025 112.72 200.952 107.122 202.248 99.697C203.569 92.2528 200.763 85.7797 196.001 85.2466C191.239 84.6944 186.312 90.2919 185.015 97.717C184.001 103.467 185.439 108.607 188.339 110.93C186.548 113.424 184.426 115.766 182.186 118.012C177.683 113.081 172.827 108.379 167.452 104.019C167.57 103.943 167.688 103.867 167.782 103.752C172.874 98.212 175.986 91.3771 178.226 84.7706C178.226 84.7325 178.249 84.6944 178.273 84.6564C182.917 84.4089 186.713 78.4688 186.807 71.1388C186.925 63.6185 183.106 57.5071 178.296 57.45V57.488Z" fill="#3F3F3F"/>
<path d="M431.301 308.895C432.504 304.916 438.562 302.917 443.466 303.907C448.369 304.897 452.165 308.076 455.088 311.427C459.78 316.872 462.632 322.622 465.273 328.753C465.956 322.622 466.923 316.511 468.102 310.456C468.903 306.439 469.799 302.441 470.789 298.462C459.709 296.234 449.501 291.284 441.91 284.411C439.034 281.803 436.37 278.433 437.407 275.044C438.609 271.084 444.668 269.085 449.572 270.075C454.475 271.065 458.271 274.206 461.147 277.557C466.003 283.174 468.88 289.133 471.591 295.473C474.868 283.231 479.205 271.16 484.816 259.489C474.514 255.853 465.579 249.723 459.497 242.088C457.163 239.156 455.206 235.482 456.88 232.264C458.837 228.513 465.225 227.314 469.87 228.913C474.514 230.512 477.649 234.111 479.842 237.785C483.402 243.744 485.075 249.761 486.466 256.12C492.619 243.897 500.399 231.674 511.715 222.097C511.951 221.907 512.186 221.717 512.446 221.507C502.757 216.709 494.859 209.551 490.168 201.193C488.376 198.013 487.079 194.148 489.319 191.159C491.936 187.656 498.442 187.218 502.757 189.332C507.071 191.445 509.523 195.367 511.055 199.251C513.766 206.105 514.214 212.787 514.45 219.87C527.887 209.094 543.871 200.279 556.837 189.16C546.912 184.362 538.85 177.109 534.04 168.598C532.249 165.419 530.952 161.554 533.192 158.565C535.808 155.062 542.315 154.624 546.629 156.737C550.943 158.851 553.395 162.772 554.928 166.656C557.709 173.701 558.11 180.555 558.322 187.847C561.505 185.029 564.475 182.04 567.163 178.841C572.609 172.349 576.286 164.981 578.385 157.251C566.974 154.757 556.554 149.35 549.034 141.963C546.299 139.26 543.8 135.795 545.003 132.444C546.417 128.522 552.57 126.732 557.403 127.893C562.259 129.036 565.866 132.31 568.601 135.756C573.599 142.058 576.169 148.703 578.762 155.804C581.826 143.296 580.813 129.95 576.499 117.974C566.55 114.719 557.757 109.159 551.486 102.134C548.963 99.2972 546.747 95.7179 548.232 92.4242C549.953 88.5784 556.224 87.1124 560.986 88.5213C565.725 89.9111 569.096 93.3761 571.524 96.9364C575.414 102.629 577.489 108.493 579.28 114.662C579.493 114.833 579.658 115.042 579.752 115.328C583.712 125.456 585.056 136.194 584.113 146.761C583.901 149.084 583.595 151.425 583.17 153.748C588.475 146.494 596.254 140.402 605.448 136.404C609.268 134.747 613.959 133.453 617.802 135.071C622.281 136.937 623.271 142.173 620.937 145.79C618.603 149.407 613.935 151.635 609.22 153.139C600.451 155.919 591.728 156.661 582.416 157.327C581.261 162.182 579.563 166.923 577.041 171.416C573.222 178.213 567.941 184.134 561.882 189.541C570.888 184.762 581.567 182.059 592.341 181.906C596.655 181.849 601.559 182.421 604.081 185.257C607.004 188.57 604.93 193.596 600.804 195.938C596.679 198.299 591.256 198.565 586.235 198.147C576.593 197.366 568.247 194.681 559.313 191.769C549.01 200.469 536.822 207.932 525.766 215.815C522.277 218.29 518.905 220.841 515.723 223.506C525.153 217.928 536.751 214.748 548.445 214.558C552.759 214.482 557.662 215.053 560.185 217.909C563.132 221.222 561.057 226.248 556.932 228.609C552.806 230.969 547.384 231.236 542.362 230.836C532.508 230.036 523.997 227.276 514.827 224.287C511.479 227.162 508.344 230.227 505.586 233.54C500.493 239.613 496.297 246.162 492.596 252.845C491.606 254.635 490.686 256.424 489.767 258.233C497.688 252.54 507.589 248.637 518.033 247.171C522.3 246.562 527.251 246.524 530.268 249.018C533.805 251.931 532.697 257.148 529.066 259.984C525.436 262.821 520.131 263.754 515.086 263.983C505.774 264.382 497.287 262.916 488.282 261.222C482.812 272.626 478.64 284.468 475.481 296.425C481.681 289.019 490.592 283.098 500.8 279.652C504.784 278.3 509.617 277.367 513.247 279.271C517.491 281.479 517.844 286.753 515.086 290.18C512.328 293.607 507.424 295.454 502.544 296.577C493.327 298.709 484.415 298.728 474.891 298.671C474.49 300.251 474.09 301.851 473.712 303.431C471.661 312.17 470.105 321.004 469.162 329.876C475.339 322.736 484.038 317.044 493.987 313.674C497.971 312.322 502.804 311.389 506.434 313.293C510.678 315.502 511.031 320.775 508.273 324.202C505.515 327.629 500.611 329.476 495.731 330.599C486.773 332.655 478.097 332.751 468.856 332.713C467.937 342.841 467.819 353.027 468.738 363.137C468.927 365.25 464.872 365.345 464.683 363.232C463.764 353.008 463.905 342.746 464.848 332.503C453.721 330.257 443.466 325.249 435.804 318.319C432.904 315.692 430.24 312.303 431.278 308.895H431.301Z" fill="#3F3F3F"/>
<path d="M128.483 535.38C133.646 533.914 141.284 531.078 151.586 523.196C157.881 518.341 166.65 511.658 173.228 500.52C173.511 500.044 174.029 499.188 174.595 498.064C174.619 498.007 174.666 497.95 174.689 497.893C174.76 497.798 174.807 497.684 174.878 497.588C175.09 497.208 175.279 496.808 175.538 496.389C179.805 487.879 187.09 469.392 176.575 455.36C175.986 454.542 168.253 444.394 160.592 445.574C151.02 447.136 148.309 465.203 143.901 464.804C141.685 464.594 141.779 460.082 139.587 454.922C134.848 443.29 120.137 431.219 106.935 433.161C100.664 434.037 94.535 438.13 92.2011 443.499C88.2877 452.2 100.122 461.776 99.0378 462.481C97.4111 463.433 82.0168 440.301 63.5106 441.253C57.0275 441.614 49.625 444.965 48.1162 449.401C45.9237 455.893 57.5697 461.967 55.4008 464.67C53.1141 467.545 40.643 460.349 23.952 462.995C19.7321 463.699 9.78354 465.299 5.7994 471.734C2.28675 477.293 4.03128 484.699 9.19417 489.021C13.9799 493 20.4629 493.343 22.231 493.381C33.7827 493.857 37.7904 486.717 56.0138 482.529C62.3554 481.044 69.64 480.13 70.583 481.767C71.1959 483.005 67.6597 484.566 65.2079 488.945C65.1372 489.04 65.0665 489.154 64.9722 489.364C64.2414 490.715 61.6953 495.513 63.9113 500.044C63.9585 500.254 66.5046 505.128 71.3845 505.623C73.9071 505.908 76.0052 504.88 76.9246 504.461C86.1895 500.121 99.2736 497.017 100.193 498.217C101.301 499.568 86.2838 506.441 87.8162 511.696C89.0892 516.056 101.042 516.856 102.574 516.951C115.422 517.712 126.149 512.267 126.526 512.991C126.833 513.6 117.096 516.132 111.768 523.367C109.269 526.718 106.346 532.867 109.411 535.875C113.136 539.626 123.862 536.656 128.388 535.399L128.483 535.38Z" fill="#3F3F3F"/>
<path d="M112.381 507.907C111.886 506.042 113.725 504.499 115.54 503.605C117.827 502.462 120.444 501.834 123.061 501.434C128.577 500.596 134.447 500.806 139.681 498.978C142.321 498.045 144.702 496.617 146.187 494.599C137.818 492.296 129.779 489.192 121.858 486.032C118.888 484.851 115.941 483.652 112.947 482.491C104.106 483.252 98.4484 489.954 90.0793 491.82C87.8633 492.315 85.5294 492.41 83.2898 491.934C82.9126 491.858 83.1012 491.382 83.4784 491.477C87.769 492.372 92.1068 491.001 95.7609 489.249C99.3914 487.517 102.598 485.251 106.37 483.671C108.138 482.928 110.024 482.376 111.98 482.129C103.918 478.987 95.6901 476.094 87.0146 474.266C76.5002 472.057 65.1843 471.41 54.67 473.942C53.3498 474.266 52.0532 474.628 50.7801 475.046C50.4265 475.161 50.1436 474.723 50.4972 474.609C60.3515 471.41 71.2431 471.239 81.5924 472.8C83.3605 473.066 85.1051 473.39 86.826 473.752C86.7789 473.714 86.7553 473.657 86.7553 473.599C86.8496 469.259 81.9932 466.536 77.7969 464.67C75.5101 463.642 73.129 462.69 71.0545 461.377C69.3335 460.291 67.6833 458.902 67.3296 457.093C67.2589 456.788 67.8719 456.674 67.919 456.998C68.3434 459.111 70.6537 460.634 72.7283 461.757C74.9915 462.995 77.4668 463.909 79.8007 465.032C83.6434 466.879 87.439 469.716 87.3447 473.619C87.3447 473.752 87.2268 473.809 87.1089 473.828C96.8453 475.865 106.063 479.254 115.092 482.833C120.09 484.813 125.064 486.85 130.109 488.754C132.325 483.709 131.901 477.883 129.166 473.028C127.681 470.382 125.442 468.25 122.754 466.308C119.854 464.213 116.648 462.309 114.409 459.701C112.193 457.131 111.014 453.742 112.664 450.753C112.829 450.467 113.395 450.62 113.23 450.905C111.58 453.913 112.9 457.283 115.234 459.796C117.638 462.386 120.915 464.27 123.815 466.441C126.337 468.307 128.388 470.439 129.779 472.971C131.076 475.332 131.807 477.883 132.019 480.453C132.255 483.328 131.83 486.26 130.628 488.964C136.781 491.286 143.028 493.419 149.535 494.999C154.038 496.103 158.706 496.941 163.421 497.379C158.234 490.658 161.983 482.319 160.403 474.97C159.932 472.819 159.012 470.744 157.362 469.011C157.126 468.764 157.574 468.44 157.81 468.687C163.869 475.104 160.285 483.671 161.44 491.02C161.794 493.248 162.572 495.399 164.057 497.284C164.104 497.341 164.104 497.398 164.081 497.436C167.64 497.741 171.224 497.817 174.784 497.588C174.713 497.703 174.666 497.798 174.595 497.893C174.595 497.95 174.524 498.007 174.501 498.064C168.418 498.445 162.242 497.95 156.207 496.903C152.977 496.332 149.818 495.608 146.706 494.771C144.278 498.217 139.516 499.892 134.871 500.635C129.496 501.491 123.862 501.32 118.676 502.9C116.295 503.643 112.193 505.261 112.9 507.812C112.994 508.117 112.381 508.231 112.31 507.907H112.381Z" fill="#B6E4BD"/>
<path d="M1184.71 521.653C1187.37 523.31 1191.75 525.575 1200.24 527.251C1205.45 528.26 1212.69 529.707 1222.02 528.736C1222.43 528.698 1223.13 528.622 1224.05 528.488C1224.1 528.488 1224.15 528.488 1224.19 528.488C1224.29 528.488 1224.36 528.488 1224.45 528.469C1224.76 528.431 1225.09 528.374 1225.44 528.355C1232.33 527.289 1246.64 524.166 1252.13 515.085C1252.46 514.571 1256.4 507.926 1253.07 505.109C1248.88 501.625 1236.38 506.518 1235.16 504.557C1234.54 503.548 1237.47 502.082 1240.06 499.454C1245.93 493.571 1248.78 483.385 1243.12 478.512C1240.46 476.189 1235.79 474.989 1231.57 475.808C1224.69 477.084 1222.5 485.232 1221.67 485.004C1220.52 484.642 1230.23 470.458 1223.42 463.033C1221.01 460.444 1216.39 458.464 1213.04 459.301C1208.14 460.558 1208.14 467.45 1205.69 467.45C1203.07 467.45 1203.52 459.834 1196.26 453.723C1194.39 452.181 1190.06 448.564 1184.59 449.04C1179.85 449.42 1175.68 452.638 1174.62 456.236C1173.67 459.568 1175.61 462.405 1176.17 463.166C1179.73 468.154 1185.65 467.45 1194.42 473.676C1197.48 475.846 1200.5 478.569 1199.77 479.521C1199.18 480.187 1196.99 479.235 1193.36 479.673C1193.29 479.673 1193.17 479.673 1193 479.711C1191.9 479.863 1187.96 480.396 1185.79 482.833C1185.67 482.929 1183.41 485.613 1184.71 487.821C1185.37 488.964 1186.73 489.497 1187.3 489.763C1193.17 492.181 1199.56 496.636 1199.09 497.417C1198.59 498.331 1189.16 494.352 1186.28 496.751C1183.9 498.75 1187.39 504.004 1187.84 504.69C1191.64 510.325 1198.73 512.991 1198.4 513.391C1198.12 513.714 1193.24 510.497 1186.8 510.687C1183.81 510.763 1178.91 511.601 1177.99 513.886C1176.83 516.684 1182.32 520.206 1184.63 521.672L1184.71 521.653Z" fill="#3F3F3F"/>
<path d="M1196.96 505.737C1198 504.899 1199.6 505.166 1200.78 505.623C1202.27 506.194 1203.57 507.089 1204.7 508.041C1207.08 510.059 1208.92 512.591 1211.84 514.171C1213.33 514.971 1215.02 515.485 1216.81 515.428C1215.49 511.163 1214.79 506.746 1214.17 502.386C1213.94 500.749 1213.73 499.111 1213.47 497.474C1210.02 494.028 1203.82 493.895 1199.84 491.02C1198.78 490.258 1197.95 489.307 1197.51 488.221C1197.44 488.031 1197.79 487.955 1197.86 488.145C1198.71 490.239 1201.04 491.591 1203.4 492.543C1205.73 493.476 1208.26 494.066 1210.52 495.113C1211.58 495.608 1212.57 496.218 1213.4 496.941C1212.71 492.524 1211.84 488.107 1210.1 483.861C1208 478.721 1204.63 473.771 1199.49 470.211C1198.85 469.773 1198.17 469.354 1197.48 468.954C1197.29 468.84 1197.48 468.573 1197.67 468.688C1203.02 471.753 1206.77 476.246 1209.22 481.101C1209.65 481.919 1210.02 482.757 1210.35 483.614C1210.35 483.576 1210.38 483.557 1210.43 483.519C1213.25 482.11 1213.37 479.159 1213.16 476.779C1213.04 475.484 1212.88 474.171 1213.02 472.857C1213.14 471.772 1213.47 470.61 1214.53 469.868C1214.72 469.735 1214.98 469.944 1214.79 470.077C1213.56 470.953 1213.37 472.438 1213.35 473.676C1213.33 475.027 1213.56 476.379 1213.61 477.731C1213.7 479.958 1213.16 482.491 1210.61 483.766C1210.54 483.804 1210.45 483.766 1210.4 483.747C1212.33 488.507 1213.25 493.495 1213.99 498.464C1214.39 501.225 1214.74 503.985 1215.21 506.727C1219.2 505.965 1222.78 503.852 1224.99 501.073C1226.2 499.568 1226.83 497.912 1227.16 496.141C1227.54 494.219 1227.68 492.239 1228.63 490.43C1229.54 488.64 1231.31 487.022 1233.79 486.717C1234.02 486.679 1234.12 486.984 1233.88 487.003C1231.38 487.307 1229.69 489.002 1228.84 490.811C1227.99 492.676 1227.87 494.675 1227.45 496.617C1227.09 498.293 1226.41 499.873 1225.25 501.301C1224.17 502.634 1222.78 503.795 1221.2 504.747C1219.43 505.813 1217.4 506.613 1215.26 507.013C1215.82 510.363 1216.55 513.695 1217.71 516.951C1218.51 519.216 1219.53 521.444 1220.82 523.557C1223.39 519.14 1229.99 517.922 1234.19 514.799C1235.41 513.886 1236.43 512.8 1236.99 511.525C1237.06 511.334 1237.44 511.43 1237.35 511.601C1235.25 516.284 1228.55 517.655 1224.22 520.587C1222.9 521.463 1221.79 522.51 1221.08 523.786C1221.08 523.824 1221.03 523.843 1220.99 523.843C1221.98 525.442 1223.13 526.965 1224.48 528.374C1224.38 528.374 1224.29 528.393 1224.22 528.393C1224.17 528.393 1224.12 528.393 1224.08 528.393C1221.81 525.975 1220.04 523.215 1218.7 520.359C1217.99 518.817 1217.4 517.255 1216.88 515.675C1213.87 515.808 1211.18 514.381 1209.18 512.686C1206.84 510.725 1205.05 508.307 1202.32 506.67C1201.04 505.908 1198.64 504.747 1197.22 505.889C1197.06 506.023 1196.8 505.813 1196.96 505.68V505.737Z" fill="#B6E4BD"/>
<path d="M506.128 1H409.778C406.965 1 404.685 2.84117 404.685 5.11238V56.2696C404.685 58.5408 406.965 60.3819 409.778 60.3819H506.128C508.94 60.3819 511.22 58.5408 511.22 56.2696V5.11238C511.22 2.84117 508.94 1 506.128 1Z" fill="#B6E4BD"/>
<path d="M506.576 1.01904C506.741 1.41886 506.812 1.83771 506.812 2.2756V53.4328C506.812 55.6984 504.525 57.5452 501.719 57.5452H405.369C405.204 57.5452 405.063 57.5452 404.898 57.5261C405.558 59.1825 407.467 60.3819 409.731 60.3819H506.081C508.886 60.3819 511.173 58.5352 511.173 56.2696V5.11238C511.173 2.961 509.146 1.20943 506.552 1.01904H506.576Z" fill="#904D08"/>
<path d="M415.105 46.4265L434.814 24.551C435.875 23.3896 438.044 23.4277 439.01 24.6271L455.795 45.3604C456.833 46.655 459.214 46.5979 460.157 45.2461L463.929 39.8391C464.895 38.4493 467.394 38.4493 468.384 39.8391L471.591 44.4275C472.651 45.9315 475.41 45.7792 476.188 44.1609L485.005 26.0931C485.877 24.3035 489.036 24.3606 489.79 26.1883L498.513 46.9596C499.079 48.2923 497.853 49.6822 496.085 49.6822H417.133C415.035 49.6822 413.832 47.7783 415.058 46.4075L415.105 46.4265Z" fill="#3F3F3F"/>
<path d="M453.556 17.2782C453.556 13.9464 456.88 11.2619 461.006 11.2619C465.131 11.2619 468.455 13.9464 468.455 17.2782C468.455 20.6099 465.108 23.2944 461.006 23.2944C456.904 23.2944 453.556 20.6099 453.556 17.2782Z" fill="#3F3F3F"/>
<path d="M437.784 14.6889C437.643 14.6889 437.501 14.6889 437.384 14.727C437.384 14.6508 437.384 14.5556 437.384 14.4795C437.384 13.1467 436.063 12.0806 434.413 12.0806C433.022 12.0806 431.843 12.8612 431.537 13.9083C431.231 13.6798 430.806 13.5275 430.335 13.5275C429.698 13.5275 429.132 13.8131 428.826 14.2319C428.543 14.1368 428.213 14.0796 427.859 14.0796C426.516 14.0796 425.431 14.9554 425.431 16.0406C425.431 17.1258 426.516 18.0016 427.859 18.0016C428.425 18.0016 428.944 17.8493 429.368 17.5828C430.17 18.1159 431.49 18.4776 432.999 18.4776C434.413 18.4776 435.663 18.173 436.464 17.678C436.818 17.9064 437.289 18.0587 437.784 18.0587C438.939 18.0587 439.859 17.3162 439.859 16.3833C439.859 15.4504 438.939 14.7079 437.784 14.7079V14.6889Z" fill="#3F3F3F"/>
<path d="M489.531 14.6889C489.39 14.6889 489.248 14.6889 489.13 14.727C489.13 14.6508 489.13 14.5556 489.13 14.4795C489.13 13.1467 487.81 12.0806 486.16 12.0806C484.769 12.0806 483.59 12.8612 483.284 13.9083C482.977 13.6798 482.553 13.5275 482.081 13.5275C481.445 13.5275 480.879 13.8131 480.573 14.2319C480.29 14.1368 479.96 14.0796 479.606 14.0796C478.262 14.0796 477.178 14.9554 477.178 16.0406C477.178 17.1258 478.262 18.0016 479.606 18.0016C480.172 18.0016 480.691 17.8493 481.115 17.5828C481.916 18.1159 483.237 18.4776 484.745 18.4776C486.16 18.4776 487.409 18.173 488.211 17.678C488.564 17.9064 489.036 18.0587 489.531 18.0587C490.686 18.0587 491.606 17.3162 491.606 16.3833C491.606 15.4504 490.686 14.7079 489.531 14.7079V14.6889Z" fill="#3F3F3F"/>
<path d="M286.67 52.2334C286.128 49.8916 288.061 47.626 290.96 47.2072C293.86 46.7693 296.665 48.3305 297.184 50.6722C297.726 53.014 295.793 55.2796 292.894 55.6985C289.994 56.1364 287.188 54.5752 286.67 52.2334Z" fill="#1C5939"/>
<path d="M303.101 45.3794C302.536 45.4556 301.923 45.3033 301.522 44.9225C301.357 44.7702 297.208 41.0386 289.782 42.1428C282.285 43.2661 279.715 47.8164 279.621 48.0068C279.244 48.6922 278.254 48.9968 277.428 48.7112C276.58 48.4066 276.203 47.626 276.556 46.9406C276.698 46.6931 279.857 40.8863 289.192 39.4964C298.575 38.0876 303.856 42.9615 304.092 43.1709C304.681 43.7421 304.61 44.5988 303.903 45.0748C303.667 45.2271 303.408 45.3413 303.125 45.3794H303.101Z" fill="#1C5939"/>
<path d="M307.934 38.297C307.368 38.3732 306.756 38.2209 306.355 37.8401C306.095 37.5926 299.565 31.6715 287.872 33.4421C276.085 35.2127 272.101 42.3713 271.936 42.6759C271.558 43.3613 270.592 43.6659 269.743 43.3804C268.894 43.0757 268.517 42.2952 268.871 41.6098C269.059 41.248 273.68 32.8329 287.259 30.7957C300.933 28.7586 308.594 35.8029 308.901 36.1076C309.49 36.6787 309.419 37.5164 308.712 38.0114C308.476 38.1637 308.217 38.278 307.934 38.316V38.297Z" fill="#1C5939"/>
<path d="M311.188 31.6334C310.622 31.7096 310.009 31.5573 309.608 31.1765C309.278 30.8528 301.003 23.3325 286.151 25.5601C271.205 27.7876 266.16 36.8881 265.971 37.2689C265.594 37.9543 264.627 38.2589 263.779 37.9733C262.93 37.6878 262.529 36.8881 262.906 36.2027C263.142 35.7649 268.8 25.4078 285.562 22.9137C302.394 20.4006 311.777 29.0442 312.178 29.4249C312.767 29.9961 312.696 30.8528 311.989 31.3288C311.753 31.4811 311.494 31.5954 311.211 31.6334H311.188Z" fill="#1C5939"/>
<path d="M315.785 25.065C315.219 25.1412 314.606 24.9889 314.205 24.6081C313.781 24.2083 303.266 14.6128 284.336 17.4495C265.358 20.2863 258.734 32.2236 258.686 32.3379C258.309 33.0232 257.343 33.3279 256.494 33.0423C255.645 32.7567 255.245 31.9571 255.622 31.2717C255.905 30.7196 262.93 17.9065 283.746 14.7841C304.634 11.6617 316.28 22.3806 316.751 22.8375C317.341 23.4087 317.27 24.2464 316.563 24.7414C316.327 24.8937 316.068 25.0079 315.785 25.046V25.065Z" fill="#1C5939"/>
<path d="M98.5427 281.955H95.1479V277.519H99.6507L101.16 271.579H95.1715V267.124H102.291L104.271 259.261H109.859L107.878 267.124H113.395L115.328 259.261H121.127L119.124 267.124H122.565V271.579H117.992L116.483 277.519H122.542V281.955H115.352L113.371 289.818H107.808L109.741 281.955H104.201L102.22 289.818H96.586L98.5663 281.955H98.5427ZM106.747 271.579L105.285 277.519H110.825L112.263 271.579H106.747Z" fill="#1C5939"/>
<path d="M461.571 110.53V507.032C461.571 515.123 453.438 521.672 443.419 521.672H185.699C175.68 521.672 167.57 515.123 167.57 507.032V110.53C167.57 102.439 175.68 95.8702 185.699 95.8702H443.419C453.438 95.8702 461.571 102.439 461.571 110.53Z" fill="#B6E4BD"/>
<path d="M210.452 159.955C220.764 159.955 229.124 153.204 229.124 144.876C229.124 136.548 220.764 129.797 210.452 129.797C200.141 129.797 191.781 136.548 191.781 144.876C191.781 153.204 200.141 159.955 210.452 159.955Z" fill="#3F3F3F"/>
<path d="M226.059 149.921C223.584 154.909 217.525 158.451 210.452 158.451C203.38 158.451 197.769 155.176 195.152 150.454L199.914 142.896L209.769 155.062L213.541 149.674L217.313 155.062L223.536 142.306L226.083 149.921H226.059Z" fill="#3F3F3F"/>
<path d="M210.193 141.392C210.193 139.85 211.749 138.574 213.682 138.574C215.615 138.574 217.171 139.831 217.171 141.392C217.171 142.953 215.615 144.21 213.682 144.21C211.749 144.21 210.193 142.953 210.193 141.392Z" fill="#3F3F3F"/>
<path d="M263.095 159.955C273.407 159.955 281.766 153.204 281.766 144.876C281.766 136.548 273.407 129.797 263.095 129.797C252.783 129.797 244.424 136.548 244.424 144.876C244.424 153.204 252.783 159.955 263.095 159.955Z" fill="#1C5939"/>
<path d="M278.702 149.921C276.226 154.909 270.167 158.451 263.095 158.451C256.023 158.451 250.412 155.176 247.795 150.454L252.557 142.896L262.411 155.062L266.183 149.674L269.955 155.062L276.179 142.306L278.725 149.921H278.702Z" fill="#3F3F3F"/>
<path d="M262.836 141.392C262.836 139.85 264.392 138.574 266.325 138.574C268.258 138.574 269.814 139.831 269.814 141.392C269.814 142.953 268.258 144.21 266.325 144.21C264.392 144.21 262.836 142.953 262.836 141.392Z" fill="#3F3F3F"/>
<path d="M317.058 159.955C327.37 159.955 335.729 153.204 335.729 144.876C335.729 136.548 327.37 129.797 317.058 129.797C306.746 129.797 298.386 136.548 298.386 144.876C298.386 153.204 306.746 159.955 317.058 159.955Z" fill="#FAC6D3"/>
<path d="M332.641 149.921C330.165 154.909 324.107 158.451 317.034 158.451C309.962 158.451 304.351 155.176 301.734 150.454L306.496 142.896L316.35 155.062L320.122 149.674L323.894 155.062L330.118 142.306L332.664 149.921H332.641Z" fill="#3F3F3F"/>
<path d="M316.775 141.392C316.775 139.85 318.331 138.574 320.264 138.574C322.197 138.574 323.753 139.831 323.753 141.392C323.753 142.953 322.197 144.21 320.264 144.21C318.331 144.21 316.775 142.953 316.775 141.392Z" fill="#3F3F3F"/>
<path d="M370.997 159.955C381.309 159.955 389.668 153.204 389.668 144.876C389.668 136.548 381.309 129.797 370.997 129.797C360.685 129.797 352.326 136.548 352.326 144.876C352.326 153.204 360.685 159.955 370.997 159.955Z" fill="#1C5939"/>
<path d="M386.58 149.921C384.105 154.909 378.046 158.451 370.973 158.451C363.901 158.451 358.29 155.176 355.673 150.454L360.435 142.896L370.29 155.062L374.062 149.674L377.834 155.062L384.057 142.306L386.603 149.921H386.58Z" fill="#3F3F3F"/>
<path d="M370.714 141.392C370.714 139.85 372.27 138.574 374.203 138.574C376.136 138.574 377.692 139.831 377.692 141.392C377.692 142.953 376.136 144.21 374.203 144.21C372.27 144.21 370.714 142.953 370.714 141.392Z" fill="#3F3F3F"/>
<path d="M422.296 159.955C432.608 159.955 440.967 153.204 440.967 144.876C440.967 136.548 432.608 129.797 422.296 129.797C411.984 129.797 403.624 136.548 403.624 144.876C403.624 153.204 411.984 159.955 422.296 159.955Z" fill="#3F3F3F"/>
<path d="M437.902 149.921C435.427 154.909 429.368 158.451 422.296 158.451C415.223 158.451 409.612 155.176 406.996 150.454L411.758 142.896L421.612 155.062L425.384 149.674L429.156 155.062L435.38 142.306L437.926 149.921H437.902Z" fill="#3F3F3F"/>
<path d="M422.036 141.392C422.036 139.85 423.592 138.574 425.525 138.574C427.459 138.574 429.015 139.831 429.015 141.392C429.015 142.953 427.459 144.21 425.525 144.21C423.592 144.21 422.036 142.953 422.036 141.392Z" fill="#3F3F3F"/>
<path d="M207.694 390.686H192.371C191.355 390.686 190.532 391.351 190.532 392.171V404.546C190.532 405.366 191.355 406.031 192.371 406.031H207.694C208.71 406.031 209.533 405.366 209.533 404.546V392.171C209.533 391.351 208.71 390.686 207.694 390.686Z" fill="#1C5939"/>
<path d="M206.704 396.454C206.02 395.445 204.276 394.722 202.602 395.103C200.81 395.502 200.127 396.987 200.032 397.159C200.032 397.216 200.032 397.292 200.032 397.349V397.159C199.962 396.987 199.254 395.502 197.463 395.103C195.789 394.741 194.044 395.445 193.361 396.454C192.111 398.301 194.752 400.605 195.034 400.871C196.826 402.433 199.184 402.68 200.032 402.737H200.079C200.079 402.737 200.127 402.737 200.15 402.737C200.999 402.661 203.262 402.375 204.983 400.871C205.29 400.605 207.93 398.32 206.657 396.454H206.704Z" fill="#3F3F3F"/>
<path d="M244.117 391.2H229.029C227.949 391.2 227.073 391.907 227.073 392.78V404.965C227.073 405.837 227.949 406.545 229.029 406.545H244.117C245.198 406.545 246.074 405.837 246.074 404.965V392.78C246.074 391.907 245.198 391.2 244.117 391.2Z" fill="#1C5939"/>
<path d="M235.63 402.433H233.98C232.353 402.433 231.033 401.366 231.033 400.053C231.033 398.739 232.353 397.673 233.98 397.673H235.63V402.452V402.433Z" fill="#3F3F3F"/>
<path d="M235.63 397.673C235.63 397.673 236.738 396.816 237.021 396.017C237.304 395.236 237.563 394.094 238.318 394.265C239.072 394.417 239.402 396.626 238.483 397.673C238.483 397.673 241.406 397.026 242.208 397.73C242.962 398.396 243.009 402.071 242.302 402.661C241.359 403.442 235.63 402.452 235.63 402.452V397.673Z" fill="#3F3F3F"/>
<path d="M235.631 397.387H234.852V402.433H235.631V397.387Z" fill="#BDC4FF"/>
<path d="M306.072 423.794H192.889C191.593 423.794 190.532 422.937 190.532 421.89C190.532 420.843 191.593 419.986 192.889 419.986H306.072C307.368 419.986 308.429 420.843 308.429 421.89C308.429 422.937 307.368 423.794 306.072 423.794Z" fill="#1C5939"/>
<path d="M388.867 436.721H192.889C191.593 436.721 190.532 435.865 190.532 434.818C190.532 433.77 191.593 432.914 192.889 432.914H388.867C390.163 432.914 391.224 433.77 391.224 434.818C391.224 435.865 390.163 436.721 388.867 436.721Z" fill="#1C5939"/>
<path d="M356.239 423.794H321.56C320.264 423.794 319.203 422.937 319.203 421.89C319.203 420.843 320.264 419.986 321.56 419.986H356.239C357.536 419.986 358.597 420.843 358.597 421.89C358.597 422.937 357.536 423.794 356.239 423.794Z" fill="#1C5939"/>
<path d="M397.448 501.948H199.325C194.469 501.948 190.532 498.769 190.532 494.847C190.532 490.925 194.469 487.745 199.325 487.745H397.448C402.304 487.745 406.241 490.925 406.241 494.847C406.241 498.769 402.304 501.948 397.448 501.948Z" fill="#1C5939"/>
<path d="M445.564 499.149L440.071 496.865L438.68 496.084C438.68 496.084 438.539 496.027 438.468 495.989C439.081 495.056 439.387 493.971 439.293 492.829C439.034 489.878 436.063 487.517 432.433 487.345C428.048 487.136 424.417 490.087 424.7 493.628C424.936 496.522 427.789 498.883 431.372 499.131C433.376 499.264 435.215 498.75 436.629 497.817L443.324 502.12C444.338 502.615 445.682 502.367 446.295 501.548C446.908 500.73 446.601 499.645 445.588 499.149H445.564ZM432.009 497.474C429.132 497.474 426.775 495.57 426.775 493.247C426.775 490.925 429.132 489.021 432.009 489.021C434.885 489.021 437.242 490.925 437.242 493.247C437.242 495.57 434.885 497.474 432.009 497.474Z" fill="#1C5939"/>
<path d="M198.17 447.25C194.233 447.25 191.05 449.82 191.05 453C191.05 454.104 191.428 455.132 192.111 456.008L190.532 459.035L195.011 458.14C195.954 458.521 197.038 458.73 198.17 458.73C202.107 458.73 205.29 456.16 205.29 452.981C205.29 449.801 202.107 447.231 198.17 447.231V447.25Z" fill="#1C5939"/>
<path d="M351.595 450.068H218.138C217.336 450.068 216.676 449.535 216.676 448.887C216.676 448.24 217.336 447.707 218.138 447.707H351.595C352.396 447.707 353.056 448.24 353.056 448.887C353.056 449.535 352.396 450.068 351.595 450.068Z" fill="#1C5939"/>
<path d="M272.148 456.826H218.138C217.336 456.826 216.676 456.293 216.676 455.646C216.676 454.999 217.336 454.466 218.138 454.466H272.148C272.949 454.466 273.609 454.999 273.609 455.646C273.609 456.293 272.949 456.826 272.148 456.826Z" fill="#1C5939"/>
<path d="M297.467 456.826H281.436C280.635 456.826 279.975 456.293 279.975 455.646C279.975 454.999 280.635 454.466 281.436 454.466H297.467C298.269 454.466 298.929 454.999 298.929 455.646C298.929 456.293 298.269 456.826 297.467 456.826Z" fill="#1C5939"/>
<path d="M198.17 466.003C194.233 466.003 191.05 468.573 191.05 471.753C191.05 472.857 191.428 473.885 192.111 474.761L190.532 477.788L195.011 476.893C195.954 477.274 197.038 477.483 198.17 477.483C202.107 477.483 205.29 474.913 205.29 471.734C205.29 468.554 202.107 465.984 198.17 465.984V466.003Z" fill="#1C5939"/>
<path d="M351.595 468.84H218.138C217.336 468.84 216.676 468.307 216.676 467.659C216.676 467.012 217.336 466.479 218.138 466.479H351.595C352.396 466.479 353.056 467.012 353.056 467.659C353.056 468.307 352.396 468.84 351.595 468.84Z" fill="#1C5939"/>
<path d="M272.148 475.599H218.138C217.336 475.599 216.676 475.066 216.676 474.418C216.676 473.771 217.336 473.238 218.138 473.238H272.148C272.949 473.238 273.609 473.771 273.609 474.418C273.609 475.066 272.949 475.599 272.148 475.599Z" fill="#1C5939"/>
<path d="M297.467 475.599H281.436C280.635 475.599 279.975 475.066 279.975 474.418C279.975 473.771 280.635 473.238 281.436 473.238H297.467C298.269 473.238 298.929 473.771 298.929 474.418C298.929 475.066 298.269 475.599 297.467 475.599Z" fill="#1C5939"/>
<path d="M225.988 165.8H195.977C195.506 165.8 195.152 165.495 195.152 165.114C195.152 164.733 195.53 164.448 195.977 164.448H225.988C226.46 164.448 226.837 164.752 226.837 165.114C226.837 165.495 226.46 165.8 225.988 165.8Z" fill="#3F3F3F"/>
<path d="M277.405 165.8H247.394C246.923 165.8 246.569 165.495 246.569 165.114C246.569 164.733 246.946 164.448 247.394 164.448H277.405C277.876 164.448 278.254 164.752 278.254 165.114C278.254 165.495 277.876 165.8 277.405 165.8Z" fill="#1C5939"/>
<path d="M330.519 165.8H300.508C300.037 165.8 299.66 165.495 299.66 165.114C299.66 164.733 300.037 164.448 300.508 164.448H330.519C330.99 164.448 331.344 164.752 331.344 165.114C331.344 165.495 330.967 165.8 330.519 165.8Z" fill="#FAC6D3"/>
<path d="M386.297 165.8H356.286C355.815 165.8 355.461 165.495 355.461 165.114C355.461 164.733 355.838 164.448 356.286 164.448H386.297C386.768 164.448 387.146 164.752 387.146 165.114C387.146 165.495 386.768 165.8 386.297 165.8Z" fill="#1C5939"/>
<path d="M437.832 165.8H407.821C407.349 165.8 406.996 165.495 406.996 165.114C406.996 164.733 407.373 164.448 407.821 164.448H437.832C438.303 164.448 438.657 164.752 438.657 165.114C438.657 165.495 438.279 165.8 437.832 165.8Z" fill="#3F3F3F"/>
<path d="M455.89 83.9329H172.921C162.478 83.9329 153.991 90.9392 153.991 99.6018V517.313C153.991 525.975 162.454 533 172.921 533H455.89C466.333 533 474.82 525.975 474.82 517.313V99.6018C474.82 90.9392 466.357 83.9329 455.89 83.9329ZM461.571 507.032C461.571 515.123 453.462 521.672 443.442 521.672H185.699C175.68 521.672 167.57 515.123 167.57 507.032V110.53C167.57 102.439 175.703 95.8702 185.722 95.8702H287.731C289.051 95.8702 290.112 96.727 290.182 97.7931C290.725 108.131 301.545 116.565 314.606 116.565C327.666 116.565 338.464 108.169 339.006 97.7931C339.053 96.727 340.114 95.8702 341.458 95.8702H443.466C453.485 95.8702 461.618 102.439 461.618 110.53V507.032H461.571Z" fill="#679778"/>
<path d="M306.732 99.7732C306.732 96.2701 310.245 93.4523 314.559 93.4523C318.873 93.4523 322.386 96.2891 322.386 99.7732C322.386 103.257 318.873 106.094 314.559 106.094C310.245 106.094 306.732 103.257 306.732 99.7732Z" fill="#3F3F3F"/>
<path d="M308.759 99.7732C308.759 97.1839 311.376 95.0706 314.582 95.0706C317.789 95.0706 320.405 97.1839 320.405 99.7732C320.405 102.362 317.789 104.476 314.582 104.476C311.376 104.476 308.759 102.362 308.759 99.7732Z" fill="#8893E3"/>
<path d="M313.168 99.0117C314.079 99.0117 314.818 98.415 314.818 97.679C314.818 96.9429 314.079 96.3463 313.168 96.3463C312.256 96.3463 311.518 96.9429 311.518 97.679C311.518 98.415 312.256 99.0117 313.168 99.0117Z" fill="#3F3F3F"/>
<path d="M426.209 183.791H205.29C197.139 183.791 190.532 189.127 190.532 195.71V363.993C190.532 370.576 197.139 375.912 205.29 375.912H426.209C434.36 375.912 440.967 370.576 440.967 363.993V195.71C440.967 189.127 434.36 183.791 426.209 183.791Z" fill="#3F3F3F"/>
<path d="M334.079 121.496C336.201 124.295 337.827 127.341 339.053 130.502C340.208 133.662 340.915 137.07 340.161 140.497C339.76 142.211 339.03 143.81 338.087 145.333C337.144 146.856 335.988 148.246 334.88 149.617C333.796 150.988 332.759 152.32 332.028 153.729C331.273 155.138 330.825 156.642 330.637 158.184C330.472 159.726 330.472 161.287 330.684 162.868C330.873 164.448 331.25 165.971 331.839 167.456C332.971 170.464 335.022 173.225 337.096 176.043C339.171 178.841 341.293 181.792 342.212 185.105C343.132 188.418 342.731 191.864 341.316 194.929C341.717 193.33 341.953 191.692 341.929 190.074C341.882 188.456 341.552 186.876 340.963 185.353C339.807 182.306 337.591 179.603 335.352 176.88C333.112 174.158 330.873 171.302 329.505 168.046C328.822 166.428 328.397 164.734 328.161 163.058C327.926 161.383 327.855 159.669 328.091 157.937C328.327 156.223 328.869 154.51 329.741 152.91C330.59 151.311 331.745 149.864 332.924 148.532C335.281 145.866 337.403 143.201 338.299 140.154C339.147 137.127 338.77 133.853 337.921 130.711C337.096 127.551 335.729 124.467 334.079 121.458V121.496Z" fill="#A9CDAC"/>
<path d="M358.361 260.251C356.498 254.311 353.363 248.656 351.194 242.773C342.141 217.699 349.897 183.372 319.51 166.847L330.189 146.456C354.99 124.809 318.637 99.659 289.404 111.844C267.197 121.116 275.047 131.949 262.765 141.697C240.84 159.117 258.875 163.115 239.473 181.697C232.212 188.646 209.486 185.086 199.891 206.238C186.312 236.167 172.332 221.298 160.427 245.953C145.433 277.005 189.966 289.514 192.866 301.146C197.887 321.251 228.605 323.841 244.824 309.085C252.628 301.984 268.847 303.507 280.305 301.394C293.577 298.957 306.425 306.687 320.028 307.486C349.803 308.933 366.541 281.232 358.361 260.232V260.251Z" fill="#A9CDAC"/>
<path d="M258.191 366.107C276.203 327.591 280.022 306.382 259.96 272.626C233.155 227.581 264.91 199.689 264.91 199.689L294.426 189.598H319.439C348.954 198.204 385.943 205.705 361.803 271.56C346.243 314.036 366.141 335.854 385.943 366.088H258.191V366.107Z" fill="#3E3279"/>
<path d="M258.191 367.82C276.203 328.924 280.022 307.505 259.96 273.445C233.155 227.961 264.91 199.803 264.91 199.803L294.426 189.617C302.3 199.955 310.504 202.792 319.439 189.617C354.542 196.376 384.105 208.237 361.803 272.379C346.833 315.406 366.141 337.282 385.943 367.82H258.191Z" fill="#3F3F3F"/>
<path d="M332.546 375.835H254.372C255.527 372.656 256.801 369.4 258.191 366.088C258.333 365.669 258.498 365.212 258.71 364.793H259.559L276.297 365.288L284.194 365.516H329.906C329.953 365.726 330 365.897 330.071 366.107C330.212 366.678 330.378 367.249 330.519 367.82C331.226 370.486 331.91 373.151 332.546 375.854V375.835Z" fill="#FFC7C2"/>
<path d="M394.831 375.835H316.492C316.657 373.208 316.846 370.524 317.058 367.801C317.105 367.23 317.152 366.659 317.199 366.088C317.199 365.878 317.199 365.707 317.246 365.497V365.288L329.104 365.193L344.169 365.079L383.963 364.793H385.071H385.401C385.755 365.212 386.179 365.631 386.556 366.088C389.409 369.305 392.167 372.542 394.807 375.835H394.831Z" fill="#FFC7C2"/>
<path d="M395.821 375.835H253.924C255.197 372.237 256.612 368.563 258.191 364.793H386.58C389.786 368.429 392.874 372.104 395.845 375.835H395.821Z" fill="#3F3F3F"/>
<path d="M329.529 375.835H253.924C255.197 372.237 256.612 368.563 258.191 364.793L258.38 363.879L269.531 309.276L270.427 304.897L271.464 299.89L271.582 299.3L279.81 258.994L280.729 254.444L293.059 194.072C293.506 195.31 293.931 196.547 294.379 197.823C305.082 228.551 315.384 269.218 322.056 307.581C325.592 327.915 328.091 347.582 329.104 364.812C329.104 364.945 329.128 365.098 329.128 365.231C329.128 365.326 329.128 365.421 329.128 365.535C329.128 365.726 329.152 365.935 329.152 366.126C329.199 366.697 329.222 367.268 329.246 367.839C329.387 370.581 329.482 373.265 329.529 375.874V375.835Z" fill="#E0DDF5"/>
<path d="M490.733 222.174C490.733 222.174 489.625 225.334 487.645 230.436C479.488 251.569 455.984 306.363 429.863 314.302C410.06 320.299 359.822 272.036 359.516 266.591L351.571 199.993C380.238 226.324 406.218 252.502 421.258 277.862C432.339 257.49 453.391 242.507 465.862 223.792C467.489 221.469 468.88 219.07 470.153 216.614C470.153 216.614 465.225 199.346 470.766 194.624C475.669 190.455 477.579 203.839 479.606 202.183C481.846 200.374 490.686 184.077 496.863 191.293C510.536 207.361 490.733 222.174 490.733 222.174Z" fill="#FFC7C2"/>
<path d="M319.84 177.413L319.722 181.259L319.462 189.617C319.981 204.772 296.218 204.334 294.449 189.617L294.591 189.084L298.882 173.225L300.744 166.485C306.425 169.627 319.84 177.432 319.84 177.432V177.413Z" fill="#FFC7C2"/>
<path d="M319.84 177.052C319.675 177.204 317.93 178.746 313.592 179.45C309.042 180.193 304.492 178.575 302.441 179.45C300.461 180.307 295.817 184.762 294.615 188.722L298.905 172.863L300.768 166.123C306.449 169.265 319.863 177.071 319.863 177.071L319.84 177.052Z" fill="#F5B2AB"/>
<path d="M315.266 364.793C315.266 365.021 315.266 365.269 315.266 365.516V366.107C315.266 366.678 315.266 367.249 315.242 367.82C315.219 370.467 315.125 373.151 315.007 375.854H251.826C252.887 369.8 253.618 364.05 254.042 358.567C255.41 341.299 253.995 326.544 252.227 312.455C250.647 299.776 248.762 287.572 248.384 274.511V274.378C248.361 273.445 248.337 272.512 248.337 271.56C248.243 263.907 248.691 255.929 250.035 247.343C250.035 247.248 250.058 247.152 250.082 247.057C252.251 233.273 256.706 217.928 264.863 199.898C264.863 199.898 264.91 199.784 264.934 199.727L294.45 189.655C294.379 192.435 294.355 195.157 294.379 197.861C294.544 238.299 303.172 271.674 309.278 305.754C312.696 324.773 315.337 344.041 315.29 364.85L315.266 364.793Z" fill="#679778"/>
<path d="M490.946 229.237C482.789 250.37 455.984 306.382 429.887 314.302C424.135 316.035 415.907 313.255 407.019 308.191C397.613 302.917 387.476 295.149 379.083 287.724C367.956 277.938 359.705 268.78 359.563 266.591L348.648 197.461C379.625 214.882 401.526 240.07 424.535 267.01C436.063 254.063 441.014 247.343 464.565 219.622C466.074 219.87 467.536 220.136 468.997 220.46C477.272 222.25 484.604 225.182 490.969 229.237H490.946Z" fill="#679778"/>
<path d="M404.332 375.835H346.102C345.583 373.132 345.088 370.447 344.64 367.801C344.546 367.23 344.452 366.659 344.357 366.088C344.287 365.745 344.24 365.421 344.192 365.098C344.169 364.983 344.169 364.888 344.145 364.793C340.68 343.431 339.454 323.898 338.228 304.25C336.083 269.809 333.89 235.044 319.462 189.617C319.462 189.617 329.458 189.046 341.246 193.558C346.338 195.5 351.76 198.394 356.876 202.697C359.681 205.039 362.369 207.818 364.867 211.093C365.928 212.483 366.919 213.873 367.814 215.224C376.136 227.638 378.612 239.099 379.201 251.569C379.72 262.402 378.8 273.997 379.036 287.61C379.036 287.686 379.036 287.743 379.036 287.743C379.036 287.743 379.036 287.743 379.036 287.762C379.272 301.432 380.71 317.139 385.943 336.178C389.338 348.534 395.939 361.118 404.332 375.835Z" fill="#679778"/>
<path d="M269.602 293.702C269.319 297.586 269.272 301.489 269.366 305.411C269.413 306.687 269.46 307.981 269.531 309.276C269.885 316.111 270.71 323.003 271.676 329.914C271.723 330.199 271.747 330.466 271.794 330.733C273.374 342.023 275.307 353.389 276.273 364.793C276.273 364.964 276.297 365.136 276.32 365.288C276.344 365.554 276.368 365.821 276.391 366.088C276.438 366.659 276.462 367.23 276.509 367.801C276.698 370.466 276.816 373.151 276.886 375.835H251.85C252.911 369.781 253.641 364.031 254.066 358.548C255.433 341.28 254.019 326.525 252.251 312.436C250.671 299.756 248.785 287.553 248.408 274.492V274.359L249.186 273.883C249.186 273.883 249.351 273.769 249.422 273.73L257.437 268.799L257.744 268.609L280.753 254.444L283.935 252.483C282.426 254.635 281.059 256.805 279.833 258.975C273.491 270.113 270.615 281.422 269.696 292.864C269.672 293.15 269.649 293.397 269.625 293.683L269.602 293.702Z" fill="#B6E4BD"/>
<path d="M223.984 286.582C216.865 290.408 208.755 294.369 197.958 299.49C222.098 314.588 237.233 338.558 254.019 358.548C260.643 364.45 260.172 369.381 254.891 375.835H229.996C230.538 372.999 231.575 370.067 233.202 367.116C217.218 357.672 183.601 334.083 170.116 318.072C164.034 310.913 157.48 302.65 158.588 293.607C162.878 276.339 178.886 263.678 193.29 250.694C212.079 234.149 254.49 205.724 264.91 199.708C264.91 199.765 258.38 264.23 258.38 264.287C247.3 272.512 235.842 280.318 223.961 286.601L223.984 286.582Z" fill="#FFC7C2"/>
<path d="M261.704 265.258C239.614 281.536 236.29 285.021 207.718 298.595C220.896 314.397 239.497 334.16 250.789 348.324C242.726 356.149 234.074 362.375 224.479 366.088C202.861 351.199 159.908 315.844 157.385 298.214C153.944 274.359 207.246 222.516 252.628 199.67C264.792 193.539 286.434 190.988 294.473 189.598L261.728 265.239L261.704 265.258Z" fill="#679778"/>
<path d="M202.225 292.198C203.333 293.093 206.374 296.729 207.718 298.614C231.458 288.409 242.891 279.613 261.704 265.277L261.798 265.068C246.192 276.662 213.376 293.036 202.225 292.217V292.198Z" fill="#B6E4BD"/>
<path d="M232.33 360.128C210.712 345.24 167.758 309.885 165.236 292.255C162.808 275.406 188.669 244.601 220.071 219.908C185.274 245.401 154.722 279.994 157.362 298.233C159.908 315.882 202.838 351.218 224.456 366.107C231.953 363.213 238.86 358.777 245.367 353.255C241.194 356.035 236.88 358.377 232.33 360.128Z" fill="#B6E4BD"/>
<path d="M406.996 308.191C397.589 302.917 387.452 295.149 379.06 287.724C379.06 287.724 375.971 258.861 375.028 241.365C385.967 266.515 384.128 287.667 406.996 308.191Z" fill="#B6E4BD"/>
<path d="M323.258 129.55C323.258 129.55 314.983 146.856 298.033 149.502C298.033 149.502 289.687 147.427 288.273 150.607C285.09 157.689 294.638 162.316 294.638 162.316C300.461 173.13 316.209 180.783 326.228 175.89C334.975 171.606 335.14 161.611 332.735 151.997C329.835 140.497 323.258 129.55 323.258 129.55Z" fill="#FFC7C2"/>
<path d="M302.3 108.798C299.377 109.045 296.501 109.692 293.766 110.53C291.031 111.368 288.391 112.434 285.939 113.729C281.012 116.28 276.839 119.726 273.609 123.629C272.006 125.59 270.615 127.665 269.295 129.778C267.975 131.892 266.773 134.043 265.688 136.251C263.496 140.63 261.751 145.162 260.101 149.731C258.451 154.3 256.871 158.889 255.103 163.458C254.207 165.781 252.911 168.065 251.237 170.121C249.563 172.197 247.488 174.024 245.225 175.662C240.675 178.917 235.395 181.316 230.137 183.506C224.88 185.695 219.458 187.637 214.767 190.264C212.409 191.578 210.335 193.101 208.802 194.967C207.199 196.852 205.926 198.927 204.936 201.098C202.885 205.438 201.965 210.16 200.127 214.805C199.184 217.128 197.958 219.432 196.119 221.469C194.28 223.487 191.828 225.201 189.046 226.324C186.335 227.428 183.577 228.304 180.866 229.218C178.155 230.132 175.444 231.026 172.803 232.036C167.546 234.054 162.431 236.414 158.352 239.708C154.226 242.945 151.586 247.324 151.02 251.95C150.407 256.577 151.798 261.336 154.509 265.506C157.244 269.694 161.134 273.35 165.542 276.51C160.945 273.54 156.843 269.98 153.896 265.772C150.95 261.603 149.276 256.748 149.724 251.855C149.983 249.418 150.714 247.019 152.01 244.792C153.283 242.564 155.052 240.527 157.173 238.775C161.393 235.253 166.627 232.702 171.931 230.57C174.595 229.503 177.306 228.513 180.041 227.599C182.752 226.667 185.51 225.772 188.033 224.725C190.532 223.716 192.653 222.192 194.28 220.384C195.907 218.556 197.038 216.443 197.911 214.234C199.632 209.798 200.527 205.02 202.626 200.412C203.663 198.108 205.007 195.881 206.704 193.825C208.449 191.692 210.853 189.998 213.352 188.627C218.397 185.847 223.866 183.963 229.077 181.811C234.31 179.698 239.426 177.394 243.74 174.329C245.885 172.806 247.842 171.092 249.398 169.17C250.978 167.266 252.18 165.171 253.052 162.963C254.867 158.451 256.588 153.9 258.333 149.331C261.775 140.212 265.971 131.111 272.666 123.115C279.527 115.233 290.536 109.616 302.347 108.836L302.3 108.798Z" fill="#A9CDAC"/>
<path d="M322.244 125.495C322.598 127.684 322.975 129.854 322.999 132.082C323.046 134.31 322.739 136.613 321.655 138.803C320.618 140.992 318.708 142.934 316.421 144.362C314.111 145.733 311.753 146.837 309.184 147.789C306.638 148.722 303.879 149.369 301.168 149.731C300.508 149.826 299.848 149.921 299.306 150.055C299.047 150.112 298.834 150.207 298.693 150.283C298.575 150.34 298.457 150.454 298.339 150.664C297.844 151.444 297.656 152.53 297.561 153.558C297.302 157.746 298.552 162.182 301.781 165.723C299.872 164.162 298.434 162.201 297.467 160.126C296.501 158.032 295.958 155.804 295.935 153.52C295.935 152.377 296.029 151.235 296.666 150.017C296.736 149.864 296.854 149.712 296.972 149.56C297.113 149.388 297.302 149.217 297.491 149.084C297.891 148.817 298.292 148.665 298.669 148.551C299.424 148.322 300.084 148.208 300.744 148.094C303.361 147.637 305.813 146.989 308.17 146.056C310.504 145.143 312.838 144.019 314.865 142.763C316.869 141.525 318.449 139.926 319.51 138.098C320.57 136.251 321.113 134.176 321.443 132.044C321.749 129.912 321.867 127.703 322.244 125.514V125.495Z" fill="#A9CDAC"/>
<path d="M468.974 220.46L428.755 271.56L424.512 267.01C436.04 254.063 440.991 247.343 464.542 219.622C466.051 219.87 467.512 220.136 468.974 220.46Z" fill="#B6E4BD"/>
<path d="M578.055 176.861C570.935 174.481 563.415 172.996 555.541 172.197C554.338 172.082 553.136 171.968 551.934 171.873C538.355 170.864 523.856 171.778 508.862 173.739C507.943 173.853 507.047 173.986 506.151 174.101C505.326 174.215 504.478 174.329 503.652 174.443C503.605 174.443 503.582 174.443 503.535 174.443C502.922 174.538 502.309 174.634 501.672 174.729C501.436 174.767 501.177 174.805 500.941 174.843C500.493 174.919 500.045 174.976 499.574 175.052C498.961 175.148 498.348 175.243 497.735 175.338C496.91 174.043 496.156 172.749 495.448 171.416C491.559 164.257 489.036 156.604 487.999 148.436C487.81 147.008 487.669 145.542 487.574 144.076C488.187 143.924 488.777 143.791 489.39 143.638C489.885 143.524 490.38 143.391 490.875 143.277C491.063 143.239 491.228 143.182 491.394 143.143C492.03 142.991 492.69 142.82 493.35 142.668H493.374C494.222 142.458 495.048 142.249 495.896 142.039C496.769 141.83 497.641 141.601 498.49 141.373C512.399 137.813 525.813 133.681 536.916 126.98C537.907 126.389 538.897 125.761 539.84 125.133C545.781 121.154 550.967 116.337 555.116 110.34L578.055 176.823V176.861Z" fill="#3F3F3F"/>
<path d="M451.446 159.907L448.459 160.54C447.225 160.801 446.487 161.821 446.811 162.817L450.412 173.884C450.737 174.881 452 175.477 453.234 175.215L456.221 174.582C457.456 174.321 458.193 173.301 457.869 172.305L454.268 161.238C453.944 160.241 452.68 159.645 451.446 159.907Z" fill="#B6E4BD"/>
<path d="M575.886 170.559L555.14 110.378C554.668 111.044 554.197 111.691 553.725 112.339L575.909 170.578L575.886 170.559Z" fill="#D8DAEB"/>
<path d="M578.055 176.861C556.908 169.817 532.107 170.502 505.939 174.139C505.185 174.234 504.43 174.348 503.652 174.462C503.511 174.481 503.346 174.5 503.204 174.519C502.709 174.596 502.191 174.672 501.672 174.748C501.319 174.805 500.965 174.843 500.611 174.9C500.281 174.957 499.928 175.014 499.574 175.052C499.102 175.129 498.607 175.205 498.112 175.281C497.971 175.281 497.853 175.319 497.712 175.338C496.886 174.043 496.132 172.749 495.425 171.416C495.708 171.854 495.967 172.292 496.273 172.711C496.321 172.711 496.368 172.711 496.415 172.692C496.981 172.596 497.547 172.482 498.112 172.387C498.419 172.33 498.725 172.273 499.008 172.216C499.409 172.14 499.81 172.082 500.187 172.006C500.658 171.93 501.13 171.835 501.578 171.759C501.766 171.721 501.955 171.702 502.144 171.664C502.851 171.549 503.558 171.435 504.265 171.321C530.363 167.094 555.14 165.857 576.522 172.444L578.031 176.823L578.055 176.861Z" fill="#EBA965"/>
<path d="M588.104 176.84C603.607 173.553 610.971 154.886 604.554 135.145C598.137 115.405 580.368 102.067 564.865 105.354C549.363 108.64 541.998 127.308 548.415 147.048C554.833 166.788 572.602 180.126 588.104 176.84Z" fill="#B6E4BD"/>
<path d="M457.204 156.987L451.937 158.104C450.199 158.472 449.16 159.909 449.616 161.312L453.992 174.773C454.449 176.177 456.227 177.016 457.965 176.647L463.233 175.53C464.97 175.162 466.009 173.726 465.553 172.322L461.177 158.861C460.721 157.457 458.942 156.618 457.204 156.987Z" fill="#B6E4BD"/>
<path d="M463.905 175.052L458.672 176.157C456.927 176.518 455.135 175.681 454.688 174.272L450.326 160.831C450.043 159.955 450.326 159.06 451.01 158.432C449.855 159.022 449.242 160.183 449.619 161.326L453.98 174.767C454.428 176.176 456.22 177.013 457.964 176.652L463.198 175.547C463.858 175.414 464.424 175.11 464.825 174.729C464.542 174.881 464.235 174.995 463.905 175.052Z" fill="#904D08"/>
<path d="M600.451 136.042C605.92 152.891 600.215 168.713 587.673 171.378C583.076 172.349 578.172 171.416 573.575 168.998C570.251 167.266 567.069 164.772 564.24 161.668C563.25 160.564 562.283 159.403 561.387 158.165C561.34 158.089 561.293 158.013 561.246 157.956C558.676 154.376 556.531 150.226 555.046 145.695C553.89 142.115 553.23 138.574 553.042 135.204C553.018 134.671 552.995 134.138 552.995 133.605C552.995 133.586 552.995 133.548 552.995 133.529C552.947 129.816 553.466 126.332 554.527 123.229C556.766 116.565 561.411 111.73 567.87 110.359C580.412 107.693 595.005 119.212 600.498 136.061L600.451 136.042Z" fill="#3F3F3F"/>
<path d="M581.119 167.399C577.795 165.666 574.613 163.172 571.784 160.069C570.793 158.965 569.827 157.803 568.931 156.566C568.884 156.49 568.837 156.433 568.79 156.356C566.22 152.777 564.075 148.627 562.589 144.095C561.434 140.516 560.774 136.975 560.586 133.605C560.562 133.072 560.538 132.539 560.538 132.006C560.538 131.987 560.538 131.949 560.538 131.93C560.491 128.217 561.01 124.733 562.071 121.63C563.862 116.299 567.21 112.148 571.76 109.997C570.44 109.997 569.143 110.092 567.847 110.378C561.411 111.749 556.766 116.584 554.503 123.248C553.466 126.332 552.924 129.816 552.971 133.548C552.971 133.567 552.971 133.605 552.971 133.624C552.971 134.157 552.994 134.69 553.018 135.223C553.207 138.593 553.867 142.134 555.022 145.714C556.484 150.245 558.629 154.395 561.222 157.975C561.269 158.051 561.316 158.127 561.364 158.184C562.259 159.422 563.226 160.602 564.216 161.687C567.045 164.791 570.228 167.285 573.552 169.017C578.149 171.435 583.052 172.368 587.649 171.397C588.946 171.131 590.148 170.712 591.28 170.179C587.885 170.14 584.42 169.17 581.096 167.437L581.119 167.399Z" fill="#EBA865"/>
<path d="M468.62 178.289L469.752 181.754L469.964 182.44L478.239 207.894C478.71 209.303 480.502 210.16 482.246 209.779L489.366 208.275C491.488 207.818 492.478 205.838 491.323 204.334C486.514 198.032 484.085 191.102 484.132 183.468L495.708 181.012C496.721 180.802 497.334 179.945 497.075 179.127L494.977 172.692L468.597 178.289H468.62Z" fill="#B6E4BD"/>
<path d="M494.152 172.882L495.849 178.08C496.108 178.898 495.496 179.755 494.482 179.964L482.907 182.42C482.836 190.055 485.288 196.985 490.097 203.287C491.252 204.791 490.262 206.771 488.14 207.228L481.021 208.732C480.172 208.922 479.3 208.808 478.592 208.485C479.3 209.532 480.808 210.084 482.294 209.779L489.413 208.275C491.535 207.818 492.525 205.838 491.37 204.334C486.561 198.032 484.132 191.102 484.18 183.468L495.755 181.012C496.769 180.802 497.382 179.945 497.122 179.127L495.024 172.692L494.152 172.882Z" fill="#904D08"/>
<path d="M457.799 153.539C453.627 154.852 451.34 158.47 452.471 161.973L456.338 173.872C457.469 177.356 461.666 179.622 466.098 179.108C477.249 177.794 491.912 176.614 498.301 175.262C492.006 165.362 488.8 154.986 488.14 144C477.366 146.97 467.819 150.34 457.776 153.539H457.799Z" fill="#B6E4BD"/>
<path d="M467.866 175.928C463.434 176.442 458.601 177.356 457.469 173.853L453.249 161.782C452.707 160.202 452.66 158.146 454.098 155.747C452.424 157.442 451.764 159.726 452.471 161.954L456.338 173.853C457.469 177.337 461.666 179.603 466.098 179.089C477.249 177.775 491.912 176.595 498.301 175.243C497.759 174.386 497.24 173.529 496.745 172.673C489.437 173.796 477.343 174.805 467.842 175.928H467.866Z" fill="#904D08"/>
<path d="M502.922 173.358C503.11 173.739 503.322 174.101 503.535 174.481C502.922 174.576 502.309 174.672 501.672 174.767C501.436 174.805 501.177 174.843 500.941 174.881C500.729 174.538 500.517 174.177 500.305 173.834C500.116 173.529 499.951 173.225 499.763 172.92C495.401 164.448 492.549 155.614 491.111 146.19C491.016 145.238 490.922 144.305 490.851 143.353C491.04 143.315 491.205 143.258 491.37 143.22C492.006 143.067 492.667 142.896 493.327 142.744C494.6 153.691 497.759 163.762 502.922 173.396V173.358Z" fill="#B6E4BD"/>
<path d="M508.179 172.501C508.391 172.92 508.627 173.32 508.862 173.739C507.943 173.853 507.047 173.986 506.151 174.101C505.939 173.701 505.727 173.32 505.515 172.92C500.376 163.21 497.217 153.044 495.896 142.058C496.769 141.849 497.641 141.62 498.49 141.392C499.763 152.511 502.945 162.715 508.202 172.482L508.179 172.501Z" fill="#B6E4BD"/>
<path d="M483.897 180.212C483.614 179.336 484.25 178.46 485.335 178.232C486.419 178.003 487.504 178.518 487.787 179.393C488.069 180.269 487.433 181.145 486.348 181.373C485.264 181.602 484.18 181.088 483.897 180.212Z" fill="#3F3F3F"/>
<path d="M489.72 179.336C489.508 178.708 489.979 178.08 490.757 177.908C491.535 177.737 492.313 178.118 492.525 178.746C492.737 179.374 492.266 180.003 491.488 180.174C490.71 180.345 489.932 179.964 489.72 179.336Z" fill="#3F3F3F"/>
<path d="M463.509 149.53L473.496 147.412C474.249 147.253 475.003 147.624 475.195 148.214L475.62 149.521C475.817 150.129 475.357 150.738 474.627 150.893L464.64 153.01C463.888 153.17 463.133 152.798 462.942 152.209L462.517 150.902C462.319 150.294 462.779 149.685 463.509 149.53Z" fill="#3F3F3F"/>
<path d="M460.119 150.28L458.819 150.555C458.202 150.686 457.833 151.196 457.995 151.694L458.784 154.125C458.946 154.623 459.578 154.921 460.195 154.791L461.494 154.515C462.112 154.384 462.481 153.874 462.319 153.376L461.529 150.945C461.367 150.447 460.736 150.149 460.119 150.28Z" fill="#3F3F3F"/>
<path d="M583.878 147.561L561.222 157.937C558.652 154.357 556.507 150.207 555.022 145.676C553.867 142.096 553.207 138.555 553.018 135.185C552.995 134.652 552.971 134.119 552.971 133.586C552.971 133.567 552.971 133.529 552.971 133.51L579.658 135.014L583.878 147.58V147.561Z" fill="#3F3F3F"/>
<path d="M567.847 152.187C564.876 153.539 561.081 152.549 559.713 150.036C558.393 147.637 557.285 145.047 556.389 142.325C555.423 139.355 554.81 136.423 554.527 133.586L552.971 133.491C552.971 133.491 552.971 133.548 552.971 133.567C552.971 134.1 552.995 134.633 553.018 135.166C553.207 138.536 553.867 142.077 555.022 145.657C556.484 150.188 558.629 154.338 561.222 157.918L583.878 147.541L583.076 145.181L567.823 152.168L567.847 152.187Z" fill="#3F3F3F"/>
<path d="M587.862 140.231C589.04 143.867 587.579 147.313 584.632 147.941C581.661 148.57 578.29 146.133 577.112 142.515C575.933 138.879 577.371 135.433 580.341 134.805C583.312 134.176 586.683 136.613 587.862 140.231Z" fill="#B6E4BD"/>
<path d="M587.178 140.364C588.215 143.524 587.107 146.494 584.726 147.008C582.345 147.522 579.587 145.352 578.55 142.192C577.512 139.031 578.62 136.061 581.001 135.547C583.382 135.033 586.141 137.203 587.178 140.364Z" fill="#904D08"/>
<path d="M555.541 172.197C554.338 172.082 553.136 171.968 551.934 171.873C540.5 159.003 535.078 142.877 536.916 127.018C537.907 126.427 538.897 125.799 539.84 125.171C537.223 141.83 542.975 158.946 555.541 172.197Z" fill="#B6E4BD"/>
<path d="M581.992 141.716C581.685 140.745 581.921 139.85 582.534 139.717C583.147 139.583 583.901 140.269 584.208 141.24C584.514 142.211 584.278 143.105 583.665 143.239C583.052 143.372 582.298 142.687 581.992 141.716Z" fill="#3F3F3F"/>
<path d="M996.625 341.166C996.625 341.166 1033.87 358.548 1045.24 355.292C1050.19 353.865 1055.16 349.162 1059.22 343.298C1065.13 334.75 1069.14 323.745 1068.46 316.891C1067.59 307.981 1050.8 312.55 1047.43 320.947C1043.44 330.866 1042.29 331.646 1040.55 336.235C1039.91 337.948 1039.25 339.167 1038.47 339.814C1034.42 343.203 1001.6 332.484 1001.6 332.484C1001.6 332.484 989.718 326.658 986.276 330.466C979.015 338.5 993.089 343.032 996.625 341.147V341.166Z" fill="#F9C2C2"/>
<path d="M1037.01 338.71L1061.08 348.21C1067.61 338.786 1073.2 327.477 1072.44 319.899C1071.48 310.056 1053.11 305.163 1045.76 320.68C1041.87 328.886 1038.94 333.645 1037.03 338.71H1037.01Z" fill="#7080FF"/>
<path d="M1038.99 529.574L1035.05 519.426C1035.83 517.731 1037.13 515.123 1037.86 513.524C1048.98 489.154 1054.34 474.723 1057.5 452.657C1061.5 424.479 1079.28 429.487 1083.4 396.988L1035.05 377.435C1027.23 396.702 1023.83 423.585 1023.05 449.363C1022.49 467.945 1026.05 489.059 1022.58 513.524C1022.39 514.914 1020.79 518.036 1020.55 519.426L1003.2 529.574H1038.97H1038.99Z" fill="#F9CBCB"/>
<path d="M1020.86 513.524H1040.66C1051.79 489.154 1054.36 474.723 1057.52 452.657C1058.44 446.241 1060.07 441.538 1062.09 437.73C1068.93 424.822 1080.27 422.081 1083.45 396.988L1035.1 377.435C1027.27 396.702 1023.88 423.585 1023.1 449.363C1022.53 467.945 1024.37 489.059 1020.91 513.524H1020.86Z" fill="#B6E4BD"/>
<path d="M1035.19 513.524H1040.69C1051.81 489.154 1054.38 474.723 1057.54 452.657C1058.46 446.241 1060.09 441.538 1062.12 437.73C1062.54 435.465 1043.37 398.13 1043.37 398.13C1035.57 424.327 1050.4 460.691 1035.24 513.543L1035.19 513.524Z" fill="#679778"/>
<path d="M1114.57 512.153C1114.99 513.162 1115.54 516.837 1115.8 518.093C1110.94 523.043 1105.99 527.765 1101.09 532.62C1113.6 529.497 1126.12 526.394 1138.62 523.291C1135.79 520.587 1133.01 517.941 1130.15 515.199C1129.89 513.295 1129.09 510.44 1128.69 508.536C1124.12 487.117 1113.34 464.766 1102.45 445.955C1088.26 421.433 1097.29 399.919 1083.12 375.245C1067.18 378.691 1051.18 381.985 1034.93 385.107C1043.61 411.114 1053.58 434.246 1071.24 458.064C1084.04 475.351 1105.85 491.629 1114.5 512.153H1114.57Z" fill="#F9CBCB"/>
<path d="M1070.04 458.216C1083.1 475.846 1104.24 492.067 1112.9 512.42C1119.33 510.935 1125.65 509.469 1131.78 507.679C1127.18 486.26 1113.46 464.708 1102.52 445.955C1088.26 421.49 1097.38 399.881 1083.17 375.245C1066.85 377.53 1050.35 379.586 1033.76 381.661C1042.5 408.392 1052.05 433.923 1070.04 458.216Z" fill="#B6E4BD"/>
<path d="M1129.66 514.704C1135.72 516.113 1137.11 520.359 1138.12 524.947C1126.15 527.917 1114.17 530.906 1102.19 533.876C1100.4 525.633 1108.65 522.643 1115.84 518.131C1121.12 519.35 1125.46 517.084 1129.68 514.685L1129.66 514.704Z" fill="#679778"/>
<path d="M1035.08 519.445C1040.59 521.368 1040.22 527.098 1039.51 531.039H1001.84C1001.84 523.157 1009.29 523.1 1020.55 519.445C1023.59 521.444 1028.57 521.292 1035.05 519.445H1035.08Z" fill="#679778"/>
<path d="M1037.03 382.004C1051.46 381.223 1069.47 384.384 1083.36 380.633C1085.34 380.1 1086.61 378.558 1086.42 376.882C1086.23 375.188 1086.12 373.57 1086.02 372.028C1085.9 370.181 1085.86 368.41 1085.83 366.735C1085.64 351.961 1088.57 342.917 1085.1 327.096C1082.96 317.272 1079.8 313.807 1076.38 310.018C1072.94 306.23 1062.61 303.336 1062.61 303.336L1055.54 306.249C1026.35 314.131 1032.69 359.272 1031.99 378.006C1031.89 380.29 1034.25 382.137 1037.06 381.985L1037.03 382.004Z" fill="#679778"/>
<path d="M1062.59 303.355C1062.38 303.736 1062.12 304.097 1061.88 304.44C1058.18 309.314 1050.23 310.552 1050.54 308.095L1047.83 301.47L1044.95 294.445L1053.25 291.037L1056.81 295.72L1062.61 303.374L1062.59 303.355Z" fill="#F9CBCB"/>
<path d="M1062.59 303.355C1062.38 303.736 1062.12 304.097 1061.88 304.44C1060.68 303.164 1057.26 297.396 1053.77 300.099C1050.94 302.27 1047.83 301.489 1047.83 301.489L1052.05 295.092C1052.05 295.092 1054.27 295.377 1056.81 295.739L1062.61 303.393L1062.59 303.355Z" fill="#F5BABA"/>
<path d="M1003.21 342.813L1005.92 339.423L982.854 327.385L980.141 330.775L1003.21 342.813Z" fill="#3B4487"/>
<path d="M1028.76 284.049C1029.04 284.925 1029.72 284.963 1030.01 285.858C1030.24 286.601 1030.83 288.485 1032.98 288.485C1033.02 288.485 1033.1 288.447 1033.14 288.447C1033.59 288.314 1034.01 288.086 1034.49 288.143C1034.77 288.181 1035.01 288.295 1035.24 288.371C1037.1 289.076 1039.56 288.428 1040.52 286.981C1041.23 287.895 1042.55 288.485 1043.87 288.466C1045.21 288.466 1046.49 287.838 1047.15 286.905C1048.02 287.4 1049.13 287.724 1050.16 287.476C1050.64 287.362 1051.01 286.639 1051.2 285.839C1051.32 285.344 1051.67 286.029 1051.65 285.592L1051.55 285.268C1052.33 284.107 1053.79 282.774 1055.94 283.802C1060.11 285.801 1055.63 290.427 1055.63 290.427C1055.63 290.427 1056.13 292.312 1054.34 295.378C1054.34 295.378 1056.03 298.005 1059.03 296.71C1060.47 296.71 1061.29 293.931 1060.56 293.321C1061.64 293.15 1062.56 292.465 1062.87 291.589C1063.15 290.732 1062.78 289.742 1061.95 289.171C1061.79 289.057 1061.6 288.942 1061.5 288.771C1061.34 288.447 1061.64 288.086 1061.88 287.8C1062.85 286.563 1062.61 284.811 1061.31 283.783C1061.08 283.593 1060.8 283.402 1060.73 283.136C1060.7 282.964 1060.75 282.793 1060.8 282.622C1061.17 281.194 1059.95 279.613 1058.18 279.271C1057.94 279.233 1057.71 279.195 1057.52 279.061C1057.26 278.871 1057.28 278.528 1057.24 278.243C1057.12 277.329 1056.18 276.586 1055.09 276.263C1054.03 275.939 1052.85 275.977 1051.72 276.091C1051.72 275.406 1051.08 274.816 1050.33 274.53C1049.57 274.244 1048.68 274.264 1047.85 274.302C1046.6 274.378 1045.35 274.568 1044.18 274.873C1044.13 274.206 1043.52 273.635 1042.78 273.35C1042.03 273.064 1041.18 273.045 1040.36 273.14C1038.85 273.312 1037.43 273.902 1036.37 274.759C1036.09 274.987 1035.83 275.235 1035.45 275.349C1035.17 275.444 1034.84 275.444 1034.53 275.463C1031.82 275.653 1029.65 277.976 1030.17 280.127C1028.88 281.098 1028.29 282.679 1028.76 284.049Z" fill="#B6E4BD"/>
<path d="M1033.12 288.447C1033.87 290.618 1035.03 293.512 1036.66 296.044C1038.97 299.68 1042.22 302.631 1046.51 301.794C1050.49 301.013 1052.76 298.9 1054.01 296.691C1055.77 293.626 1055.66 290.389 1055.66 290.389C1055.66 290.389 1060.11 285.763 1055.96 283.764C1053.82 282.736 1052.36 284.088 1051.58 285.23C1051.44 285.439 1051.32 285.63 1051.22 285.801C1051.15 286.106 1051.06 286.391 1050.94 286.639C1050.75 287.058 1050.49 287.381 1050.19 287.457C1049.93 287.515 1049.67 287.553 1049.41 287.553C1048.63 287.553 1047.83 287.267 1047.17 286.886C1046.51 287.819 1045.21 288.428 1043.87 288.447C1042.53 288.447 1041.23 287.876 1040.52 286.962C1039.56 288.409 1037.08 289.057 1035.24 288.352C1035.01 288.257 1034.75 288.143 1034.49 288.124C1034.01 288.067 1033.57 288.295 1033.14 288.428L1033.12 288.447Z" fill="#F9CBCB"/>
<path d="M1003.84 347.011C1003.84 347.011 1041.09 364.393 1052.45 361.137C1057.4 359.709 1062.38 355.007 1066.43 349.143C1072.35 340.595 1076.36 329.59 1075.67 322.736C1074.8 313.826 1058.01 318.395 1054.64 326.791C1050.66 336.711 1049.5 337.491 1047.76 342.08C1047.12 343.793 1046.46 345.011 1045.68 345.659C1041.63 349.048 1008.81 338.329 1008.81 338.329C1008.81 338.329 996.932 332.503 993.49 336.311C986.229 344.345 1000.3 348.876 1003.84 346.992V347.011Z" fill="#F9CBCB"/>
<path d="M1044.22 344.536L1068.29 354.036C1074.82 344.612 1080.41 333.303 1079.66 325.725C1078.69 315.882 1060.32 310.989 1052.97 326.506C1049.08 334.712 1046.16 339.471 1044.25 344.536H1044.22Z" fill="#B6E4BD"/>
<path d="M830.258 457.302C831.767 464.213 832.615 470.363 833.016 476.055C834.03 490.601 833.676 502.081 830.824 515.923L822.148 515.485C822.148 515.485 814.604 486.527 810.573 466.745C809.536 461.719 808.734 457.245 808.357 453.894C806.117 434.722 817.952 381.966 818.706 378.539V378.406L818.753 378.348L846.595 376.521C860.245 415.379 842.493 423.375 830.258 457.264V457.302Z" fill="#F1CCCD"/>
<path d="M879.93 513.429C879.105 510.401 867.129 487.745 855.789 474.551C853.078 471.391 850.556 468.649 848.434 466.631C833.252 452.219 818.376 375.607 818.376 375.588C818.376 375.588 840.984 374.103 840.961 374.122C860.457 390.552 858.383 415.093 861.353 438.987C862.39 447.269 865.597 455.132 870.477 461.834C871.467 463.185 872.386 464.556 873.258 465.965C879.459 475.827 885.447 489.687 891.576 511.886L879.954 513.448L879.93 513.429Z" fill="#F1CCCD"/>
<path d="M796.852 444.889C796.829 446.184 798.22 447.193 799.799 447.021C826.792 444.242 844.073 451.515 865.526 448.735C866.752 448.583 868.001 448.373 869.274 448.145C871.537 447.745 873.188 446.146 873.329 444.28C875.663 416.16 873.848 390.8 864.229 374.541H813.991C813.991 374.541 797.395 420.101 796.829 444.87L796.852 444.889Z" fill="#679778"/>
<path d="M865.62 421.719C865.62 435.617 865.526 444.108 865.502 448.735C866.728 448.583 867.978 448.373 869.251 448.145C871.514 447.745 873.164 446.146 873.306 444.28C875.639 416.16 873.824 390.8 864.206 374.541H861.848L859.137 376.692C859.137 376.692 865.644 398.092 865.597 421.681L865.62 421.719Z" fill="#B6E4BD"/>
<path d="M825.661 283.821C825.637 281.251 826.604 278.547 828.938 276.796C831.837 274.625 836.293 274.321 840.089 275.215C843.884 276.11 847.161 278.014 850.367 279.88C855.365 282.793 860.717 286.125 862.202 290.961C863.923 296.558 859.891 302.688 862.296 308.133C864.017 312.036 868.591 314.55 872.268 317.424C875.946 320.299 879.081 324.678 876.889 328.429C874.39 332.693 866.657 333.398 863.781 337.51C861.966 340.1 862.603 343.393 861.164 346.135C859.679 348.953 855.907 350.876 852.135 350.723C848.363 350.571 844.827 348.362 843.696 345.449C842.941 343.508 843.177 341.356 842.399 339.414C841.173 336.425 837.755 334.464 835.138 332.141C828.867 326.563 827.075 317.938 831.908 311.046C827.948 305.163 826.132 298.785 828.678 291.417C826.627 288.904 825.708 286.391 825.684 283.821H825.661Z" fill="#B6E4BD"/>
<path d="M782.421 305.09L768.392 309.142L779.046 333.2L793.075 329.147L782.421 305.09Z" fill="#BDC4FF"/>
<path d="M812.718 348.953C812.718 348.953 811.728 365.193 801.237 365.897C792.42 366.506 782.307 339.205 775.352 332.008C768.657 325.078 764.861 319.481 769.411 317.291C781.458 311.484 782.118 321.384 782.59 328.943L796.687 346.535L815.264 317.71L812.718 348.972V348.953Z" fill="#F1CCCD"/>
<path d="M898.059 411.647C892.66 412.732 887.12 405.917 887.12 405.917C887.12 405.917 884.928 410.334 883.254 408.315C881.58 406.297 884.291 400.833 884.291 400.833L882.735 396.721L865.432 350.876L859.113 313.826C870.076 317.558 887.639 377.416 890.492 395.007C891.01 398.244 891.293 400.148 891.293 400.148C891.293 400.148 903.835 410.467 898.035 411.628L898.059 411.647Z" fill="#F1CCCD"/>
<path d="M774.998 332.484C778.865 341.299 792.562 366.278 801.332 366.278C801.85 366.278 802.369 366.183 802.864 366.011C806.494 364.793 809.984 359.519 812.6 354.436C815.17 349.467 816.891 344.669 817.103 344.06V344.003C818.117 351.808 814.368 375.626 813.213 375.283C825.708 378.767 841.055 379.472 856.025 377.301H856.119C859.302 376.825 862.485 376.216 865.597 375.493C857.416 365.897 854.941 349.029 859.137 343.355C859.161 343.603 859.231 343.888 859.326 344.231C861.612 353.617 882.311 400.662 882.5 400.624C884.739 400.186 892.378 398.891 892.33 398.758C889.36 380.862 870.029 318.129 860.528 312.417C852.395 307.524 843.271 306.363 843.2 306.382L833.11 306.534C833.11 306.534 816.867 311.085 812.388 318.776C808.357 325.687 796.923 346.04 796.923 346.04C796.805 346.268 796.428 346.306 796.263 346.097L783.014 327.667C782.896 327.515 774.928 332.37 774.998 332.503V332.484Z" fill="#B6E4BD"/>
<path d="M843.248 306.382C842.965 306.725 842.682 307.067 842.399 307.353C839.641 310.209 836.623 310.323 833.134 306.553C833.346 305.677 833.936 302.65 834.36 300.746C834.501 299.985 834.643 299.414 834.714 299.204L842.187 298.747L843.224 306.382H843.248Z" fill="#F1CCCD"/>
<path d="M843.248 306.382C842.965 306.725 842.682 307.067 842.399 307.353C842.163 305.659 841.409 302.517 839.098 302.479C836.081 302.441 834.525 300.899 834.36 300.727C834.501 299.966 834.643 299.395 834.714 299.185L842.187 298.728L843.224 306.363L843.248 306.382Z" fill="#F1BABB"/>
<path d="M859.325 344.231L859.137 343.355C859.161 343.603 859.231 343.888 859.325 344.231Z" fill="#DB85B4"/>
<path d="M859.161 376.711L865.62 375.493C857.44 365.897 854.964 349.105 859.161 343.431L857.015 338.31C851.994 346.173 848.906 357.882 859.137 376.73L859.161 376.711Z" fill="#904D08"/>
<path d="M802.888 366.011C806.518 364.793 810.007 359.519 812.624 354.436L817.127 344.06V344.003C815.194 337.739 815.594 334.616 816.585 329.362C811.775 336.006 813.378 359.176 802.864 366.011H802.888Z" fill="#904D08"/>
<path d="M889.313 504.081L893.698 508.612L900.016 518.322L897.894 519.635L889.171 512.934L890.114 520.111C890.374 522.053 889.926 523.995 888.134 525.29C883.419 528.736 873.447 534.543 870.665 532.049C867.813 529.478 877.502 523.862 877.69 519.159C877.879 514.609 877.832 508.821 877.832 508.821L889.289 504.1L889.313 504.081Z" fill="#B6E4BD"/>
<path d="M830.942 515.332L833.04 520.949L831.578 530.449L829.244 530.544L827.146 522.224L823.374 527.746C822.36 529.231 820.828 530.449 818.753 530.659C813.26 531.23 802.51 531.363 802.062 528.45C801.614 525.461 812.035 525.347 815.076 522.053C818.023 518.874 822.172 515.123 822.172 515.123L830.965 515.332H830.942Z" fill="#B6E4BD"/>
<path d="M831.295 299.128C841.527 306.172 847.303 293.378 847.303 293.378C847.303 293.378 851.852 291.684 850.061 288.333C848.458 285.363 844.497 289.038 844.497 289.038C839.098 289.038 834.808 285.249 832.545 282.736C831.743 281.86 830.069 282.05 829.645 283.078C828.631 285.573 827.358 289.533 827.806 293.131C828.089 295.435 829.079 297.605 831.295 299.128Z" fill="#F1CCCD"/>
<path d="M883.725 222.897C868.944 222.897 856.944 232.569 856.944 244.525C856.944 248.675 858.406 252.559 860.905 255.853L854.941 267.276L871.844 263.926C875.427 265.353 879.458 266.172 883.702 266.172C898.483 266.172 910.483 256.5 910.483 244.544C910.483 232.588 898.507 222.916 883.702 222.916L883.725 222.897Z" fill="#B6E4BD"/>
<path d="M898.554 239.08C897.069 236.567 893.297 234.777 889.643 235.71C885.729 236.7 884.244 240.375 884.079 240.793C883.914 240.375 882.429 236.681 878.516 235.71C874.861 234.796 871.089 236.567 869.604 239.08C866.87 243.687 872.622 249.399 873.258 250.046C877.148 253.911 882.288 254.539 884.15 254.673C884.197 254.673 884.221 254.673 884.268 254.673C884.315 254.673 884.362 254.673 884.409 254.673C886.272 254.501 891.152 253.778 894.9 250.046C895.56 249.38 901.289 243.687 898.554 239.08Z" fill="#3F3F3F"/>
<path d="M1097.31 223.735C1081.26 223.735 1068.25 234.244 1068.25 247.209C1068.25 251.722 1069.83 255.929 1072.54 259.489L1066.08 271.884L1084.42 268.228C1088.31 269.789 1092.67 270.665 1097.31 270.665C1113.37 270.665 1126.38 260.156 1126.38 247.19C1126.38 234.225 1113.37 223.716 1097.31 223.716V223.735Z" fill="#ADB6FF"/>
<path d="M1092.72 241.517V254.92H1086.92C1084.18 254.92 1081.97 253.13 1081.97 250.922V245.515C1081.97 243.306 1084.18 241.517 1086.92 241.517H1092.72Z" fill="#3F3F3F"/>
<path d="M1113.75 254.615C1111.74 256.443 1094.91 254.92 1094.91 254.92V241.517C1094.91 241.517 1097.67 240.317 1098.49 238.09C1099.32 235.881 1100.52 233.045 1102.64 233.501C1104.76 233.958 1105.54 238.566 1102.92 241.517C1102.92 241.517 1111.15 239.727 1113.39 241.688C1115.51 243.554 1115.61 252.921 1113.75 254.634V254.615Z" fill="#3F3F3F"/>
<path d="M16.2666 150.34H104.46C113.442 150.34 120.727 156.223 120.727 163.477V221.812C120.727 229.065 113.442 234.948 104.46 234.948H16.2666C7.28462 234.948 0 229.065 0 221.812V163.477C0 156.223 7.28462 150.34 16.2666 150.34Z" fill="#B6E4BD"/>
<path d="M113.466 152.53C114.574 154.3 115.187 156.299 115.187 158.413V216.747C115.187 224.001 107.902 229.884 98.9199 229.884H10.7265C7.40248 229.884 4.31418 229.084 1.72095 227.695C4.3849 231.997 9.90141 234.948 16.2666 234.948H104.46C113.442 234.948 120.727 229.065 120.727 221.812V163.477C120.727 158.908 117.827 154.89 113.442 152.53H113.466Z" fill="#904D08"/>
<path d="M50.568 209.817C47.5033 211.017 43.9435 209.227 43.9199 206.485L43.7549 192.854L43.5898 179.222C43.5663 176.48 47.0789 174.634 50.1672 175.795L69.2157 182.877L86.0245 189.122C89.5843 190.436 89.6315 194.51 86.1188 195.881L69.475 202.392L50.5916 209.779L50.568 209.817Z" fill="#3F3F3F"/>
<path d="M60.2101 225.467C37.2482 225.467 18.577 210.388 18.577 191.845C18.577 173.301 37.2482 158.222 60.2101 158.222C83.172 158.222 101.843 173.301 101.843 191.845C101.843 210.388 83.172 225.467 60.2101 225.467ZM60.2101 160.621C38.8749 160.621 21.5474 174.634 21.5474 191.845C21.5474 209.056 38.8985 223.068 60.2101 223.068C81.5217 223.068 98.8728 209.056 98.8728 191.845C98.8728 174.634 81.5217 160.621 60.2101 160.621Z" fill="#3F3F3F"/>
<path d="M494.576 487.955C487.786 494.733 480.997 502.005 473.382 510.192C522.795 535.971 583.571 533.933 617.849 487.612C639.655 458.14 646.799 431.371 669.053 399.843C657.054 396.359 648.567 390.743 637.887 387.087C615.114 418.939 610.14 442.814 588.333 473.295C565.442 505.28 527.557 504.1 494.576 487.974V487.955Z" fill="#B6E4BD"/>
<path d="M542.244 341.489C508.462 365.25 488.73 370.124 457.729 396.321C453.273 400.376 449.454 404.85 446.153 409.591C422.107 443.023 435.45 487.346 473.382 510.192C479.394 503.89 485.405 497.588 491.417 491.286C466.027 469.221 457.634 434.475 487.928 411.038C518.74 386.84 543.4 379.605 575.791 354.969C570.558 348.934 564.24 343.603 558.582 337.834C554.81 340.69 551.061 343.489 547.148 346.211C545.521 344.65 543.895 343.07 542.268 341.508L542.244 341.489Z" fill="#B6E4BD"/>
<path d="M542.244 341.489C505.774 368.22 479.441 373.646 449.288 405.364C434.696 423.394 431.702 443.632 435.804 464.347C428.048 401.119 497.098 385.26 547.124 346.192C546.322 344.022 543.658 343.222 542.244 341.489Z" fill="#904D08"/>
<path d="M473.477 470.572C471.897 466.765 470.813 462.938 470.2 458.94C473.948 471.429 480.007 482.129 491.393 491.248C490.309 492.372 489.248 493.514 488.164 494.637C480.973 487.288 476.258 479.654 473.477 470.553V470.572Z" fill="#B6E4BD"/>
<path d="M642.154 393.313C639.467 397.14 636.779 400.967 634.28 404.889C642.461 408.163 650.995 411.723 659.175 415.017C661.769 411.076 664.409 406.926 666.79 403.118C658.61 399.843 650.335 396.607 642.178 393.313H642.154Z" fill="#3F3F3F"/>
<path d="M558.393 329.533C553.042 333.55 547.761 337.625 542.244 341.489C543.871 343.051 545.498 344.612 547.124 346.192C551.014 343.469 554.786 340.671 558.535 337.834C564.358 343.489 570.204 349.124 576.027 354.779C577.607 353.579 579.186 352.399 580.766 351.199C573.316 343.964 565.843 336.749 558.393 329.533Z" fill="#FFEEDC"/>
<path d="M558.558 337.834C554.81 340.671 551.038 343.488 547.148 346.192C552.994 351.847 558.676 357.425 564.546 363.041C568.672 360.357 572.326 357.596 576.051 354.779C570.228 349.124 564.381 343.469 558.558 337.834Z" fill="#3F3F3F"/>
<path d="M471.614 462.766C475.033 474.056 481.398 482.948 491.417 491.268C492.478 490.163 493.539 489.059 494.576 487.955C484.015 480.949 476.612 473.066 471.614 462.786V462.766Z" fill="#904D08"/>
<path d="M494.576 487.955C494.576 487.955 492.431 490.22 491.417 491.268C509.64 504.461 559.36 517.789 591.893 480.434C611.955 454.218 615.821 433.618 634.28 404.87C632.442 403.289 630.037 402.452 627.467 402.147C609.668 429.506 606.604 447.859 588.286 473.352C565.654 504.842 527.369 504.442 494.576 487.955Z" fill="#904D08"/>
<path d="M638.17 386.649C634.563 391.79 630.909 396.892 627.538 402.147C629.801 403.061 632.064 403.956 634.351 404.87C636.85 400.948 639.538 397.14 642.225 393.294C650.406 396.569 658.586 399.843 666.766 403.137C667.686 401.823 668.605 400.529 669.501 399.215C659.058 395.026 648.614 390.838 638.17 386.649Z" fill="#FFEEDC"/>
<path d="M570.864 304.192C569.238 307.543 569.473 310.799 570.181 314.302C570.935 318.186 572.067 322.622 568.318 325.763C566.621 327.191 569.379 329.286 571.076 327.858C573.976 325.421 574.919 322.203 574.73 318.909C574.471 314.511 572.09 309.961 574.212 305.658C575.108 303.85 571.784 302.365 570.888 304.192H570.864Z" fill="#B6E4BD"/>
<path d="M595.028 310.609C588.757 312.455 587.909 317.596 586.565 322.241C584.915 327.934 579.445 331.342 573.835 334.597C571.854 335.74 573.858 338.348 575.862 337.187C580.341 334.578 584.962 331.837 587.862 327.953C589.441 325.84 590.148 323.498 590.738 321.099C591.445 318.205 592.294 314.664 596.16 313.521C598.447 312.855 597.339 309.923 595.028 310.59V310.609Z" fill="#B6E4BD"/>
<path d="M612.332 327.439C612.332 328.524 605.213 330.009 604.058 330.447C601.936 331.247 599.908 332.16 597.928 333.189C593.472 335.492 589.394 338.215 585.339 340.937C583.453 342.194 586.235 344.269 588.097 343.032C593.166 339.662 598.305 336.235 604.175 333.798C607.028 332.617 610.046 332.065 612.969 331.075C615.02 330.371 616.104 329.114 616.104 327.344C616.104 325.383 612.332 325.478 612.309 327.439H612.332Z" fill="#B6E4BD"/>
<path d="M645.573 362.432C645.337 368.563 651.655 376.121 646.822 381.756C645.431 383.375 648.614 385.05 650.005 383.432C655.686 376.825 649.109 369.648 649.368 362.623C649.439 360.662 645.667 360.471 645.596 362.432H645.573Z" fill="#B6E4BD"/>
<path d="M672.967 359.405C669.077 362.508 665.258 365.802 664.103 370.257C663.443 372.846 663.301 375.474 662.287 378.006C661.203 380.671 659.506 383.032 657.36 385.222C655.851 386.764 659.034 388.439 660.543 386.897C663.938 383.413 666.177 379.358 667.073 374.979C667.592 372.351 667.757 369.8 669.454 367.439C671.034 365.25 673.32 363.441 675.536 361.671C677.257 360.281 674.735 358.015 672.99 359.405H672.967Z" fill="#B6E4BD"/>
<path d="M686.286 377.587C684.094 381.452 680.393 384.117 675.324 385.298C671.175 386.25 667.474 386.935 664.574 389.677C662.995 391.181 666.177 392.837 667.757 391.352C671.175 388.115 677.894 388.477 682.208 386.174C685.721 384.289 688.149 381.623 689.893 378.558C690.907 376.768 687.3 375.816 686.31 377.587H686.286Z" fill="#B6E4BD"/>
</g>
<defs>
<clipPath id="clip0_4_6396">
<rect width="1328.28" height="574" fill="white"/>
</clipPath>
</defs>
</svg>
