<svg width="100" height="100" viewBox="0 0 100 100" fill="none" xmlns="http://www.w3.org/2000/svg">
<g clip-path="url(#clip0_8_20393)">
<g clip-path="url(#clip1_8_20393)">
<g clip-path="url(#clip2_8_20393)">
<mask id="mask0_8_20393" style="mask-type:luminance" maskUnits="userSpaceOnUse" x="0" y="0" width="100" height="100">
<path d="M100 0H0V100H100V0Z" fill="white"/>
</mask>
<g mask="url(#mask0_8_20393)">
<path d="M100 0H0V100H100V0Z" fill="white" fill-opacity="0.01"/>
<path d="M75.4756 45.6555C76.4574 45.6555 77.3989 45.2655 78.0931 44.5713C78.7874 43.8771 79.1774 42.9355 79.1774 41.9537V37.2237C79.1774 36.2419 78.7874 35.3003 78.0931 34.6061C77.3989 33.9119 76.4574 33.5219 75.4756 33.5219C74.6613 33.5195 73.8698 33.2525 73.2206 32.7609C72.5714 32.2694 72.0997 31.5801 71.8766 30.7969C71.1542 28.0578 70.0646 25.429 68.6375 22.982C68.2411 22.2705 68.0868 21.4492 68.1981 20.6423C68.3094 19.8354 68.6802 19.0866 69.2545 18.509C69.5996 18.1651 69.8734 17.7564 70.0603 17.3065C70.2471 16.8565 70.3433 16.3741 70.3433 15.8869C70.3433 15.3997 70.2471 14.9173 70.0603 14.4673C69.8734 14.0173 69.5996 13.6087 69.2545 13.2648L65.9126 9.92288C65.5687 9.57777 65.16 9.30395 64.7101 9.11711C64.2601 8.93027 63.7777 8.8341 63.2905 8.8341C62.8033 8.8341 62.3209 8.93027 61.8709 9.11711C61.4209 9.30395 61.0123 9.57777 60.6684 9.92288C60.0907 10.4972 59.3419 10.8679 58.535 10.9792C57.7281 11.0905 56.9069 10.9363 56.1954 10.5398C53.7336 9.1427 51.1088 8.05479 48.3805 7.30077C47.6015 7.08766 46.9135 6.62563 46.4215 5.98514C45.9296 5.34465 45.6606 4.56083 45.6555 3.75321C45.6623 3.26278 45.5716 2.77588 45.3886 2.3208C45.2057 1.86573 44.9341 1.45155 44.5896 1.10235C44.2452 0.753138 43.8348 0.475859 43.3823 0.286619C42.9298 0.0973793 42.4442 -4.72926e-05 41.9537 1.72218e-08H37.2237C36.2419 1.72218e-08 35.3003 0.39001 34.6061 1.08423C33.9119 1.77845 33.5219 2.72002 33.5219 3.7018C33.5255 4.51161 33.2598 5.29964 32.7664 5.94187C32.2731 6.5841 31.5803 7.04406 30.7969 7.24936C28.0718 8.01254 25.448 9.10001 22.982 10.4884C22.2808 10.9086 21.4588 11.0813 20.6478 10.9788C19.8367 10.8762 19.0836 10.5044 18.509 9.92288C18.1651 9.57777 17.7564 9.30395 17.3065 9.11711C16.8565 8.93027 16.3741 8.8341 15.8869 8.8341C15.3997 8.8341 14.9173 8.93027 14.4673 9.11711C14.0173 9.30395 13.6087 9.57777 13.2648 9.92288L9.92288 13.2648C9.57777 13.6087 9.30395 14.0173 9.11711 14.4673C8.93027 14.9173 8.8341 15.3997 8.8341 15.8869C8.8341 16.3741 8.93027 16.8565 9.11711 17.3065C9.30395 17.7564 9.57777 18.1651 9.92288 18.509C10.4972 19.0866 10.8679 19.8354 10.9792 20.6423C11.0905 21.4492 10.9363 22.2705 10.5398 22.982C9.11274 25.429 8.02317 28.0578 7.30077 30.7969C7.08535 31.5844 6.61562 32.2786 5.96471 32.7715C5.3138 33.2643 4.51821 33.5281 3.7018 33.5219C2.72002 33.5219 1.77845 33.9119 1.08423 34.6061C0.39001 35.3003 0 36.2419 0 37.2237V41.9537C0 42.9355 0.39001 43.8771 1.08423 44.5713C1.77845 45.2655 2.72002 45.6555 3.7018 45.6555C4.52499 45.6523 5.32579 45.9235 5.97758 46.4263C6.62938 46.9291 7.09498 47.6348 7.30077 48.4319C8.03276 51.1514 9.12194 53.762 10.5398 56.1954C10.9363 56.9069 11.0905 57.7281 10.9792 58.535C10.8679 59.3419 10.4972 60.0907 9.92288 60.6684C9.57777 61.0123 9.30395 61.4209 9.11711 61.8709C8.93027 62.3209 8.8341 62.8033 8.8341 63.2905C8.8341 63.7777 8.93027 64.2601 9.11711 64.7101C9.30395 65.16 9.57777 65.5687 9.92288 65.9126L13.2648 69.2545C13.6087 69.5996 14.0173 69.8734 14.4673 70.0603C14.9173 70.2471 15.3997 70.3433 15.8869 70.3433C16.3741 70.3433 16.8565 70.2471 17.3065 70.0603C17.7564 69.8734 18.1651 69.5996 18.509 69.2545C19.0866 68.6802 19.8354 68.3094 20.6423 68.1981C21.4492 68.0868 22.2705 68.2411 22.982 68.6375C25.4375 70.0474 28.064 71.136 30.7969 71.8766C31.5803 72.0819 32.2731 72.5419 32.7664 73.1841C33.2598 73.8263 33.5255 74.6143 33.5219 75.4242C33.5219 76.4059 33.9119 77.3475 34.6061 78.0417C35.3003 78.736 36.2419 79.126 37.2237 79.126H41.9537C42.9355 79.126 43.8771 78.736 44.5713 78.0417C45.2655 77.3475 45.6555 76.4059 45.6555 75.4242C45.6606 74.6165 45.9296 73.8327 46.4215 73.1922C46.9135 72.5517 47.6015 72.0897 48.3805 71.8766C51.1164 71.1449 53.744 70.0558 56.1954 68.6375C56.9069 68.2411 57.7281 68.0868 58.535 68.1981C59.3419 68.3094 60.0907 68.6802 60.6684 69.2545C61.0123 69.5996 61.4209 69.8734 61.8709 70.0603C62.3209 70.2471 62.8033 70.3433 63.2905 70.3433C63.7777 70.3433 64.2601 70.2471 64.7101 70.0603C65.16 69.8734 65.5687 69.5996 65.9126 69.2545L67.6093 67.6093L69.2545 65.9126C69.5996 65.5687 69.8734 65.16 70.0603 64.7101C70.2471 64.2601 70.3433 63.7777 70.3433 63.2905C70.3433 62.8033 70.2471 62.3209 70.0603 61.8709C69.8734 61.4209 69.5996 61.0123 69.2545 60.6684C68.6802 60.0907 68.3094 59.3419 68.1981 58.535C68.0868 57.7281 68.2411 56.9069 68.6375 56.1954C70.0554 53.762 71.1446 51.1514 71.8766 48.4319C72.0903 47.6392 72.558 46.9384 73.208 46.4369C73.8581 45.9355 74.6546 45.661 75.4756 45.6555Z" fill="#75BF7A"/>
<path d="M39.5374 65.7579L37.2238 65.6551C30.3831 65.048 24.052 61.7866 19.5863 56.5691C15.1206 51.3517 12.8754 44.5931 13.3315 37.7406C13.7876 30.8882 16.9087 24.4867 22.0264 19.9071C27.1442 15.3275 33.8517 12.9339 40.7125 13.2388C47.5733 13.5437 54.042 16.523 58.7333 21.5385C63.4246 26.5541 65.9655 33.2072 65.8119 40.0731C65.6583 46.939 62.8224 53.4718 57.9114 58.2725C53.0005 63.0732 46.405 65.7601 39.5374 65.7579ZM39.6402 14.4468C33.1608 14.4222 26.922 16.9002 22.2252 21.3638C17.5284 25.8274 14.7363 31.9321 14.4312 38.4044C14.1262 44.8767 16.3318 51.2169 20.5879 56.1025C24.8441 60.9881 30.8221 64.0419 37.2752 64.6268C40.9522 64.9672 44.659 64.4935 48.1322 63.2393C51.6053 61.9851 54.7596 59.9812 57.3707 57.3701C59.9818 54.759 61.9857 51.6047 63.2399 48.1315C64.4941 44.6584 64.9678 40.9516 64.6274 37.2746C64.1075 31.4225 61.5464 25.9395 57.392 21.7851C53.2376 17.6307 47.7546 15.0695 41.9025 14.5497L39.6402 14.4468Z" fill="#2684FF"/>
<path opacity="0.2" d="M77.5332 43.7021C77.1615 43.0195 77.0207 42.235 77.1319 41.4658C77.2431 40.6966 77.6003 39.984 78.1502 39.4347C78.7808 38.7847 79.1473 37.9234 79.1784 37.0183C79.1258 36.0726 78.7127 35.183 78.0241 34.5327C77.3355 33.8823 76.4238 33.5207 75.4766 33.5221C74.6623 33.5198 73.8709 33.2528 73.2217 32.7612C72.5725 32.2697 72.1008 31.5803 71.8777 30.7972L71.7234 30.2831C71.0474 30.4429 70.4263 30.7801 69.9239 31.2599C69.3777 31.8167 68.6609 32.1749 67.8876 32.2773C67.1144 32.3798 66.329 32.2208 65.6566 31.8255C63.3312 30.4841 60.8429 29.4473 58.253 28.7406C57.4925 28.5444 56.8203 28.0979 56.3446 27.4729C55.8689 26.848 55.6175 26.0812 55.6309 25.2959C55.6309 24.8257 55.5375 24.3601 55.356 23.9263C55.1745 23.4925 54.9086 23.0992 54.5737 22.7691C54.2388 22.439 53.8417 22.1787 53.4053 22.0035C52.9689 21.8283 52.5021 21.7415 52.0319 21.7484H47.5589C46.618 21.7484 45.7157 22.1221 45.0504 22.7874C44.3851 23.4527 44.0113 24.355 44.0113 25.2959C44.0158 26.079 43.7609 26.8415 43.2866 27.4646C42.8123 28.0877 42.1452 28.5364 41.3892 28.7406C38.7829 29.4469 36.2776 30.4836 33.9342 31.8255C33.2618 32.2208 32.4764 32.3798 31.7032 32.2773C30.9299 32.1749 30.2131 31.8167 29.6669 31.2599C29.3371 30.9273 28.9446 30.6632 28.5122 30.483C28.0798 30.3028 27.616 30.21 27.1476 30.21C26.6791 30.21 26.2153 30.3028 25.7829 30.483C25.3505 30.6632 24.9581 30.9273 24.6283 31.2599L21.4921 34.3962C21.1594 34.726 20.8953 35.1184 20.7152 35.5508C20.535 35.9832 20.4422 36.447 20.4422 36.9155C20.4422 37.3839 20.535 37.8477 20.7152 38.2801C20.8953 38.7125 21.1594 39.1049 21.4921 39.4347C22.0489 39.981 22.407 40.6978 22.5095 41.471C22.612 42.2443 22.4529 43.0296 22.0576 43.7021C20.737 46.0558 19.7014 48.5584 18.9728 51.1571C18.7685 51.9131 18.3199 52.5802 17.6967 53.0545C17.0736 53.5288 16.3111 53.7836 15.5281 53.7792C14.5872 53.7792 13.6848 54.153 13.0195 54.8183C12.3543 55.4836 11.9805 56.3859 11.9805 57.3268V61.7998C11.9805 62.7406 12.3543 63.643 13.0195 64.3083C13.6848 64.9736 14.5872 65.3473 15.5281 65.3473C16.3111 65.3429 17.0736 65.5977 17.6967 66.072C18.3199 66.5463 18.7685 67.2135 18.9728 67.9694C19.0242 68.2265 19.127 68.4836 19.1784 68.7406C19.7459 68.3859 20.3978 68.1893 21.0667 68.1712C21.7357 68.1531 22.3973 68.3142 22.9831 68.6378C25.4386 70.0477 28.065 71.1363 30.798 71.8769C31.5813 72.0822 32.2742 72.5421 32.7675 73.1844C33.2608 73.8266 33.5266 74.6146 33.5229 75.4244C33.5229 75.9106 33.6187 76.3919 33.8047 76.8411C33.9907 77.2902 34.2634 77.6983 34.6071 78.042C34.9509 78.3858 35.359 78.6584 35.8081 78.8445C36.2572 79.0305 36.7386 79.1262 37.2247 79.1262H41.9548C42.9366 79.1262 43.8781 78.7362 44.5724 78.042C45.2666 77.3478 45.6566 76.4062 45.6566 75.4244C45.6616 74.6168 45.9306 73.833 46.4226 73.1925C46.9146 72.552 47.6025 72.09 48.3815 71.8769L50.3867 71.2599H48.7414C46.5345 71.0552 44.4315 70.2262 42.6784 68.87C40.9253 67.5139 39.5947 65.6865 38.8421 63.6018C38.0895 61.5171 37.9461 59.2611 38.4286 57.0979C38.9112 54.9346 39.9998 52.9535 41.567 51.3863C43.1342 49.819 45.1154 48.7305 47.2786 48.2479C49.4419 47.7653 51.6978 47.9087 53.7825 48.6613C55.8672 49.4139 57.6946 50.7446 59.0508 52.4977C60.4069 54.2508 61.2359 56.3538 61.4406 58.5607C61.6166 60.3486 61.3736 62.153 60.7311 63.8307C60.0885 65.5084 59.0641 67.0135 57.7388 68.2265C58.2768 68.1785 58.8187 68.2504 59.3254 68.4371C59.8322 68.6238 60.2912 68.9206 60.6694 69.3062C61.0133 69.6513 61.422 69.9251 61.872 70.112C62.3219 70.2988 62.8043 70.395 63.2915 70.395C63.7788 70.395 64.2612 70.2988 64.7111 70.112C65.1611 69.9251 65.5697 69.6513 65.9137 69.3062L67.6103 67.661L69.2556 65.9643C69.6007 65.6204 69.8745 65.2117 70.0613 64.7618C70.2482 64.3118 70.3443 63.8294 70.3443 63.3422C70.3443 62.855 70.2482 62.3726 70.0613 61.9226C69.8745 61.4726 69.6007 61.064 69.2556 60.7201C68.6813 60.1424 68.3105 59.3936 68.1992 58.5867C68.0879 57.7798 68.2421 56.9586 68.6386 56.2471C70.0565 53.8137 71.1457 51.2031 71.8777 48.4836C72.0913 47.6909 72.559 46.9901 73.2091 46.4886C73.8591 45.9872 74.6557 45.7127 75.4766 45.7072C76.4313 45.6945 77.3473 45.3281 78.0473 44.6789C77.8977 44.3423 77.726 44.016 77.5332 43.7021Z" fill="url(#paint0_linear_8_20393)"/>
<path d="M99.9989 64.4216V59.9485C99.9989 59.0077 99.6252 58.1053 98.9599 57.44C98.2946 56.7747 97.3923 56.401 96.4514 56.401C95.6749 56.4028 94.9199 56.1461 94.3055 55.6713C93.6911 55.1965 93.2522 54.5307 93.0581 53.7789C92.334 51.1706 91.28 48.6654 89.9218 46.3239C89.5501 45.6413 89.4093 44.8568 89.5205 44.0876C89.6317 43.3184 89.989 42.6058 90.5388 42.0565C90.8715 41.7267 91.1355 41.3343 91.3157 40.9019C91.4959 40.4695 91.5887 40.0057 91.5887 39.5372C91.5887 39.0688 91.4959 38.605 91.3157 38.1726C91.1355 37.7402 90.8715 37.3478 90.5388 37.018L87.3511 33.8817C87.0213 33.549 86.6289 33.285 86.1965 33.1048C85.7641 32.9246 85.3003 32.8318 84.8318 32.8318C84.3634 32.8318 83.8996 32.9246 83.4672 33.1048C83.0348 33.285 82.6424 33.549 82.3126 33.8817C81.7663 34.4385 81.0495 34.7966 80.2763 34.8991C79.503 35.0016 78.7177 34.8425 78.0452 34.4473C75.7062 33.0965 73.1997 32.0593 70.5902 31.3624C69.8342 31.1582 69.1671 30.7095 68.6928 30.0864C68.2185 29.4633 67.9637 28.7008 67.9681 27.9177C67.9681 26.9768 67.5943 26.0745 66.929 25.4092C66.2637 24.7439 65.3614 24.3701 64.4205 24.3701H59.9475C59.0067 24.3701 58.1043 24.7439 57.439 25.4092C56.7737 26.0745 56.4 26.9768 56.4 27.9177C56.4044 28.7008 56.1496 29.4633 55.6753 30.0864C55.201 30.7095 54.5338 31.1582 53.7779 31.3624C51.1715 32.0687 48.6662 33.1054 46.3228 34.4473C45.6504 34.8425 44.8651 35.0016 44.0918 34.8991C43.3185 34.7966 42.6018 34.4385 42.0555 33.8817C41.7257 33.549 41.3333 33.285 40.9009 33.1048C40.4685 32.9246 40.0047 32.8318 39.5362 32.8318C39.0678 32.8318 38.604 32.9246 38.1716 33.1048C37.7392 33.285 37.3467 33.549 37.0169 33.8817L33.8807 37.018C33.548 37.3478 33.284 37.7402 33.1038 38.1726C32.9236 38.605 32.8308 39.0688 32.8308 39.5372C32.8308 40.0057 32.9236 40.4695 33.1038 40.9019C33.284 41.3343 33.548 41.7267 33.8807 42.0565C34.4375 42.6028 34.7956 43.3196 34.8981 44.0928C35.0006 44.8661 34.8415 45.6514 34.4462 46.3239C33.1043 48.6672 32.0677 51.1725 31.3614 53.7789C31.1571 54.5349 30.7085 55.202 30.0854 55.6763C29.4623 56.1506 28.6997 56.4054 27.9167 56.401C26.9758 56.401 26.0735 56.7747 25.4082 57.44C24.7429 58.1053 24.3691 59.0077 24.3691 59.9485V64.4216C24.3691 65.3624 24.7429 66.2648 25.4082 66.9301C26.0735 67.5954 26.9758 67.9691 27.9167 67.9691C28.6997 67.9647 29.4623 68.2195 30.0854 68.6938C30.7085 69.1681 31.1571 69.8353 31.3614 70.5912C32.0583 73.2008 33.0955 75.7073 34.4462 78.0462C34.8415 78.7187 35.0006 79.504 34.8981 80.2773C34.7956 81.0505 34.4375 81.7673 33.8807 82.3136C33.548 82.6434 33.284 83.0358 33.1038 83.4682C32.9236 83.9006 32.8308 84.3644 32.8308 84.8329C32.8308 85.3013 32.9236 85.7651 33.1038 86.1975C33.284 86.6299 33.548 87.0223 33.8807 87.3521L37.0169 90.5398C37.3467 90.8725 37.7392 91.1365 38.1716 91.3167C38.604 91.4969 39.0678 91.5897 39.5362 91.5897C40.0047 91.5897 40.4685 91.4969 40.9009 91.3167C41.3333 91.1365 41.7257 90.8725 42.0555 90.5398C42.6048 89.99 43.3173 89.6328 44.0866 89.5216C44.8558 89.4103 45.6403 89.5511 46.3228 89.9228C48.6644 91.2811 51.1696 92.335 53.7779 93.0591C54.5297 93.2532 55.1955 93.6921 55.6703 94.3065C56.1451 94.9209 56.4018 95.6759 56.4 96.4524C56.4 97.3933 56.7737 98.2956 57.439 98.9609C58.1043 99.6262 59.0067 99.9999 59.9475 99.9999H64.4205C65.3614 99.9999 66.2637 99.6262 66.929 98.9609C67.5943 98.2956 67.9681 97.3933 67.9681 96.4524C67.9663 95.6759 68.223 94.9209 68.6978 94.3065C69.1726 93.6921 69.8384 93.2532 70.5902 93.0591C73.2019 92.3448 75.7084 91.2904 78.0452 89.9228C78.7278 89.5511 79.5123 89.4103 80.2815 89.5216C81.0507 89.6328 81.7633 89.99 82.3126 90.5398C82.6424 90.8725 83.0348 91.1365 83.4672 91.3167C83.8996 91.4969 84.3634 91.5897 84.8318 91.5897C85.3003 91.5897 85.7641 91.4969 86.1965 91.3167C86.6289 91.1365 87.0213 90.8725 87.3511 90.5398L90.5388 87.3521C90.8715 87.0223 91.1355 86.6299 91.3157 86.1975C91.4959 85.7651 91.5887 85.3013 91.5887 84.8329C91.5887 84.3644 91.4959 83.9006 91.3157 83.4682C91.1355 83.0358 90.8715 82.6434 90.5388 82.3136C89.989 81.7643 89.6317 81.0517 89.5205 80.2825C89.4093 79.5133 89.5501 78.7288 89.9218 78.0462C91.2893 75.7094 92.3438 73.2029 93.0581 70.5912C93.2522 69.8394 93.6911 69.1736 94.3055 68.6988C94.9199 68.224 95.6749 67.9673 96.4514 67.9691C97.3923 67.9691 98.2946 67.5954 98.9599 66.9301C99.6252 66.2648 99.9989 65.3624 99.9989 64.4216ZM73.8293 61.1311C74.1156 64.2196 73.1633 67.2953 71.1819 69.6817C69.2005 72.0681 66.3522 73.5697 63.2637 73.856C60.1752 74.1424 57.0994 73.1901 54.7131 71.2087C52.3267 69.2272 50.8251 66.379 50.5388 63.2905C50.397 61.7612 50.5578 60.2189 51.012 58.7518C51.4663 57.2847 52.205 55.9214 53.1861 54.7398C55.1676 52.3534 58.0158 50.8519 61.1043 50.5655C64.1929 50.2792 67.2686 51.2314 69.655 53.2129C72.0414 55.1943 73.5429 58.0426 73.8293 61.1311Z" fill="#89E219"/>
<path d="M62.1579 79.6914H60.6155C56.5363 79.3327 52.7136 77.5491 49.818 74.6535C46.9224 71.7579 45.1388 67.9352 44.78 63.856C44.5424 61.2985 44.8713 58.7201 45.7433 56.3041C46.6152 53.8881 48.0088 51.694 49.825 49.8778C51.6412 48.0616 53.8354 46.668 56.2513 45.796C58.6673 44.924 61.2457 44.5952 63.8032 44.8328C67.8824 45.1915 71.7051 46.9751 74.6007 49.8707C77.4963 52.7663 79.28 56.589 79.6388 60.6683C79.8449 63.091 79.5464 65.5301 78.7621 67.8316C77.9776 70.1331 76.7246 72.2468 75.0818 74.0394C73.439 75.832 71.4422 77.2643 69.2177 78.246C66.9933 79.2277 64.5894 79.7374 62.1579 79.7429V79.6914ZM62.2094 45.7583C57.9394 45.7043 53.8157 47.3126 50.7099 50.2433C47.604 53.1741 45.7594 57.1976 45.5658 61.4635C45.3722 65.7294 46.8448 69.9035 49.6724 73.1035C52.5 76.3035 56.461 78.2787 60.7183 78.6117C63.1192 78.8149 65.5355 78.4915 67.7985 77.6642C70.0615 76.8368 72.1167 75.5255 73.8205 73.8218C75.5242 72.118 76.8356 70.0629 77.6629 67.7999C78.4902 65.5369 78.8135 63.1206 78.6104 60.7197C78.2745 56.8782 76.5958 53.2778 73.8691 50.5511C71.1423 47.8244 67.5419 46.1456 63.7004 45.8097L62.2094 45.7583Z" fill="#58CC02"/>
<path d="M82.4151 28.7922C86.7596 28.7922 90.2815 25.2704 90.2815 20.9259C90.2815 16.5815 86.7596 13.0596 82.4151 13.0596C78.0707 13.0596 74.5488 16.5815 74.5488 20.9259C74.5488 25.2704 78.0707 28.7922 82.4151 28.7922Z" fill="#89E219"/>
<path d="M20.9776 89.6145C25.322 89.6145 28.8439 86.0926 28.8439 81.7481C28.8439 77.4037 25.322 73.8818 20.9776 73.8818C16.6331 73.8818 13.1113 77.4037 13.1113 81.7481C13.1113 86.0926 16.6331 89.6145 20.9776 89.6145Z" fill="#75BF7A"/>
</g>
</g>
</g>
</g>
<defs>
<linearGradient id="paint0_linear_8_20393" x1="16.1502" y1="79.3936" x2="69.6309" y2="25.9129" gradientUnits="userSpaceOnUse">
<stop stop-color="#091E42" stop-opacity="0.11"/>
<stop offset="0.09" stop-color="#091E42" stop-opacity="0.44"/>
<stop offset="0.19" stop-color="#091E42" stop-opacity="0.69"/>
<stop offset="0.32" stop-color="#091E42" stop-opacity="0.87"/>
<stop offset="0.5" stop-color="#091E42" stop-opacity="0.97"/>
<stop offset="1" stop-color="#091E42"/>
</linearGradient>
<clipPath id="clip0_8_20393">
<rect width="100" height="100" fill="white"/>
</clipPath>
<clipPath id="clip1_8_20393">
<rect width="100" height="100" fill="white"/>
</clipPath>
<clipPath id="clip2_8_20393">
<rect width="100" height="100" fill="white"/>
</clipPath>
</defs>
</svg>
