<svg width="107" height="100" viewBox="0 0 107 100" fill="none" xmlns="http://www.w3.org/2000/svg">
<g clip-path="url(#clip0_8_20373)">
<g clip-path="url(#clip1_8_20373)">
<g clip-path="url(#clip2_8_20373)">
<mask id="mask0_8_20373" style="mask-type:luminance" maskUnits="userSpaceOnUse" x="0" y="0" width="107" height="100">
<path d="M107 0H0V100H107V0Z" fill="white"/>
</mask>
<g mask="url(#mask0_8_20373)">
<path d="M107 0H0V100H107V0Z" fill="white" fill-opacity="0.01"/>
<path d="M30.8742 64.4301C31.0469 65.9399 31.7216 67.3486 32.7906 68.4314C33.8597 69.5142 35.2615 70.2088 36.7726 70.4044C38.2529 70.5877 39.7533 70.2981 41.0581 69.5772C41.2051 69.487 41.3737 69.4377 41.5462 69.4343C41.7188 69.431 41.8891 69.4737 42.0395 69.5581C42.1899 69.6425 42.3149 69.7654 42.4017 69.9142C42.4884 70.063 42.5336 70.2323 42.5327 70.4044V84.8345C31.2523 84.8345 20.434 80.3656 12.4575 72.4108C4.48111 64.456 0 53.667 0 42.4172H14.4694C14.6391 42.4216 14.807 42.3813 14.9562 42.3005C15.1053 42.2197 15.2305 42.1011 15.3193 41.9568C15.408 41.8124 15.457 41.6474 15.4616 41.4781C15.4661 41.3089 15.4259 41.1414 15.345 40.9926C14.7287 39.9548 14.3983 38.7731 14.3871 37.567C14.3759 36.3609 14.6843 35.1733 15.2812 34.1242C15.878 33.0752 16.7422 32.202 17.7861 31.5931C18.83 30.9841 20.0167 30.6609 21.2261 30.6562C22.4355 30.6515 23.6247 30.9655 24.6734 31.5663C25.722 32.1672 26.5929 33.0336 27.198 34.078C27.803 35.1224 28.1207 36.3076 28.1189 37.5137C28.1171 38.7198 27.7959 39.9041 27.1878 40.9466C27.095 41.0966 27.0451 41.269 27.0436 41.4453C27.042 41.6215 27.0889 41.7947 27.1791 41.9463C27.2694 42.0978 27.3995 42.2218 27.5553 42.3048C27.7112 42.3878 27.8869 42.4267 28.0633 42.4172H42.5327V56.8474C42.5422 57.0233 42.5033 57.1986 42.42 57.354C42.3368 57.5094 42.2124 57.6392 42.0605 57.7291C41.9085 57.8191 41.7348 57.8659 41.5581 57.8644C41.3814 57.8628 41.2085 57.8131 41.0581 57.7205C40.0284 57.106 38.8481 56.7879 37.6481 56.8014C36.6844 56.808 35.7328 57.0169 34.8553 57.4145C33.9778 57.8121 33.1941 58.3895 32.5552 59.1091C31.9162 59.8287 31.4363 60.6744 31.1467 61.5911C30.8571 62.5079 30.7643 63.4752 30.8742 64.4301Z" fill="#253858"/>
<path d="M54.2373 21.9669C54.0566 23.4859 53.3745 24.9018 52.2983 25.9917C51.2221 27.0817 49.813 27.7836 48.2929 27.9871C46.8068 28.1767 45.2997 27.8696 44.0073 27.114C43.857 27.0214 43.6841 26.9717 43.5074 26.9702C43.3307 26.9686 43.1569 27.0154 43.005 27.1054C42.853 27.1953 42.7287 27.3251 42.6455 27.4805C42.5622 27.636 42.5232 27.8112 42.5327 27.9871V42.4173H28.0633C27.8869 42.4268 27.7112 42.3879 27.5553 42.3049C27.3995 42.2218 27.2694 42.0978 27.1791 41.9463C27.0889 41.7948 27.042 41.6215 27.0436 41.4453C27.0451 41.2691 27.095 41.0966 27.1878 40.9467C27.7764 39.91 28.0817 38.7374 28.073 37.5461C28.0644 36.3548 27.7421 35.1866 27.1385 34.1586C26.5349 33.1305 25.6711 32.2786 24.6336 31.6881C23.5961 31.0976 22.4212 30.7892 21.2267 30.7939C20.0321 30.7985 18.8597 31.116 17.8268 31.7145C16.794 32.313 15.9368 33.1716 15.3413 34.2043C14.7457 35.237 14.4326 36.4076 14.4332 37.599C14.4339 38.7903 14.7483 39.9606 15.345 40.9926C15.4259 41.1415 15.4661 41.3089 15.4616 41.4782C15.457 41.6474 15.408 41.8125 15.3193 41.9568C15.2305 42.1012 15.1053 42.2197 14.9562 42.3005C14.807 42.3813 14.6391 42.4216 14.4694 42.4173H0C0 31.1675 4.48111 20.3785 12.4575 12.4237C20.434 4.46895 31.2523 0 42.5327 0V14.4301C42.5232 14.6061 42.5622 14.7813 42.6455 14.9368C42.7287 15.0922 42.853 15.2219 43.005 15.3119C43.1569 15.4019 43.3307 15.4486 43.5074 15.4471C43.6841 15.4456 43.857 15.3959 44.0073 15.3033C45.0371 14.6888 46.2174 14.3706 47.4173 14.3842C48.3806 14.3851 49.333 14.5881 50.2125 14.9801C51.092 15.3721 51.8789 15.9443 52.5221 16.6595C53.1654 17.3746 53.6505 18.2168 53.946 19.1312C54.2415 20.0456 54.3407 21.0118 54.2373 21.9669Z" fill="#89E219"/>
<path d="M85.0654 42.4173H70.596C70.4234 42.4164 70.2537 42.4615 70.1045 42.548C69.9553 42.6345 69.832 42.7592 69.7474 42.9092C69.6628 43.0592 69.6199 43.229 69.6233 43.4011C69.6267 43.5732 69.6761 43.7413 69.7665 43.8879C70.4894 45.1891 70.7798 46.6855 70.596 48.1618C70.3228 49.8415 69.4324 51.3596 68.0981 52.4203C66.7638 53.4809 65.0814 54.0081 63.3786 53.8991C61.6758 53.7901 60.0747 53.0527 58.8874 51.8306C57.7001 50.6086 57.0115 48.9894 56.956 47.2886C56.9495 46.0928 57.268 44.9176 57.8776 43.8879C57.9704 43.7379 58.0203 43.5655 58.0218 43.3893C58.0233 43.213 57.9765 43.0398 57.8862 42.8882C57.796 42.7367 57.6659 42.6127 57.5101 42.5297C57.3542 42.4467 57.1785 42.4078 57.0021 42.4173H42.5327V27.9871C42.5231 27.8112 42.5621 27.636 42.6454 27.4805C42.7286 27.3251 42.853 27.1953 43.0049 27.1054C43.1568 27.0154 43.3306 26.9686 43.5073 26.9702C43.684 26.9717 43.8569 27.0214 44.0072 27.114C45.2996 27.8696 46.8067 28.1767 48.2928 27.9871C49.9771 27.7148 51.4993 26.8267 52.5629 25.4961C53.6264 24.1654 54.155 22.4875 54.0457 20.7894C53.9364 19.0912 53.197 17.4945 51.9716 16.3104C50.7462 15.1262 49.1226 14.4396 47.4172 14.3842C46.2173 14.3706 45.037 14.6888 44.0072 15.3033C43.8569 15.3959 43.684 15.4456 43.5073 15.4471C43.3306 15.4486 43.1568 15.4019 43.0049 15.3119C42.853 15.2219 42.7286 15.0922 42.6454 14.9368C42.5621 14.7813 42.5231 14.6061 42.5327 14.4301V0C53.813 0 64.6314 4.46895 72.6078 12.4237C80.5843 20.3785 85.0654 31.1675 85.0654 42.4173Z" fill="#58CC02"/>
<path d="M107.001 69.5316C105.425 74.8757 102.808 79.8578 99.3013 84.1935C95.7943 88.5291 91.4654 92.1334 86.5616 94.8006C81.6577 97.4677 76.2752 99.1455 70.7212 99.738C65.1673 100.33 59.5508 99.8263 54.1922 98.2541L58.2934 84.3754C58.3274 84.2113 58.32 84.0413 58.2719 83.8808C58.2237 83.7203 58.1362 83.5742 58.0174 83.4557C57.8986 83.3372 57.7521 83.25 57.5911 83.202C57.4302 83.154 57.2598 83.1466 57.0953 83.1805C55.6451 83.5215 54.1227 83.3761 52.7636 82.7669C51.0648 82.1453 49.6832 80.8762 48.9227 79.2387C48.1623 77.6012 48.0853 75.7295 48.7086 74.0353C49.3319 72.3411 50.6045 70.9633 52.2464 70.2049C53.8884 69.4464 55.7652 69.3696 57.464 69.9912C58.621 70.2989 59.6622 70.938 60.4591 71.8294C60.5828 71.9464 60.7342 72.0303 60.8991 72.0735C61.064 72.1166 61.2371 72.1176 61.4024 72.0764C61.5678 72.0352 61.7201 71.953 61.8452 71.8376C61.9703 71.7221 62.0641 71.5771 62.1181 71.4158L66.1733 57.5371L80.0896 61.6272C80.2608 61.6603 80.4191 61.7411 80.5461 61.8603C80.673 61.9795 80.7635 62.1322 80.8069 62.3007C80.8504 62.4691 80.845 62.6464 80.7914 62.8119C80.7379 62.9774 80.6384 63.1243 80.5044 63.2357C79.6496 64.0804 79.0165 65.1221 78.6612 66.2688C78.3869 67.1907 78.3116 68.1601 78.4405 69.1131C78.5694 70.0662 78.8995 70.9811 79.409 71.7975C79.9185 72.614 80.5959 73.3134 81.3963 73.8497C82.1968 74.3859 83.102 74.7468 84.0526 74.9085C85.56 75.1662 87.1106 74.918 88.4615 74.2028C89.8124 73.4876 90.8871 72.3458 91.5177 70.9563C92.0944 69.575 92.2234 68.0484 91.8863 66.5904C91.8445 66.4228 91.8487 66.247 91.8982 66.0815C91.9477 65.9159 92.0408 65.7666 92.1679 65.6493C92.2951 65.5319 92.4515 65.4507 92.6209 65.4142C92.7902 65.3776 92.9662 65.3871 93.1306 65.4416L107.001 69.5316Z" fill="url(#paint0_linear_8_20373)"/>
<path d="M91.2411 41.8198L102.024 36.8106C102.073 36.774 102.134 36.7583 102.195 36.767C102.255 36.7756 102.31 36.8078 102.347 36.8566C102.383 36.9053 102.399 36.9666 102.39 37.0269C102.382 37.0873 102.349 37.1417 102.3 37.1783L95.4344 45.6801L97.4159 47.2885C97.4533 47.3113 97.4833 47.3443 97.5026 47.3835C97.5219 47.4227 97.5296 47.4666 97.5247 47.51C97.5199 47.5534 97.5027 47.5945 97.4753 47.6285C97.4479 47.6626 97.4113 47.6881 97.3698 47.7021L86.633 52.7113C86.3565 52.8492 86.1261 52.5275 86.3104 52.3437L93.1765 43.8419L91.195 42.2334C91.1576 42.2106 91.1276 42.1777 91.1083 42.1385C91.089 42.0993 91.0814 42.0554 91.0862 42.012C91.091 41.9686 91.1082 41.9275 91.1356 41.8934C91.163 41.8594 91.1996 41.8338 91.2411 41.8198Z" fill="#FFC400"/>
<path d="M94.8359 55.6064L100.642 56.7553C100.78 56.8012 100.78 56.9391 100.642 56.985L95.3888 58.3637L95.7114 59.6045C95.7575 59.6505 95.6653 59.7424 95.5732 59.7424L89.767 58.5935C89.6748 58.5475 89.6287 58.3637 89.767 58.3637L95.0202 56.985L94.6976 55.7442C94.6976 55.7261 94.7012 55.7082 94.7081 55.6915C94.7151 55.6747 94.7253 55.6595 94.7381 55.6467C94.751 55.6339 94.7662 55.6238 94.783 55.6169C94.7997 55.6099 94.8177 55.6064 94.8359 55.6064Z" fill="#FFC400"/>
</g>
</g>
</g>
</g>
<defs>
<linearGradient id="paint0_linear_8_20373" x1="49.4242" y1="74.6408" x2="101.492" y2="89.8686" gradientUnits="userSpaceOnUse">
<stop stop-color="#FFAB00"/>
<stop offset="1" stop-color="#FFE380"/>
</linearGradient>
<clipPath id="clip0_8_20373">
<rect width="107" height="100" fill="white"/>
</clipPath>
<clipPath id="clip1_8_20373">
<rect width="107" height="100" fill="white"/>
</clipPath>
<clipPath id="clip2_8_20373">
<rect width="107" height="100" fill="white"/>
</clipPath>
</defs>
</svg>
