<svg width="1260" height="996" viewBox="0 0 1260 996" fill="none" xmlns="http://www.w3.org/2000/svg">
<path d="M0 60C0 26.8629 26.8629 0 60 0H1200C1233.14 0 1260 26.8629 1260 60V930C1260 963.137 1233.14 990 1200 990H624.002C591.106 990 564.563 963.097 565.008 930.203L570.346 535.021C571.175 473.654 518.492 425.183 457.407 431.111L64.6989 469.221C30.025 472.586 0 445.334 0 410.497V60Z" fill="#183D25" fill-opacity="0.03"/>
<path d="M0 562.179C0 534.098 21.523 510.703 49.5072 508.367L474.507 472.884C505.993 470.255 533 495.101 533 526.696V942C533 971.823 508.823 996 479 996H54C24.1766 996 0 971.823 0 942V562.179Z" fill="#183D25" fill-opacity="0.03"/>
</svg>
