<svg width="737" height="850" viewBox="0 0 737 850" fill="none" xmlns="http://www.w3.org/2000/svg">
<path d="M42.1064 179.771C122.361 189.604 294.281 181.971 312.846 68.7709C336.053 -72.7291 56.6104 27 224.372 208.271C382.032 378.625 1148.27 287 440.964 768" stroke="black" stroke-width="2" stroke-linecap="round" stroke-dasharray="10 10"/>
<path d="M447.651 456.802H471.542L486.631 458L480.344 463.991L476.572 467.585L489.146 465.189L487.889 459.198L494.176 460.396V469.981L491.661 474.774H481.602L477.829 472.378L469.027 473.576L460.225 478.368H453.938V480.764L461.483 483.161L466.512 485.557H479.087L486.631 484.359L485.374 490.349L477.829 496.34L457.71 501.132H455.195L457.71 510.717V515.51L490.404 519.104L492.919 522.698H499.206L505.493 521.5L519.325 523.896L509.265 513.113L508.008 509.519L509.265 504.727L506.751 498.736H516.81L520.582 497.538L535.672 502.33L541.959 510.717L554.533 499.934H557.048L559.563 495.142L562.078 490.349V485.557L555.791 486.755L536.929 495.142H531.899L529.385 490.349V486.755L555.791 475.972L560.821 473.576L567.108 474.774L573.395 479.566L574.653 489.151L562.078 508.321L558.306 513.113L553.276 514.312H540.702V539.472L538.187 551.453L535.672 558.642L523.097 573.019L510.523 579.01L486.631 586.198L475.314 587.397L456.453 581.406L445.136 573.019L436.334 571.821L446.393 583.802L447.651 587.397L458.968 593.387L467.77 599.378L481.602 604.17L491.661 606.566V608.963L474.057 619.746L458.968 630.529L457.71 632.925L476.572 634.123L482.859 630.529L485.374 631.727L494.176 628.133L514.295 617.349L525.612 618.548L535.672 622.142L531.899 636.519L530.642 640.114L504.236 654.491L505.493 667.67L514.295 707.208L518.068 720.387V725.18L510.523 723.982L499.206 717.991L492.919 719.189L481.602 728.774L480.344 731.17L505.493 733.567L515.553 728.774L521.84 729.972L531.899 739.557H540.702L546.989 738.359H555.791L549.504 762.321L539.444 774.303L535.672 779.095L492.919 781.491L465.255 795.869L445.136 805.454L431.304 828.218L427.531 834.208L425.017 841.397L411.185 846.19H391.066V821.029L387.293 827.02L368.432 846.19L363.402 847.388L350.827 843.793L335.738 842.595L318.134 836.605L311.847 831.812L310.589 829.416V811.444L315.619 800.661L329.451 791.076L350.827 783.888L357.115 782.689L360.887 785.086H375.976L377.234 780.293L378.491 777.897L373.461 775.501L409.927 758.727L416.214 756.331L425.017 757.529L428.789 758.727L436.334 753.935L440.106 747.944L447.651 744.35V740.755L451.423 735.963L442.621 740.755L445.136 735.963L450.166 729.972L441.363 734.765L443.878 727.576L447.651 719.189L435.076 728.774L430.046 732.369L422.502 709.604L416.214 689.236L411.185 676.057V673.661H394.838L388.551 664.076L387.293 662.878L386.036 674.859L383.521 677.255H373.461L370.946 664.076V652.095L374.719 646.104L381.006 648.5L379.749 643.708H374.719H373.461V634.123L377.234 629.331H369.689L360.887 613.755L359.629 612.557L355.857 628.133H343.283L334.481 619.746L324.421 612.557L325.678 629.331L316.876 632.925L305.559 631.727L291.727 625.736L298.015 638.916V641.312L289.212 648.5L291.727 655.689H282.925H279.153L281.668 660.482L276.638 659.284L271.608 665.274L277.895 667.67L290.47 670.067L292.985 671.265V665.274L301.787 662.878L314.361 670.067L319.391 688.038L325.678 697.623V700.019L292.985 709.604H290.47L292.985 702.416L296.757 695.227L284.183 696.425L213.766 707.208L168.498 714.397L139.576 719.189L121.972 722.784L84.2489 728.774L52.8127 737.161L17.6042 746.746L15.0893 747.944L13.8319 758.727L6.28723 753.935L2.51489 747.944L1.25745 741.954V729.972L6.28723 717.991L13.8319 706.01L30.1787 697.623L84.2489 692.831L104.368 690.435L120.715 685.642L132.032 683.246L137.062 684.444L132.032 691.633L134.547 695.227L145.864 696.425L148.379 691.633L152.151 686.84L149.636 682.048H142.091V680.85L159.696 676.057L192.389 664.076H197.419V666.472L202.449 665.274H212.508L213.766 656.887L203.706 661.68H187.359L172.27 660.482L138.319 628.133L116.942 617.349L108.14 602.972L100.596 585L94.3084 559.84L93.051 549.057V526.293L98.0808 507.123L100.596 504.727L105.625 510.717L110.655 523.896L121.972 543.066L124.487 549.057L105.625 568.227L104.368 570.623L115.685 573.019L134.547 577.812H143.349L157.181 564.632L164.725 556.246L168.498 557.444L178.557 577.812L189.874 592.189L201.191 602.972L223.825 616.151L240.172 623.34L261.549 629.331H270.351L280.41 620.944L287.955 612.557L292.985 605.368L303.044 599.378L314.361 596.982L323.164 592.189H349.57L359.629 599.378L374.719 605.368L381.006 617.349L382.263 624.538L394.838 612.557L401.125 606.566L408.67 612.557L409.927 600.576L403.64 602.972L412.442 589.793L425.017 574.217H419.987L408.67 577.812L398.61 576.614L389.808 573.019L386.036 564.632L387.293 556.246L388.551 555.047H401.125L414.957 557.444H426.274L441.363 546.661L447.651 541.868L445.136 535.878L432.561 521.5L433.819 516.708L419.987 514.312L416.214 510.717L419.987 509.519L421.244 507.123L411.185 511.915L409.927 508.321H414.957V504.727L407.412 508.321L406.155 510.717L401.125 508.321L398.61 504.727V497.538L403.64 492.745L416.214 489.151L422.502 484.359L423.759 481.962H407.412L402.383 480.764L397.353 483.161L396.095 477.17L402.383 474.774L432.561 469.981L437.591 467.585L442.621 459.198L447.651 456.802Z" fill="#D5DBD1"/>
<path d="M99.3382 504.727L105.625 510.717L110.655 523.897L121.972 543.067L124.487 549.057L105.625 568.227L104.368 570.623L115.685 573.019L134.547 577.812H143.349L157.181 564.633L164.725 556.246L168.498 557.444L178.557 577.812L189.874 592.189L201.191 602.972L223.825 616.152L240.172 623.34L261.549 629.331H272.866L271.608 631.727V643.708L274.123 650.897L285.44 648.501L284.183 643.708V635.321L292.985 636.52L295.5 634.123L298.015 641.312L289.212 648.501L291.727 655.689H282.925H279.153L281.668 660.482L276.638 659.284L271.608 665.274L277.895 667.671L290.47 670.067L292.985 671.265V665.274L301.787 662.878L314.361 670.067L319.391 688.038L325.678 697.623V700.02L292.985 709.605H290.47L292.985 702.416L296.757 695.227L284.183 696.425L213.766 707.208L168.498 714.397L139.576 719.189L121.972 722.784L84.2489 728.774L52.8127 737.161L17.6042 746.746L15.0893 747.944L13.8319 758.727L6.28723 753.935L2.51489 747.944L1.25745 741.954V729.973L6.28723 717.991L13.8319 706.01L30.1787 697.623L84.2489 692.831L104.368 690.435L120.715 685.642L132.032 683.246L137.062 684.444L132.032 691.633L134.547 695.227L145.864 696.425L148.379 691.633L152.151 686.84L149.636 682.048H142.091V680.85L159.696 676.057L192.389 664.076H197.419V666.472L202.449 665.274H212.508L213.766 656.887L203.706 661.68H187.359L172.27 660.482L138.319 628.133L116.942 617.35L108.14 602.972L100.596 585.001L94.3084 559.84L93.051 549.057V526.293L98.0808 507.123L99.3382 504.727Z" fill="#DCD8C5"/>
<path d="M359.629 611.359L364.659 617.349L369.689 626.934V629.331H377.234L374.719 634.123V642.51H379.749L382.263 644.906L381.006 649.699L379.749 647.302L373.461 648.5L372.204 652.095V664.076L373.461 677.255L383.521 676.057L384.778 674.859L386.036 661.68L392.323 666.472L394.838 673.661H411.185L422.502 703.614L428.789 725.18L431.304 731.17L445.136 719.189L448.908 717.991L446.393 725.18L442.621 733.567L448.908 728.774L451.423 729.972L443.878 739.557L452.68 734.765L450.166 739.557L447.651 743.152L452.68 741.953L448.908 745.548L440.106 749.142L436.334 755.133L427.531 759.925L422.502 757.529L413.7 758.727L386.036 770.708L370.946 769.51L336.995 763.52L314.361 756.331L308.074 752.737L315.619 744.35L320.649 738.359L306.817 743.152L304.302 741.953L315.619 731.17H318.134L316.876 728.774L304.302 731.17H298.015L299.272 726.378L270.351 733.567L252.747 738.359H187.359L165.983 737.161H130.774L118.2 739.557L111.913 743.152L110.655 747.944L88.0212 753.935L51.5553 762.321L28.9213 767.114L17.6042 765.916L11.317 763.52L6.28723 756.331L7.54468 753.935L12.5745 757.529L13.8319 747.944L22.634 744.35L75.4467 729.972L90.5361 726.378L128.259 720.387L149.636 716.793L173.527 712.001L245.202 701.218L284.183 695.227L289.212 694.029H298.015L290.47 709.604L316.876 701.218L325.678 700.019L319.391 689.236L315.619 678.453L314.361 670.067L306.817 667.67L301.787 664.076L294.242 665.274L292.985 671.265L277.895 668.868L271.608 665.274L274.123 660.482L279.153 658.085L277.895 653.293L290.47 654.491L287.955 648.5L295.5 641.312H298.015L291.727 629.331V625.736L303.044 629.331L309.332 631.727L320.649 630.529L324.421 629.331V612.557L329.451 614.953L343.283 626.934L355.857 628.133L358.372 612.557L359.629 611.359Z" fill="#7098A3"/>
<path d="M515.553 728.774L521.84 729.973L531.899 739.557H540.702L546.989 738.359H555.791L549.504 762.322L539.444 774.303L535.672 779.095L492.919 781.491L465.255 795.869L445.136 805.454L431.304 828.218L427.531 834.209L425.017 841.397L411.185 846.19H391.065V821.029L387.293 827.02L368.431 846.19L363.402 847.388L350.827 843.793L335.738 842.595L318.134 836.605L311.846 831.812L310.589 829.416V811.444L315.619 800.661L329.451 791.076L350.827 783.888L357.114 782.69L360.887 785.086H375.976L377.234 780.293L378.491 777.897L373.461 775.501L409.927 758.727L416.214 756.331L425.017 757.529L428.789 758.727L436.334 753.935L440.106 747.944L447.651 744.35V740.756L451.423 738.359L458.968 739.557L480.344 729.973L500.463 733.567L508.008 732.369L515.553 728.774Z" fill="#E3DCC9"/>
<path d="M447.651 456.802H471.542L486.632 458L480.344 463.991L476.572 467.585L489.146 465.189L487.889 459.198L494.176 460.396V469.981L491.661 474.774H481.602L477.829 472.378L469.027 473.576L460.225 478.368H453.938V480.764L461.483 483.161L466.512 485.557H479.087L486.632 484.359L485.374 490.349L477.829 496.34L457.71 501.132H455.195L457.71 510.717V515.51L490.404 519.104L492.919 522.698H499.206H502.978L500.463 527.491L502.978 534.68H509.266V544.264L510.523 547.859L504.236 546.661L494.176 549.057L492.919 562.236L497.949 564.632H485.374L484.117 563.434H466.512L456.453 567.029L435.076 570.623H430.046L431.304 582.604L436.334 592.189L440.106 601.774L443.878 610.161L442.621 628.133L438.849 653.293L436.334 666.472L432.561 662.878L425.017 650.897L423.759 647.302H421.244L417.472 659.284L412.442 671.265H408.67L394.838 653.293L386.036 642.51L381.006 636.519L383.521 635.321L401.125 634.123L411.185 632.925L407.412 614.953L409.927 600.576L403.64 602.972L412.442 589.793L425.017 574.217H419.987L408.67 577.812L398.61 576.614L389.808 573.019L386.036 564.632L387.293 556.246L388.551 555.047H401.125L414.957 557.444H426.274L441.363 546.661L447.651 541.868L445.136 535.878L432.561 521.5L433.819 516.708L419.987 514.312L416.215 510.717L419.987 509.519L421.244 507.123L411.185 511.915L409.927 508.321H414.957V504.727L407.412 508.321L406.155 510.717L401.125 508.321L398.61 504.727V497.538L403.64 492.745L416.215 489.151L422.502 484.359L423.759 481.962H407.412L402.383 480.764L397.353 483.161L396.095 477.17L402.383 474.774L432.561 469.981L437.591 467.585L442.621 459.198L447.651 456.802Z" fill="#DBDED4"/>
<path d="M299.272 662.878L305.559 665.274L314.361 670.067L319.391 688.038L325.678 697.623V700.02L292.985 709.604H290.47L292.985 702.416L296.757 695.227L284.183 696.425L213.766 707.208L168.498 714.397L139.576 719.189L121.972 722.784L84.2489 728.774L52.8127 737.161L17.6042 746.746L15.0893 747.944L13.8319 758.727L6.28723 753.935L2.51489 747.944L1.25745 741.954V729.972L6.28723 717.991L13.8319 706.01L30.1787 697.623L84.2489 692.831L104.368 690.435L120.715 685.642L132.032 683.246L137.062 684.444L132.032 691.633L134.547 695.227H150.893L173.527 690.435V692.831L178.557 695.227L181.072 698.821L194.904 700.02L197.419 695.227L202.449 689.236L204.964 688.038L206.221 684.444L225.083 680.85L246.459 677.255L270.351 672.463L280.41 671.265H292.985V665.274L299.272 662.878Z" fill="#E7E6D9"/>
<path d="M573.395 752.737L580.94 753.935L601.059 763.52L607.346 769.51V771.906H609.861L612.376 776.699V786.284L608.604 791.076H606.089L603.574 795.869L582.197 806.652L563.336 812.642L552.019 815.039L530.642 821.029L497.948 828.218L475.314 834.208L441.363 842.595L411.185 849.784H359.629L331.966 846.19L316.876 842.595L313.104 840.199V837.803H324.421L335.738 841.397L350.827 842.595L363.402 846.19L368.431 844.991L378.491 835.407L387.293 825.822L391.066 818.633L392.323 823.425L391.066 846.19L411.185 844.991L422.502 841.397H425.017L427.531 831.812L438.848 813.84L445.136 804.256L475.314 789.878L492.919 780.293L535.672 777.897L545.731 765.916L552.019 767.114L567.108 777.897L578.425 785.086L573.395 759.925V752.737Z" fill="#1A2840"/>
<path d="M359.629 611.359L364.659 617.349L369.689 626.934V629.331H377.234L374.719 634.123V642.51H379.749L382.263 644.906L381.006 649.699L379.749 647.302L373.461 648.5L372.204 652.095V664.076L377.234 697.623L381.006 714.397L404.898 726.378L408.67 728.774L411.185 722.784L414.957 719.189V738.359L403.64 752.737L399.868 751.538L396.095 746.746V744.35L381.006 740.755L367.174 734.765L347.055 727.576L340.768 722.784L321.906 692.831L316.876 684.444L314.361 674.859V670.067L306.817 667.67L301.787 664.076L294.242 665.274L292.985 671.265L277.896 668.868L271.608 665.274L274.123 660.482L279.153 658.085L277.896 653.293L290.47 654.491L287.955 648.5L295.5 641.312H298.015L291.727 629.331V625.736L303.044 629.331L309.332 631.727L320.649 630.529L324.421 629.331V612.557L329.451 614.953L343.283 626.934L355.857 628.133L358.372 612.557L359.629 611.359Z" fill="#5A8191"/>
<path d="M514.295 617.35L525.612 618.548L535.672 622.142L531.899 636.519L530.642 640.114L504.236 654.491L505.493 667.67L514.295 707.208L518.068 720.388V725.18L510.523 723.982L499.206 717.991L492.919 719.189L477.829 732.369L458.968 740.756L451.423 739.557V735.963L442.621 740.756L445.136 735.963L450.166 729.972L441.363 734.765L443.878 727.576L447.651 719.189L436.334 726.378L438.849 719.189L442.621 712.001L435.076 717.991L436.334 713.199L440.106 706.01L432.561 712.001H430.046L431.304 697.623L435.076 668.869L451.423 656.887L456.453 653.293H460.225V650.897L482.859 635.321L500.463 624.538L514.295 617.35Z" fill="#F9FBEC"/>
<path d="M299.272 725.18L301.787 726.378L298.014 731.171L319.391 727.576L318.134 731.171L308.074 739.557L306.817 741.954L319.391 737.161L321.906 738.359L309.331 751.538L314.361 755.133L336.995 762.322L370.946 768.312L383.521 770.708L381.006 773.105H324.421L310.589 770.708L262.806 765.916L215.023 762.322L163.468 757.529L145.864 756.331H110.655L84.2487 761.123L35.2084 768.312H7.54456L8.802 764.718H17.6041L28.9211 765.916L66.6445 757.529L98.0806 750.34L110.655 747.944L111.913 741.954L118.2 738.359L130.774 735.963H165.983L187.359 737.161H252.746L286.697 728.774L299.272 725.18Z" fill="#032441"/>
<path d="M349.57 786.284L362.144 787.482L375.976 789.878V792.275L387.293 794.671L402.383 795.869L403.64 792.275L406.155 800.661L413.7 801.859L443.878 803.058L445.136 805.454L431.304 828.218L427.531 834.209L425.017 841.397L411.185 846.19H391.066V821.029L387.293 827.02L368.431 846.19L363.402 847.388L350.827 843.793L335.738 842.595L318.134 836.605L311.846 831.812L310.589 829.416V811.444L315.619 800.661L329.451 791.076L339.51 787.482L349.57 786.284Z" fill="#E8E6D9"/>
<path d="M183.587 710.803H193.647L212.508 719.19L250.232 734.765L255.261 733.567L265.321 723.982L272.866 715.595L287.955 710.803L285.44 717.991L309.332 714.397H315.619L310.589 720.388L301.787 726.378L281.668 731.171L252.747 738.359H187.359L165.983 737.161H130.774L118.2 739.558L111.913 743.152L110.655 747.944L88.0212 753.935L51.5553 762.322L28.9213 767.114L17.6042 765.916L11.317 763.52L6.28723 756.331L7.54468 753.935L12.5745 757.529L13.8319 747.944L22.634 744.35L75.4467 729.973L90.5361 726.378L128.259 720.388L149.636 716.793L173.528 712.001L183.587 710.803Z" fill="#68909E"/>
<path d="M592.257 606.567H594.772L598.544 612.557V625.736L597.287 646.104L596.029 650.897V664.076L599.802 683.246V691.633L590.999 716.793L578.425 734.765L573.395 741.954H570.88L567.108 725.18L563.336 704.812L554.534 676.057L530.642 661.68L526.87 659.284L502.978 655.689L506.751 652.095L528.127 640.114L549.504 638.916L572.138 622.142L588.485 610.161L592.257 606.567Z" fill="#1E2E44"/>
<path d="M563.336 525.095L565.851 527.491L580.94 573.019L585.97 580.208L596.029 590.991L599.802 604.17V613.755L594.772 608.963V606.567L580.94 617.35L554.534 636.519L549.504 640.114H530.642L533.157 628.133L535.672 622.142L521.84 618.548H514.295L491.661 630.529L484.117 632.925H480.344L476.572 635.321L457.71 632.925L460.225 628.133L482.859 612.557L489.146 608.963H491.661V606.567L481.602 605.368L467.77 600.576L451.423 589.793L446.393 587.397L442.621 580.208L436.334 574.217V571.821H445.136L458.968 581.406L475.314 586.199H486.631L491.661 598.18L495.434 608.963L500.463 610.161L497.948 613.755L499.206 618.548H508.008V610.161L505.493 606.567L510.523 604.17L509.265 607.765L513.038 606.567L519.325 607.765V605.368L524.355 604.17L528.127 610.161L536.929 608.963L541.959 593.387L544.474 592.189L550.761 590.991L552.019 585.001L548.246 581.406L549.504 571.821L553.276 557.444L564.593 555.048L568.365 553.85L563.336 531.085V525.095Z" fill="#8A9796"/>
<path d="M560.821 473.576L567.108 474.774L573.395 479.566L574.653 489.151L562.078 508.321L558.306 513.113L553.276 514.312H540.702V539.472L538.187 551.453L535.672 558.642L523.097 573.019L510.523 579.01L486.631 586.199L475.314 587.397L456.453 581.406L445.136 573.019L436.334 571.821L446.393 583.802L447.651 587.397L458.968 593.387L467.77 599.378V601.774L458.968 606.567L446.393 610.161H442.621L437.591 598.18L430.046 582.604V570.623L441.363 568.227L456.453 565.831L467.77 562.236H484.117L485.374 563.434H492.919L491.661 558.642L492.919 549.057L504.236 545.463L510.523 547.859L508.008 543.066L509.265 534.68H502.978L499.206 527.491L501.721 522.698L505.493 521.5L519.325 523.897L509.265 513.113L508.008 509.519L509.265 504.727L506.751 498.736H516.81L520.582 497.538L535.672 502.33L541.959 510.717L554.534 499.934H557.048L559.563 495.142L562.078 490.349V485.557L555.791 486.755L536.929 495.142H531.899L529.385 490.349V486.755L555.791 475.972L560.821 473.576Z" fill="#CBD4CA"/>
<path d="M502.978 655.689L526.87 658.086L555.791 676.057L565.85 709.605L574.653 759.925L578.425 779.095V785.086L573.395 782.69L565.85 777.897L549.504 767.114L546.989 764.718L554.533 739.557L531.899 740.756L520.582 729.972L513.038 731.171L505.493 734.765L485.374 732.369L480.344 731.171L482.859 726.378L494.176 716.793L501.721 717.991L513.038 723.982L518.067 725.18L510.523 695.227L502.978 661.68V655.689Z" fill="#8A9898"/>
<path d="M299.272 662.878L305.559 665.274L314.361 670.067L319.391 688.038L325.678 697.623V700.02L292.985 709.604H290.47L292.985 702.416L296.757 695.227L284.183 696.425L213.766 707.208L168.498 714.397L139.577 719.189L128.26 721.586H120.715L121.972 715.595L132.032 697.623L150.894 695.227L173.528 690.435V692.831L178.557 695.227L181.072 698.821L194.904 700.02L197.419 695.227L202.449 689.236L204.964 688.038L206.221 684.444L225.083 680.85L246.459 677.255L270.351 672.463L280.41 671.265H292.985V665.274L299.272 662.878Z" fill="#F9FBEB"/>
<path d="M289.212 694.029H298.015L290.47 709.604L316.876 701.218L326.936 698.821L339.51 719.189L344.54 725.18L362.144 732.369L370.946 741.954L374.719 745.548L399.868 755.133L401.125 757.529H370.946L347.055 740.755L343.283 738.359L336.995 739.557L311.846 752.737L308.074 751.538L316.876 743.152L319.391 738.359L306.817 743.152L304.302 741.954L315.619 731.171H318.134L316.876 728.774L304.302 731.171H298.015L300.529 726.378L314.361 715.595L304.302 716.793L295.5 717.991H285.44L286.698 712.001L272.866 716.793L255.261 734.765L250.232 735.963L212.508 720.387L199.934 714.397L189.874 710.803V709.604L269.093 697.623L289.212 694.029Z" fill="#9CB8B8"/>
<path d="M261.549 631.727H270.351L272.866 649.699L275.381 650.897L285.44 648.501L284.183 643.708V635.321L292.985 636.52L295.5 634.123L298.015 641.312L289.213 648.501L291.727 655.689H282.925H279.153L281.668 660.482L276.638 659.284L271.608 665.274L277.896 667.671L290.47 670.067V671.265L256.519 676.057L235.142 680.85L212.508 684.444H206.221L204.964 689.237L198.676 695.227L194.904 700.02H181.072L176.042 694.029L172.27 691.633L150.894 696.425H145.864L148.379 691.633L152.151 686.84L149.636 682.048H142.091V680.85L159.696 676.057L192.389 664.076H197.419V666.472L202.449 665.274H212.508L213.766 656.887L226.34 649.699L232.628 647.303H237.657V644.906L242.687 643.708L255.262 637.718L257.776 632.925L261.549 631.727Z" fill="#E2DDC9"/>
<path d="M574.653 483.161L577.167 487.953L578.425 493.944L564.593 522.698V531.085L568.365 546.661V553.849L564.593 556.246L553.276 557.444L552.019 568.227L549.504 575.416V581.406L553.276 585L552.019 590.991L549.504 593.387H543.216L540.702 599.378L538.187 608.963L534.414 611.359H528.127L523.097 605.368H519.325V607.765H509.265L508.008 605.368V608.963L509.265 610.161L508.008 618.548L499.206 619.746L496.691 617.35L497.948 611.359L499.206 610.161L495.433 608.963L489.146 594.585L486.631 585L513.038 576.614L523.097 571.821L535.672 557.444L538.187 549.057L539.444 539.472L540.702 514.312L558.306 511.915L572.138 491.547L574.653 483.161Z" fill="#2E4155"/>
<path d="M573.395 752.737L580.94 753.935L601.059 763.52L607.346 769.51V771.906H609.861L612.376 776.699V786.284L608.604 791.076H606.089L603.574 795.869L582.197 806.652L563.336 812.642L552.019 815.039L530.642 821.029L497.949 828.218L475.315 834.208L441.364 842.595L423.759 846.19V843.793L433.819 839.001L436.334 836.605L463.998 829.416L485.374 824.624L494.176 823.425L526.87 815.039L536.929 812.642H500.463L499.206 821.029H497.949V810.246H548.246L538.187 786.284L535.672 781.491L536.929 775.501L545.731 765.916L552.019 767.114L567.108 777.897L578.425 785.086L573.395 759.925V752.737Z" fill="#042D4C"/>
<path d="M359.629 611.359L364.659 617.349L369.689 626.934V629.331H377.234L374.719 634.123V642.51H379.749L382.263 644.906L381.006 649.699L379.749 647.302L373.461 648.5L370.946 656.887H369.689V648.5L370.946 637.717L365.917 641.312L360.887 661.68L349.57 672.463L343.283 671.265L331.966 667.67L309.332 668.868L301.787 664.076L294.242 665.274L292.985 671.265L277.896 668.868L271.608 665.274L274.123 660.482L279.153 658.085L277.896 653.293L290.47 654.491L287.955 648.5L295.5 641.312H298.015L291.727 629.331V625.736L303.044 629.331L309.332 631.727L320.649 630.529L324.421 629.331V612.557L329.451 614.953L343.283 626.934L355.857 628.133L358.372 612.557L359.629 611.359Z" fill="#7699A3"/>
<path d="M499.206 462.793L505.493 463.991L509.265 465.189L513.038 475.972L515.553 474.774V468.784L521.84 471.18L531.899 477.17H540.701L552.018 474.774L557.048 475.972L546.989 480.765L533.157 486.755H529.384L531.899 495.142L544.474 490.35L558.306 484.359L563.336 485.557L562.078 492.746L557.048 499.935L546.989 508.321L540.701 511.916L535.672 503.529L520.582 498.736L518.067 497.538L516.81 501.133V498.736L508.008 499.935L510.523 504.727L509.265 510.718L519.325 522.699L520.582 525.095L500.463 522.699L499.206 523.897H492.919L490.404 520.303L460.225 516.708L457.71 515.51L455.195 501.133L477.829 495.142L485.374 489.152L486.631 484.359L479.087 486.755H466.512L453.938 480.765V478.368L465.255 474.774L471.542 471.18L480.344 472.378L481.602 473.576L491.661 474.774L494.176 467.585L500.463 469.982L499.206 462.793Z" fill="#E5E3D2"/>
<path d="M149.636 472.378L167.24 473.576L179.815 477.17L192.389 483.161L201.191 491.548L206.221 501.132V519.104L198.676 531.085L189.874 538.274L179.815 541.868H171.013L159.696 538.274L152.151 523.897L149.636 517.906V499.934L144.606 490.349L145.864 480.764L149.636 472.378Z" fill="#F9FCEE"/>
<path d="M285.44 371.736H301.787L311.847 376.529L321.906 387.312L324.421 392.104V410.076L319.391 419.661L313.104 425.651L304.302 430.444L299.272 431.642H286.698L274.123 425.651L266.578 417.264L262.806 408.878V393.302L269.093 381.321L279.153 374.132L285.44 371.736Z" fill="#F8FCEE"/>
<path d="M323.164 592.189H349.57L359.629 599.378L374.719 605.368L379.749 614.953V619.746L367.174 617.35V619.746H364.659L359.629 612.557L355.857 628.133H343.283L334.481 619.746L324.421 612.557L325.678 629.331L316.876 632.925L305.559 631.727L291.727 625.736L294.242 631.727L292.985 637.718L284.183 635.321L286.698 649.699L274.123 652.095L271.608 649.699L270.351 643.708V631.727L281.668 619.746L287.955 612.557L292.985 605.368L303.044 599.378L314.361 596.982L323.164 592.189Z" fill="#F6F9EC"/>
<path d="M99.3383 504.727L105.625 510.717L110.655 523.897L121.972 543.067L124.487 549.057L105.625 568.227L104.368 570.623L115.685 573.019L143.349 580.208L145.864 586.199L144.606 594.585L137.062 625.736H142.091L145.864 631.727L144.606 634.123L135.804 626.935L116.942 617.35L108.14 602.972L100.596 585.001L94.3085 559.84L93.051 549.057V526.293L98.0808 507.123L99.3383 504.727Z" fill="#DEDAC7"/>
<path d="M427.532 577.812L430.046 579.01L436.334 592.189L440.106 601.774L443.878 610.161L442.621 628.133L438.849 653.293L436.334 666.472L432.561 662.878L425.017 650.897L423.759 647.302H421.244L417.472 659.284L412.442 671.265H408.67L394.838 653.293L386.036 642.51L381.006 636.519L383.521 635.321L401.125 634.123L411.185 632.925L407.412 614.953L409.927 600.576L403.64 602.972L411.185 592.189L418.729 588.595L427.532 577.812Z" fill="#FAFCED"/>
<path d="M140.834 487.953L145.864 490.349L150.894 499.934V517.906L159.696 535.878V538.274L164.725 539.472L165.983 546.661V556.246L147.121 575.416L143.349 579.01H134.547L108.14 571.821L104.368 570.623L106.883 565.831L115.685 557.444L124.487 547.859L150.894 546.661L158.438 540.67L144.606 535.878L127.002 528.689L109.398 514.312V510.717L123.23 499.934L140.834 487.953Z" fill="#06061E"/>
<path d="M299.272 725.18L301.787 726.378L298.015 731.171L319.391 727.576L318.134 731.171L308.074 739.557L306.817 741.954L319.391 737.161L321.906 738.359L309.332 751.538L314.362 755.133L336.996 762.322L370.947 768.312L383.521 770.708L381.006 773.105H324.421L310.589 770.708L262.806 765.916V764.718H269.093V761.123L246.459 758.727L252.747 753.935L259.034 749.142L256.519 743.152L252.747 739.557V737.161L286.698 728.774L299.272 725.18Z" fill="#042948"/>
<path d="M84.249 692.831H101.853L108.14 694.029L114.428 710.803L116.943 719.19L105.626 715.595L80.4766 707.208H70.4171L47.7831 715.595L31.4363 720.388L17.6044 722.784L47.7831 726.378L46.5256 728.775L17.6044 733.567H11.3171L12.5746 744.35L7.5448 741.954L2.51501 738.359V725.18L12.5746 707.208L25.149 700.02L30.1788 697.624L84.249 692.831Z" fill="#F6FAEC"/>
<path d="M349.57 786.284L362.144 787.482L375.976 789.878V792.275L387.293 794.671L401.125 795.869L397.353 799.463L377.234 809.048L363.402 816.237L359.629 821.029L352.085 840.199L349.57 837.803L348.312 818.633L334.48 824.624L330.708 823.426L323.163 812.642L320.649 811.444L316.876 823.426L313.104 830.614L310.589 829.416V811.444L315.619 800.661L329.451 791.076L339.51 787.482L349.57 786.284Z" fill="#F7FAEC"/>
<path d="M320.649 688.039L330.708 695.227L347.055 706.01L354.6 704.812L358.372 702.416H368.431L377.234 703.614L381.006 714.397L404.897 726.378L408.67 728.775L411.185 722.784L414.957 719.19V738.359L403.64 752.737L399.868 751.539L396.095 746.746V744.35L381.006 740.756L367.174 734.765L347.055 727.576L340.768 722.784L321.906 692.831L320.649 688.039Z" fill="#5C8595"/>
<path d="M516.81 779.095H535.672L543.216 795.869L548.246 807.85V810.246H497.948V821.029L489.146 813.841L470.285 795.869L467.77 793.473L492.919 780.293L516.81 779.095Z" fill="#33475A"/>
<path d="M292.985 786.284H328.193L329.451 792.275L315.619 801.859L310.589 816.237H284.183L250.232 812.642L237.657 807.85L238.915 801.859L245.202 797.067L254.004 795.869V792.275L256.519 791.076H267.836V787.482L292.985 786.284Z" fill="#02304E"/>
<path d="M447.651 456.802H471.542L486.631 458L480.344 463.991L476.572 467.585L489.146 465.189L487.889 459.198L494.176 460.396V469.981L491.661 474.774H481.602L477.829 472.378L469.027 473.576L460.225 478.368H453.938V480.764L461.483 483.161L466.512 485.557H479.087L486.631 484.359L485.374 490.349L477.829 496.34L465.255 499.934H448.908L441.363 497.538L442.621 492.745L447.651 485.557L451.423 480.764L422.502 481.962H407.412L402.383 480.764L397.353 483.161L396.095 477.17L402.383 474.774L432.561 469.981L437.591 467.585L442.621 459.198L447.651 456.802Z" fill="#F0F4E9"/>
<path d="M596.029 638.916H597.287L596.029 650.897V664.076L599.801 683.246V691.633L590.999 716.793L578.425 734.765L573.395 741.954H570.88L567.108 725.18L564.593 706.01L570.88 689.237L585.97 656.887L596.029 638.916Z" fill="#111D36"/>
<path d="M111.913 722.784H116.942L115.685 732.369L113.17 739.557L96.8233 743.152L60.3574 750.34L41.4957 756.331L26.4064 758.727L22.634 761.123L36.4659 762.322L38.9808 763.52L28.9213 767.114L17.6042 765.916L11.317 763.52L6.28723 756.331L7.54468 753.935L12.5745 757.529L13.8319 747.944L22.634 744.35L75.4467 729.972L90.5361 726.378L111.913 722.784Z" fill="#6A93A1"/>
<path d="M402.383 799.463L413.7 801.859L443.878 803.057L445.136 805.454L431.304 828.218L427.531 834.208L425.017 841.397L411.185 846.19H391.066V823.425L394.838 812.642L402.383 799.463Z" fill="#E2E3D7"/>
<path d="M328.193 704.812H330.708L342.025 722.784L347.055 726.378L362.144 732.369L370.946 741.954L374.719 745.548L399.868 755.133L401.125 757.529H370.946L347.055 740.756L343.283 738.359L336.995 739.557L311.847 752.737L308.074 751.539L316.876 743.152L319.391 738.359L306.817 743.152L304.302 741.954L315.619 731.171H318.134L316.876 728.774L304.302 731.171H298.015L300.53 726.378L314.361 715.595L328.193 704.812Z" fill="#CCD6CE"/>
<path d="M399.868 606.567L408.67 612.557L409.927 623.34L411.185 632.925L401.125 635.321L383.521 636.52V638.916L394.838 650.897L408.67 670.067L409.927 672.463L399.868 671.265L391.065 666.472L387.293 662.878L386.036 674.859L383.521 677.255H373.461L370.946 664.076V652.095L374.719 646.104L381.006 648.501L379.748 643.708H374.719H373.461V634.123L377.234 629.331H369.689L365.917 622.142L367.174 617.35L379.748 619.746L381.006 617.35L382.263 624.538L394.838 612.557L399.868 606.567Z" fill="#E2DECB"/>
<path d="M448.908 540.67L455.195 546.661L466.512 561.038L465.255 564.632L452.681 568.227L430.046 570.623V579.01L425.017 581.406L417.472 590.991L412.442 589.793L425.017 574.217H419.987L408.67 577.812L398.61 576.614L389.808 573.019L386.036 564.632L387.293 556.246L388.551 555.048H401.125L414.957 557.444H426.274L441.363 546.661L448.908 540.67Z" fill="#BECDC4"/>
<path d="M397.353 502.331L402.383 508.321L406.155 510.717L407.412 507.123L411.185 504.727H414.957V508.321H409.927L411.185 510.717L417.472 507.123H421.244L418.729 511.915L430.046 515.51L433.819 516.708L435.076 522.699L448.908 539.472L446.393 544.265L426.274 558.642H414.957L389.808 555.048V551.453H399.868L402.383 552.651L403.64 549.057L414.957 544.265L421.244 541.868L428.789 529.887L414.957 532.283L407.412 533.482L397.353 520.302L393.581 513.114V507.123L397.353 502.331Z" fill="#080718"/>
<path d="M142.091 472.378H149.636L145.864 484.359L143.349 489.151L137.062 491.548L121.972 502.331L109.398 511.915L114.428 517.906L129.517 528.689L148.379 535.878L159.696 539.472L153.408 545.463L150.894 547.859H124.487L111.913 528.689L105.625 515.51L101.853 507.123L99.3383 503.529H101.853L104.368 497.538L106.883 496.34L109.398 490.349L114.428 489.151L116.942 484.359H120.715V481.963H124.487V479.566L135.804 474.774L142.091 472.378Z" fill="#516977"/>
<path d="M563.336 525.095L565.851 527.491L580.94 573.019L585.97 580.208L596.029 590.991L599.802 604.17V613.755L594.772 608.963V606.567L580.94 617.35L578.425 618.548L574.653 600.576V594.585H565.851L562.078 590.991L563.336 585.001L568.366 579.01L562.078 576.614L558.306 571.821L552.019 575.416H549.504L552.019 562.236L553.276 557.444L564.593 555.048L568.366 553.85L563.336 531.085V525.095Z" fill="#798D92"/>
<path d="M313.104 378.924L319.391 383.717L324.421 392.104V410.075L319.391 419.66L313.104 425.651L304.302 430.443L299.272 431.641H286.698L274.123 425.651L266.579 417.264L264.064 410.075H284.183L299.272 404.085L309.332 394.5L313.104 386.113V378.924Z" fill="#BFD2CA"/>
<path d="M436.334 571.821H445.136L458.968 581.406L475.314 586.199H486.631L491.661 598.18L495.434 608.963L500.463 610.161L497.948 613.755L499.206 618.548L509.265 619.746L505.493 623.34L491.661 630.529L484.117 632.925H480.344L476.572 635.321L457.71 632.925L460.225 628.133L482.859 612.557L489.146 608.963H491.661V606.567L481.602 605.369L467.77 600.576L451.423 589.793L446.393 587.397L442.621 580.208L436.334 574.218V571.821Z" fill="#8F9C99"/>
<path d="M348.312 640.114L362.144 641.312H365.917L360.887 661.68L349.57 672.463L343.283 671.265L331.966 667.67L309.332 668.869L301.787 664.076L304.302 658.086L309.332 649.699L319.391 648.501L325.678 642.51H342.025L348.312 640.114Z" fill="#040419"/>
<path d="M560.821 473.576L567.108 474.774L573.395 479.566L574.653 489.151L562.078 508.321L558.306 513.113L553.276 514.312H540.702V529.887L526.87 527.491L521.84 526.293L519.325 517.906L518.068 508.321V497.538L533.157 501.132L539.444 507.123L541.959 510.717L554.534 499.934H557.049L559.563 495.142L562.078 490.349V485.557L555.791 486.755L536.929 495.142H531.9L529.385 490.349V486.755L555.791 475.972L560.821 473.576Z" fill="#F1F4EA"/>
<path d="M486.631 487.953L491.661 492.746L495.433 498.736V501.132H497.948L500.463 495.142L504.236 492.746L510.523 504.727L509.265 510.717L519.325 522.698L520.582 525.095L500.463 522.698L499.206 523.897H492.919L490.404 520.302L460.225 516.708L457.71 515.51L455.195 501.132L477.829 495.142L486.631 487.953Z" fill="#4F6875"/>
<path d="M441.364 479.566H452.681L447.651 486.755L442.621 493.944L445.136 513.113L443.878 520.302H441.364V517.906L438.849 519.104L440.106 522.698V528.689L433.819 522.698L432.561 519.104L433.819 516.708L419.987 514.312L416.215 510.717L419.987 509.519L421.244 507.123L411.185 511.915L409.927 508.321H414.957V504.727L407.412 508.321L406.155 510.717L401.125 508.321L398.61 504.727V497.538L403.64 492.745L416.215 489.151L422.502 484.359V480.764L441.364 479.566Z" fill="#CFCFC0"/>
<path d="M386.036 661.68L392.323 666.472L394.838 673.661H411.185L402.383 692.831L399.868 698.822L401.125 710.803L406.155 722.784L404.898 727.576L379.749 714.397L374.719 690.435L373.461 677.255L383.521 676.057L384.778 674.859L386.036 661.68Z" fill="#A0B9B8"/>
<path d="M501.721 654.491H502.978L510.523 690.435L518.067 720.388V725.18L510.523 723.982L495.433 716.793L485.374 688.038L482.859 682.048V676.057L492.919 665.274L501.721 654.491Z" fill="#AFB6AB"/>
<path d="M299.272 725.18L301.787 726.378L298.015 731.171L319.391 727.576L318.134 731.171L308.074 739.557L306.817 741.954L319.391 737.161L321.906 738.359L308.074 752.737L301.787 747.944L291.728 735.963L287.955 737.161L281.668 747.944L289.213 757.529V759.925H256.519L246.459 758.727L252.747 753.935L259.034 749.142L256.519 743.152L252.747 739.557V737.161L286.698 728.774L299.272 725.18Z" fill="#2C4154"/>
<path d="M545.731 765.916L552.019 767.114L567.108 777.897L577.168 785.086L578.425 786.284L577.168 798.265L572.138 805.454L549.504 810.246L545.731 805.454L538.187 786.284L535.672 781.491L536.929 775.501L545.731 765.916Z" fill="#1C2941"/>
<path d="M187.359 775.501H231.37L248.974 777.897L255.262 781.491L254.004 785.086L243.945 787.482L218.796 789.878H179.815L153.408 787.482L149.636 785.086L150.894 781.491L165.983 777.897L187.359 775.501Z" fill="#022F4E"/>
<path d="M443.878 805.454H445.136L443.878 831.812L479.087 824.624H485.374L480.344 827.02L453.938 833.01L436.334 837.803L427.531 843.793H423.759V846.19L411.185 849.784H359.629L331.966 846.19L316.876 842.595L313.104 840.199V837.803H324.421L335.738 841.397L350.827 842.595L363.402 846.19L368.431 844.992L378.491 835.407L387.293 825.822L391.066 818.633L392.323 823.425L391.066 846.19L411.185 844.992L422.502 841.397H425.017L427.531 831.812L438.848 813.841L443.878 805.454Z" fill="#09243E"/>
<path d="M99.3383 504.727L105.625 510.717L110.655 523.897L121.972 543.067L124.487 549.057L105.625 568.227L103.111 570.623L96.8234 561.038L94.3085 559.84L93.051 549.057V526.293L98.0808 507.123L99.3383 504.727Z" fill="#B4B9AD"/>
<path d="M130.774 735.963H165.983L187.359 737.161L193.647 738.359L199.934 744.35L211.251 750.34L209.993 752.737L204.964 751.539H193.647L188.617 750.34L162.211 749.142L160.953 747.944H152.151L150.894 749.142H132.032L106.883 751.539L108.14 747.944H110.655L111.913 741.954L118.2 738.359L130.774 735.963Z" fill="#02041F"/>
<path d="M467.77 600.576L479.087 602.972L491.661 606.567V608.963L474.057 619.746L453.938 634.123L442.621 642.51H440.106L443.878 610.161L453.938 606.567L462.74 602.972L467.77 600.576Z" fill="#D8DDD1"/>
<path d="M145.864 588.595L157.181 589.793L172.27 593.387V604.17L169.755 618.548L142.091 625.737H137.062L138.319 616.152L144.606 590.991L145.864 588.595Z" fill="#0C1A33"/>
<path d="M320.649 811.444L325.678 813.841L331.966 823.425L343.283 819.831L348.312 818.633L350.827 837.803L353.342 834.209L358.372 823.425L360.887 824.624L365.917 847.388L350.827 843.793L335.738 842.595L318.134 836.605L311.847 830.614L318.134 817.435L320.649 811.444Z" fill="#7DA0A9"/>
<path d="M118.2 723.982L121.972 725.18L130.774 735.963V737.161L118.2 739.557L111.913 743.152L110.655 747.944L88.0212 753.935L51.5553 762.322L37.7234 764.718L36.4659 763.52L22.634 762.322V758.727L46.5255 753.935L65.3872 747.944L104.368 740.756L113.17 739.557L115.685 728.774L118.2 723.982Z" fill="#466E85"/>
<path d="M164.725 556.246L168.498 557.444L178.557 577.812L181.072 582.604L172.27 593.387L150.893 589.793L145.864 588.595L143.349 580.208L139.576 579.01L145.864 575.415L157.181 564.632L164.725 556.246Z" fill="#C5C6B7"/>
<path d="M393.581 771.906H417.472L416.215 781.491H403.64V789.878L402.383 795.869H387.293L374.719 793.473L375.976 789.878L362.144 788.68L349.57 787.482L344.54 786.284L353.342 782.69L359.63 783.888L360.887 785.086H375.976L377.234 780.293L378.491 777.897L373.461 775.501L377.234 774.303L389.808 773.105L393.581 771.906Z" fill="#C3C4B7"/>
<path d="M50.2978 727.576H75.4467L77.9616 729.972L49.0404 738.359L17.6042 746.746L15.0893 747.944L13.8319 758.727L6.28723 753.935L2.51489 747.944L1.25745 741.954V729.972H2.51489L3.77234 738.359L12.5745 744.35L11.317 733.567L30.1787 729.972L50.2978 727.576Z" fill="#D9DED3"/>
<path d="M574.653 483.161L577.168 487.953L578.425 493.944L564.593 522.698L558.306 532.283L548.246 540.67L543.217 546.661H540.702V514.312L558.306 511.915L572.138 491.547L574.653 483.161Z" fill="#07061A"/>
<path d="M456.453 630.529L457.71 632.925L476.572 634.123L482.859 630.529L487.889 632.925L467.77 647.303L462.74 650.897H460.225V653.293L451.423 658.086L440.106 666.472H437.591L436.334 662.878L438.849 643.708L453.938 632.925L456.453 630.529Z" fill="#D3CFBE"/>
<path d="M441.363 568.227L446.393 569.425L445.136 571.821H436.334L446.393 583.802L447.651 587.397L458.968 593.387L467.77 599.378V601.774L458.968 606.567L446.393 610.161H442.621L437.591 598.18L430.046 582.604V570.623L441.363 568.227Z" fill="#A6BDBD"/>
<path d="M402.383 819.831L408.67 822.227L427.531 833.01L425.017 841.397L411.185 846.19H391.066V823.426L392.323 828.218H402.383V819.831Z" fill="#ABC1BE"/>
<path d="M286.698 710.803L287.955 713.199L285.44 717.991L309.332 714.397H315.619L310.589 720.388L301.787 726.378L281.668 731.171L257.776 737.161H247.717L250.232 734.765L255.261 733.567L265.321 723.982L272.866 715.595L286.698 710.803Z" fill="#6C95A0"/>
<path d="M132.032 683.246L137.062 684.444L132.032 691.633L134.547 695.227L145.864 696.425V697.623L132.032 698.821L121.972 717.991V722.784L116.942 721.586L113.17 710.803L108.14 697.623V694.029L90.5361 692.831V691.633L104.368 690.435L120.715 685.642L132.032 683.246Z" fill="#E0DFCC"/>
<path d="M333.223 719.189H336.995L342.025 737.161L328.193 744.35L311.847 752.737L308.074 751.539L316.876 743.152L319.391 738.359L306.817 743.152L304.302 741.954L315.619 731.171H318.134L316.876 728.774L304.302 731.171H298.015L299.272 727.576L308.074 726.378L333.223 719.189Z" fill="#B0C5BF"/>
<path d="M518.068 497.538L533.157 501.132L539.444 507.123L541.959 510.717L552.019 503.528L549.504 508.321L548.246 511.915L553.276 514.311H540.702V529.887L526.87 527.491L521.84 526.293L519.325 517.906L518.068 508.321V497.538Z" fill="#E5E5D9"/>
<path d="M289.213 734.765L294.242 737.161L305.559 750.34L320.649 757.529L334.481 762.322V763.52H318.134L295.5 762.322L290.47 761.123L280.411 747.944L286.698 737.161L289.213 734.765Z" fill="#04041F"/>
<path d="M437.591 765.916H447.651L457.71 770.708V788.68L440.106 789.878L431.304 786.284L430.046 767.114L437.591 765.916Z" fill="#0B1932"/>
<path d="M502.978 492.745L506.75 496.34L510.523 504.727L509.265 510.717L519.325 522.698L520.582 525.094L500.463 522.698L499.206 523.896H492.919L490.404 520.302L480.344 517.906L487.889 508.321L496.691 501.132L502.978 492.745Z" fill="#3E5465"/>
<path d="M142.091 472.378H149.636L145.864 484.359L143.349 489.151L137.062 491.548L121.972 502.331L109.398 511.915L108.14 508.321L121.972 483.161L128.26 477.17L140.834 473.576L142.091 472.378Z" fill="#253B51"/>
<path d="M514.295 617.35L525.612 618.548L535.672 622.142L531.899 636.519L530.642 640.114L524.355 642.51L523.097 640.114L511.78 636.519V634.123L500.463 630.529L495.433 628.133L500.463 624.538L514.295 617.35Z" fill="#E2DDC9"/>
<path d="M450.166 481.962H458.968L466.512 485.557H479.087L486.631 484.359L485.374 490.349L477.829 496.34L465.255 499.934H448.908L441.363 497.538L442.621 492.745L447.651 485.557L450.166 481.962Z" fill="#F7F8EC"/>
<path d="M471.542 471.18L480.344 472.378L481.602 473.576L491.661 474.774L492.919 471.18L500.463 473.576L501.721 489.151H494.176L491.661 486.755L481.602 485.557L479.087 486.755H466.512L453.938 480.765V478.368L465.255 474.774L471.542 471.18Z" fill="#14161F"/>
<path d="M358.372 702.416H368.432L377.234 703.614L379.749 709.604V715.595L370.946 725.18L359.629 723.982L352.085 721.586L349.57 714.397V707.208L358.372 702.416Z" fill="#050720"/>
<path d="M191.132 608.963H206.221L212.508 619.746L208.736 630.529L207.479 632.925H189.874L183.587 619.746L191.132 608.963Z" fill="#0D1C35"/>
<path d="M447.651 717.991L448.908 720.388L442.621 733.567L448.908 728.774L451.423 729.972L443.878 739.557L452.681 734.765L450.166 739.557L447.651 743.152L452.681 741.954L448.908 745.548L440.106 749.142L436.334 755.133L427.532 759.925L421.244 756.331L422.502 753.935H426.274L430.047 733.567L438.849 723.982L447.651 717.991Z" fill="#5F8B99"/>
<path d="M193.647 738.359H233.885L232.627 746.746L238.915 755.133L241.43 757.529L230.113 756.331L213.766 752.737L199.934 745.548L193.647 740.756V738.359Z" fill="#27364C"/>
<path d="M441.363 479.566H452.68L447.651 486.755L442.621 493.944L443.878 509.519L442.621 505.925L435.076 509.519L438.849 511.915V515.51L432.561 514.312L422.502 511.915V508.321L431.304 509.519V507.123L427.531 505.925V503.528L437.591 504.727L436.334 502.33L430.046 499.934L431.304 493.944L428.789 490.349L423.759 489.151L422.502 480.764L441.363 479.566Z" fill="#BCBFB2"/>
<path d="M402.383 799.463L413.7 801.859L441.363 803.057V805.454L411.185 813.841L402.383 818.633V828.218H392.323L393.58 813.841L402.383 799.463Z" fill="#F6F6E8"/>
<path d="M120.715 618.548L139.577 628.133L171.013 658.086L165.983 659.284L149.636 653.293L132.032 636.52L120.715 622.142V618.548Z" fill="#608390"/>
<path d="M187.359 677.255H196.162L204.964 684.444L202.449 690.435L194.904 700.02H181.072L174.785 692.831L176.042 686.84L182.33 678.454L187.359 677.255Z" fill="#0F1C34"/>
<path d="M397.353 502.331L402.383 508.321L411.185 516.708L414.957 519.104L428.789 521.5L433.819 525.095L431.304 529.887L418.729 531.085L412.442 533.482H407.412L397.353 520.302L393.58 513.114V507.123L397.353 502.331Z" fill="#060617"/>
<path d="M553.276 674.859L555.791 676.057L564.593 704.812V709.604L558.306 707.208L539.444 695.227L534.415 691.633L536.929 686.84L552.019 677.255L553.276 674.859Z" fill="#4A6374"/>
<path d="M320.649 688.039L330.708 695.227L347.055 706.01L349.57 707.208L352.085 721.586L359.629 722.784V726.378L355.857 728.775L347.055 727.576L340.768 722.784L321.906 692.831L320.649 688.039Z" fill="#3A566B"/>
<path d="M359.63 611.359L364.659 617.349L369.689 626.934V629.331H377.234L374.719 634.123V642.51H379.749L382.264 644.906L381.006 649.699L379.749 647.302L373.461 648.5L370.947 656.887H369.689V648.5L370.947 637.717L362.144 642.51H354.6L350.827 638.916H353.342L358.372 612.557L359.63 611.359Z" fill="#5F8392"/>
<path d="M95.5659 559.84L100.596 564.633L103.111 569.425L108.14 571.821H104.368L109.398 580.208L115.685 589.793L120.715 598.18L121.972 604.17L115.685 608.963L113.17 611.359L104.368 594.585L98.0808 575.416L95.5659 565.831V559.84Z" fill="#CDD1C2"/>
<path d="M494.176 525.095L499.206 526.293L502.978 532.283V534.68H509.265V544.265L510.523 547.859L504.236 546.661L494.176 549.057L492.919 556.246H491.661V547.859L484.116 545.463V540.67H486.631L485.374 529.887L494.176 525.095Z" fill="#E7E7DA"/>
<path d="M388.551 555.048H401.125L419.987 558.642L422.502 561.038L404.898 570.623L398.61 573.019L389.808 571.821L386.036 564.633L387.293 556.246L388.551 555.048Z" fill="#F8F9EC"/>
<path d="M320.649 811.444L325.678 813.841L334.481 827.02L338.253 837.803V841.397L328.193 840.199L316.876 835.407L311.847 830.614L318.134 817.435L320.649 811.444Z" fill="#D4DBCF"/>
<path d="M343.283 480.764L354.6 483.161L368.432 487.953H375.976L378.491 491.547L387.293 492.746L389.808 491.547V493.944H393.58V491.547H396.095L397.353 495.142V503.529L394.838 507.123L396.095 515.51L399.868 522.698L398.61 525.095L389.808 517.906L388.551 513.114L384.778 511.915H387.293V509.519L383.521 508.321H387.293V503.529L379.749 504.727H352.085V503.529L374.719 502.33L375.976 501.132L349.57 498.736V497.538H364.659L387.293 499.934V496.34L374.719 492.746L345.797 483.161L343.283 480.764Z" fill="#4C92A5"/>
<path d="M336.995 738.359H340.768V750.341L339.51 763.52L324.421 759.925L309.332 753.935L315.619 749.142L336.995 738.359Z" fill="#618B9A"/>
<path d="M127.002 528.689L138.319 532.283L159.696 539.472L153.408 545.463L150.894 547.859H124.487L127.002 528.689Z" fill="#3E5768"/>
<path d="M558.306 484.359L563.336 485.557L562.078 492.746L557.048 499.934L546.989 508.321L540.702 511.916L535.672 503.529L531.899 501.133V496.34L558.306 484.359Z" fill="#8CAAB0"/>
<path d="M568.366 551.453L570.88 556.246L575.91 567.029L577.168 571.821H570.88L569.623 576.614L563.336 577.812L558.306 571.821L552.019 575.416H549.504L552.019 562.236L553.276 557.444L564.593 555.048L568.366 553.85V551.453Z" fill="#657D87"/>
<path d="M471.542 747.944L477.829 749.142L485.374 752.737L486.632 764.718L480.344 769.51L471.542 768.312L462.74 764.718V750.34L471.542 747.944Z" fill="#0E1A33"/>
<path d="M325.678 698.822L329.451 703.614L323.164 709.605L316.876 714.397L295.5 717.991H285.44L287.955 712.001L290.47 708.406L304.302 704.812L325.678 698.822Z" fill="#B0C4BF"/>
<path d="M418.729 529.887H428.789L426.274 535.878L421.244 543.066L406.155 549.057L402.383 552.651L389.808 551.453V545.463L397.353 541.868L409.927 533.482L418.729 529.887Z" fill="#A07079"/>
<path d="M358.372 821.029L377.234 822.227L388.551 824.624L381.006 833.01L372.204 842.595L365.917 847.388L363.402 840.199L359.629 824.624L358.372 821.029Z" fill="#BDCEC5"/>
<path d="M233.885 738.359H252.747L260.291 746.746L259.034 750.341L251.489 756.331H238.915L231.37 746.746L233.885 738.359Z" fill="#04041A"/>
<path d="M299.272 725.18L301.787 726.378L298.015 731.171L319.391 727.576L318.134 731.171L308.074 739.557L306.817 741.954L319.391 737.161L321.906 738.359L308.074 752.737L301.787 747.944L292.985 737.161L291.727 728.774L289.213 727.576L299.272 725.18Z" fill="#314B5C"/>
<path d="M494.176 716.793L501.721 717.991L516.81 726.378L515.553 729.972L505.493 734.765L485.374 732.369L480.344 731.171L482.859 726.378L494.176 716.793Z" fill="#15233A"/>
<path d="M436.334 571.821H445.136L458.968 581.406L475.314 586.199H486.631L489.146 593.387L476.572 592.189H460.225L452.68 587.397L447.651 586.199L436.334 574.218V571.821Z" fill="#4E7589"/>
<path d="M113.17 531.085L116.942 534.68L124.487 546.661L121.972 551.453L106.883 567.029L103.111 570.623V559.84L110.655 535.878L113.17 531.085Z" fill="#97A39E"/>
<path d="M149.636 472.378L167.24 473.576L173.528 474.774L167.24 479.566L158.438 487.953L152.151 499.934L148.379 498.736L144.606 490.349L145.864 480.764L149.636 472.378Z" fill="#BABEB2"/>
<path d="M150.893 653.293L163.468 656.887L172.27 659.284L187.359 660.482H203.706L211.251 656.887H213.766L212.508 665.274L197.419 666.472V664.076L176.042 671.265L169.755 672.463L171.013 668.869L160.953 661.68V659.284L153.408 656.887L150.893 655.689V653.293Z" fill="#6B8288"/>
<path d="M383.521 504.727H387.293V511.915H384.778L383.521 515.51L375.976 519.104H373.461V521.5H369.689L368.432 525.095L359.63 529.887L353.342 531.085L344.54 534.68V532.283L354.6 527.491H357.115V522.699L365.917 521.5L368.432 516.708H362.144V513.114L347.055 515.51V513.114L374.719 505.925L383.521 504.727Z" fill="#317E93"/>
<path d="M502.978 741.953H515.553L524.355 746.746V758.727L520.583 761.123H509.265L502.978 755.133V741.953Z" fill="#101B33"/>
<path d="M491.661 781.492H506.751V798.265L499.206 803.058L492.919 801.86L485.374 795.869L487.889 788.68L491.661 781.492Z" fill="#040319"/>
<path d="M236.4 660.482L241.43 661.68L247.717 666.472L245.202 672.463L238.915 679.652H228.855L221.31 673.661L223.825 667.67L227.598 661.68L236.4 660.482Z" fill="#111F35"/>
<path d="M140.834 487.953L145.864 490.349L150.894 499.934L149.636 511.915L144.606 510.717L134.547 504.727L121.972 502.331L128.26 496.34L140.834 487.953Z" fill="#0A1632"/>
<path d="M529.385 723.982H536.929L553.276 735.963V738.359L540.702 740.756H531.899L519.325 728.774V726.378L529.385 723.982Z" fill="#101E37"/>
<path d="M328.193 704.812H330.708L336.995 715.595V719.19L308.074 727.576L300.529 728.774V726.378L314.361 715.595L328.193 704.812Z" fill="#F4F8EA"/>
<path d="M557.048 474.774H563.336L564.593 479.566L567.108 481.963L555.791 486.755L536.929 495.142H531.899L529.385 490.349V486.755L555.791 475.972L557.048 474.774Z" fill="#F8F9EA"/>
<path d="M103.11 749.142H106.883V751.539L95.5657 756.331L84.2487 757.529L72.9317 761.123H67.9019V763.52L35.2084 768.312H7.54456L8.802 764.718H17.6041L28.9211 765.916L66.6445 757.529L98.0806 750.34L103.11 749.142Z" fill="#09203E"/>
<path d="M197.419 528.689L199.934 529.887L189.874 538.274L179.815 541.868H171.013L159.696 538.274L155.923 529.887L167.24 531.085H187.359L197.419 528.689Z" fill="#BACFC9"/>
<path d="M362.144 733.567L369.689 734.765L388.551 741.953L396.095 744.35L402.383 752.736L403.64 757.529L396.095 755.133L374.719 746.746L362.144 734.765V733.567Z" fill="#7CA0AA"/>
<path d="M550.761 771.906H554.534L555.791 782.69L552.019 793.473L540.702 791.076L535.672 781.491L536.929 776.699L550.761 771.906Z" fill="#04041F"/>
<path d="M324.421 612.557L329.451 614.953L343.283 626.935V640.114L336.995 637.718L325.678 629.331L324.421 624.538V612.557Z" fill="#0F1631"/>
<path d="M446.393 585L455.195 587.397L460.225 590.991H479.087L487.889 592.189L491.661 598.18L490.404 602.972L467.77 600.576L451.423 589.793L446.393 587.397V585Z" fill="#5F8898"/>
<path d="M500.463 811.444H545.732V812.642L526.87 816.237L506.751 821.029L490.404 825.822L485.374 823.425L494.176 821.029H499.206V812.642L500.463 811.444Z" fill="#0F1C38"/>
<path d="M446.393 587.397L455.195 590.991L467.77 599.378V601.774L458.968 606.567L445.136 608.963L446.393 587.397Z" fill="#93B0B3"/>
<path d="M575.91 619.746H578.425L582.197 634.123V640.114L580.94 641.312H565.851V626.934L575.91 619.746Z" fill="#060D2B"/>
<path d="M413.7 719.189H414.957V738.359L403.64 752.737L399.868 751.539L397.353 747.944L398.61 743.152L412.442 720.388L413.7 719.189Z" fill="#162942"/>
<path d="M267.836 637.718H270.351V649.699L264.064 655.689L247.717 654.491L248.974 646.104L260.291 641.312L267.836 637.718Z" fill="#243C50"/>
<path d="M443.878 805.454H445.136L443.878 831.812L427.531 840.199L425.016 839.001L428.789 829.416L438.848 813.841L443.878 805.454Z" fill="#506C7B"/>
<path d="M313.104 837.803H324.421L335.738 841.397L350.827 842.595L363.402 846.19L379.748 847.388L374.719 849.784H359.629L331.966 846.19L316.876 842.595L313.104 840.199V837.803Z" fill="#062647"/>
<path d="M560.821 531.085H564.593L568.365 546.661V553.85L564.593 556.246L553.276 557.444L555.791 543.067L557.048 534.68L560.821 531.085Z" fill="#354C5E"/>
<path d="M343.283 628.133H355.857L353.342 638.916L342.025 643.708H330.708L326.936 641.312V630.529L340.768 638.916L343.283 640.114V628.133Z" fill="#6C909C"/>
<path d="M291.727 625.736L303.044 629.331L313.104 634.123L316.876 641.312V644.906L305.559 643.708L298.015 641.312L291.727 629.331V625.736Z" fill="#0D122A"/>
<path d="M304.302 750.34L324.421 758.727L334.481 762.322V763.52H318.134L295.5 762.322L290.47 759.925L304.302 750.34Z" fill="#060D2A"/>
<path d="M407.412 491.548H414.957L417.472 496.34L411.185 497.538V499.934H414.957L416.215 502.331L426.274 504.727V505.925H411.185L406.155 510.717L401.125 508.321L398.61 504.727V497.538L403.64 492.746L407.412 491.548Z" fill="#E3E4DE"/>
<path d="M528.127 640.114L530.642 641.312L528.127 659.284L502.978 655.689L506.751 652.095L528.127 640.114Z" fill="#243850"/>
<path d="M130.774 735.963H165.983V737.161L135.804 741.954L114.428 747.944H110.655L111.913 741.954L118.2 738.359L130.774 735.963Z" fill="#111933"/>
<path d="M277.896 653.293L296.757 658.086L299.272 661.68L290.47 662.878L292.985 664.076V671.265L277.896 668.869L271.608 665.274L274.123 660.482L279.153 658.086L277.896 653.293Z" fill="#334153"/>
<path d="M391.066 829.416H403.64L406.155 840.199V846.19H391.066V829.416Z" fill="#95B3B4"/>
<path d="M520.582 667.671L529.384 668.869L533.157 672.463V679.652L528.127 684.444H521.84L515.552 678.454V671.265L520.582 667.671Z" fill="#0A112B"/>
<path d="M534.414 698.822L540.702 701.218L546.989 706.01V715.595L535.672 716.793L528.127 708.406L530.642 703.614L534.414 698.822Z" fill="#0C1731"/>
<path d="M440.106 704.812V708.406L436.334 714.397L437.591 715.595L443.878 710.803L441.363 716.793L435.076 728.774L430.046 732.369L422.502 709.605L423.759 707.208L426.274 713.199L432.561 710.803L440.106 704.812Z" fill="#AFC5C0"/>
<path d="M183.587 710.803H193.647L197.419 713.199L194.904 723.982H183.587L174.785 714.397L178.557 712.001L183.587 710.803Z" fill="#08091E"/>
<path d="M388.551 783.888L402.383 785.086V795.869H387.293L378.491 791.076L382.264 787.482L388.551 783.888Z" fill="#263B4D"/>
<path d="M142.091 682.048H149.636L153.408 688.038L145.864 696.425H134.547L130.774 690.435L137.062 683.246L142.091 682.048Z" fill="#122339"/>
<path d="M120.715 481.962L123.23 483.161L109.398 508.321L108.14 511.915L103.111 509.519L99.3383 503.528H101.853L104.368 497.538L106.883 496.34L109.398 490.349L114.428 489.151L116.942 484.359H120.715V481.962Z" fill="#3D5A6E"/>
<path d="M552.019 474.774L557.048 475.972L546.989 480.765L533.157 486.755H529.385L531.899 495.142L534.414 496.34H531.899V501.132L525.612 499.934L526.87 495.142V485.557L524.355 478.368L531.899 477.17H540.702L552.019 474.774Z" fill="#DEDDCB"/>
<path d="M447.651 456.802H471.542L470.285 460.396L463.997 463.991L452.68 465.189V462.793L437.591 471.179L432.561 469.981L437.591 467.585L442.621 459.198L447.651 456.802Z" fill="#CBDDD8"/>
<path d="M393.58 491.548H396.095L397.353 495.142V503.529L394.838 507.123L396.095 515.51L399.868 522.699L398.61 525.095L389.808 517.906L388.551 513.114L384.778 511.916H387.293V509.519L383.521 508.321H387.293L388.551 496.34L393.58 491.548Z" fill="#D9E8E3"/>
<path d="M323.163 611.359L325.678 612.557V629.331L316.876 632.925H309.332L308.074 619.746H323.163V611.359Z" fill="#E3E5D9"/>
<path d="M406.155 535.878L417.472 539.472L419.987 541.869L417.472 543.067L404.898 544.265L402.383 552.652L389.808 551.453V545.463L397.353 541.869L406.155 535.878Z" fill="#E0B3A8"/>
<path d="M358.372 823.425L360.887 824.624L365.917 847.388L350.827 843.793L349.57 837.803H352.085L358.372 823.425Z" fill="#9AB4B5"/>
<path d="M597.287 678.453L599.802 683.246V691.633L593.514 708.406L591 703.614L588.485 690.435L592.257 682.048L597.287 678.453Z" fill="#030620"/>
<path d="M359.629 611.359L364.659 617.349L369.689 626.934L368.432 632.925L363.402 637.717L357.115 629.331V619.746L359.629 611.359Z" fill="#0E1631"/>
<path d="M515.553 468.783L521.84 471.18L530.642 477.17V478.368H524.355L528.127 485.557V493.944H525.612L514.295 480.765L515.553 469.982V468.783Z" fill="#EFF4E7"/>
<path d="M506.751 498.736H516.81L519.325 508.321L520.583 523.897L514.295 519.104L508.008 510.717L509.266 504.727L506.751 498.736Z" fill="#8C9C9C"/>
<path d="M142.091 745.548H171.013L194.904 746.746V749.142L199.934 750.341L193.647 751.539L188.617 750.341L162.21 749.142L160.953 747.944H152.151L150.893 749.142H132.032L116.942 750.341L120.715 747.944L142.091 745.548Z" fill="#011434"/>
<path d="M413.7 794.671H428.789L435.076 800.661V803.057H413.7L406.155 800.661L411.185 795.869L413.7 794.671Z" fill="#283B4D"/>
<path d="M403.64 481.962H423.759L421.244 486.755L413.7 491.547L401.125 493.944V485.557L403.64 481.962Z" fill="#0C0B19"/>
<path d="M492.919 471.18L500.463 473.576L501.721 489.151H494.176L492.919 486.755H496.691L485.374 479.566L482.859 474.774H491.661L492.919 471.18Z" fill="#C2CAC4"/>
<path d="M372.204 773.105H378.491L375.976 775.501L379.749 777.897L375.976 785.086L360.887 786.284L357.114 783.888H352.085V781.491H358.372V779.095L363.402 776.699H372.204V773.105Z" fill="#2D4858"/>
<path d="M494.176 525.095L499.206 526.293L501.721 529.887V537.076L494.176 540.67H487.889L485.374 534.68V529.887L494.176 525.095Z" fill="#F8F9E9"/>
<path d="M436.334 571.821H445.136L458.968 581.406L466.512 583.802L465.255 587.397L458.968 586.199L455.195 582.604L451.423 581.406L452.68 587.397L447.651 586.199L436.334 574.218V571.821Z" fill="#4A728B"/>
<path d="M399.868 771.906H417.472L416.214 781.491H402.383L396.095 780.293L398.61 773.105L399.868 771.906Z" fill="#22394F"/>
<path d="M344.54 496.34H349.57V498.736L375.976 499.934L387.293 501.133V502.331L352.085 504.727H342.025L336.995 502.331L344.54 501.133V496.34Z" fill="#1B6781"/>
<path d="M386.036 827.02L387.293 829.416L384.778 846.19L367.174 847.388L374.719 839.001L386.036 827.02Z" fill="#547888"/>
<path d="M320.649 812.642H321.906L324.421 828.218V837.803L318.134 836.605L311.847 830.614L318.134 817.435L320.649 812.642Z" fill="#9BB7B9"/>
<path d="M440.106 505.925H442.621L445.136 513.113L443.878 520.302H441.363V517.906L438.849 519.104L440.106 522.698V528.689L433.819 522.698L432.561 519.104L433.819 516.708L419.987 514.312L423.759 511.915L432.561 513.113L438.849 515.51V511.915L432.561 510.717L437.591 507.123L440.106 505.925Z" fill="#ADBBB7"/>
<path d="M487.889 459.198L494.176 460.396V469.981L491.661 474.774H481.602L472.8 471.179L474.057 467.585L489.146 465.189L487.889 459.198Z" fill="#F2F3E9"/>
<path d="M295.5 641.312L300.53 642.51L305.559 649.699V652.095L294.242 656.887H286.698L290.47 654.491L287.955 648.501L295.5 641.312Z" fill="#8EAAB0"/>
<path d="M563.336 525.095L565.851 527.491L579.683 568.227L578.425 573.019L572.138 562.236L565.851 543.066L563.336 531.085V525.095Z" fill="#85A0A5"/>
<path d="M342.025 613.755L349.57 616.151L357.114 619.746L355.857 628.133H343.283L340.768 624.538L342.025 613.755Z" fill="#DDE1D7"/>
<path d="M218.796 640.114H233.885L236.4 646.104L221.31 653.293H218.796V640.114Z" fill="#1A293E"/>
<path d="M158.438 331H165.983L169.755 334.594V340.585L165.983 344.179H158.438L154.666 339.387L155.923 333.396L158.438 331Z" fill="#AECCC9"/>
<path d="M370.946 653.293H372.204L373.461 666.472L383.521 667.67L384.778 660.482L387.293 661.68L386.036 674.859L383.521 677.255H373.461L370.946 664.076V653.293Z" fill="#C7CEC3"/>
<path d="M367.174 617.35L379.748 619.746L381.006 617.35V628.133L374.719 638.916L373.461 634.123L377.234 629.331H369.689L365.917 622.142L367.174 617.35Z" fill="#D4DBD2"/>
<path d="M128.26 720.388H137.062L143.349 726.378V732.369H133.289L123.23 722.784L128.26 720.388Z" fill="#07091D"/>
<path d="M118.2 723.982L121.972 725.18L130.774 735.963V737.161L118.2 739.557L110.655 743.152L114.428 732.369L118.2 723.982Z" fill="#2B445B"/>
<path d="M252.747 458H260.291L264.064 461.595L262.806 469.981L260.291 471.18H252.747L250.232 468.783V460.396L252.747 458Z" fill="#DDEFEC"/>
<path d="M114.428 751.539H120.715L121.972 752.737H140.834V755.133L110.655 756.331L84.2489 761.123L67.9021 762.322L72.9319 759.925L84.2489 756.331H96.8233L101.853 755.133L114.428 751.539Z" fill="#012D4E"/>
<path d="M1.25745 729.973H2.51489L3.77234 738.359L15.0893 746.746L13.8319 758.727L6.28723 753.935L2.51489 747.944L1.25745 741.954V729.973Z" fill="#B8D1CE"/>
<path d="M497.948 637.718H504.236L508.008 641.312V648.501L505.493 650.897H496.691L494.176 648.501V641.312L497.948 637.718Z" fill="#0A0A1C"/>
<path d="M386.036 661.68L392.323 666.472L394.838 671.265L393.581 691.633L391.066 688.038L386.036 678.454V661.68Z" fill="#111A32"/>
<path d="M540.702 617.35H546.989L550.761 620.944V626.935L546.989 630.529H540.702L536.929 626.935V619.746L540.702 617.35Z" fill="#080821"/>
<path d="M486.631 485.557L492.919 486.755L494.176 487.953H502.978L508.008 491.547V498.736L502.978 493.944L497.948 501.132H495.433L487.889 489.151L486.631 485.557Z" fill="#D6D4C7"/>
<path d="M552.019 495.142L555.791 499.934L545.732 509.519L540.702 511.915L536.929 504.727V501.132L552.019 495.142Z" fill="#131E3B"/>
<path d="M336.995 503.529H387.293L383.521 505.925L365.917 509.519L353.342 511.915L354.6 507.123L338.253 505.925L336.995 503.529Z" fill="#0C5E77"/>
<path d="M335.738 677.255L345.798 678.454L348.312 684.444V688.039L339.51 690.435L333.223 684.444L334.481 678.454L335.738 677.255Z" fill="#080A20"/>
<path d="M150.893 653.293L163.468 656.887L173.527 660.482L178.557 670.067L173.527 672.463H169.755L171.013 668.869L160.953 661.68V659.284L153.408 656.887L150.893 655.689V653.293Z" fill="#335C71"/>
<path d="M568.365 551.453L570.88 556.246L573.395 562.236L572.138 568.227H569.623V565.831L562.078 563.435L553.276 558.642L557.048 556.246L568.365 553.85V551.453Z" fill="#4E6978"/>
<path d="M580.94 668.869H582.198L584.712 678.454L583.455 685.642L582.198 688.039L572.138 689.237L575.91 678.454L580.94 668.869Z" fill="#040424"/>
<path d="M411.185 504.727H414.957V508.321H409.927L411.185 510.717L417.472 507.123H421.244L418.729 511.916L422.502 515.51L421.244 519.104H413.7L404.897 511.916L407.412 507.123L411.185 504.727Z" fill="#121B28"/>
<path d="M557.049 601.774H564.593L568.366 605.369L567.108 611.359L564.593 613.755L555.791 612.557L554.534 604.17L557.049 601.774Z" fill="#090B22"/>
<path d="M573.395 704.812H574.653L575.91 719.19L569.623 726.378L567.108 725.18L565.851 710.803L573.395 704.812Z" fill="#04061E"/>
<path d="M528.127 599.378H535.672L538.187 601.774V608.963L534.414 611.359H528.127L525.612 608.963V600.576L528.127 599.378Z" fill="#06071C"/>
<path d="M310.589 725.18H320.649V731.171L315.619 737.161L319.391 738.359L306.817 743.152L304.302 741.954L315.619 731.171H318.134L316.876 728.774L304.302 731.171H298.015L299.272 727.576L308.074 726.378L310.589 725.18Z" fill="#9BB4B5"/>
<path d="M99.3383 504.727L105.625 510.717L104.368 519.104L95.5659 526.293V515.51L99.3383 504.727Z" fill="#D1D5C1"/>
<path d="M422.502 514.312L433.819 516.708L435.076 522.699L443.878 533.482L441.364 534.68V532.284L436.334 529.887L433.819 525.095L428.789 522.699L414.957 520.302V519.104H421.244L422.502 514.312Z" fill="#1B2637"/>
<path d="M574.653 483.161L577.167 487.953L578.425 493.944L570.88 510.717L568.365 505.925V503.529L564.593 502.33L573.395 489.151L574.653 483.161Z" fill="#04071C"/>
<path d="M565.85 582.604H572.138L574.653 585V593.387L573.395 594.585H565.85L562.078 590.991L563.336 585L565.85 582.604Z" fill="#0A0E27"/>
<path d="M121.972 721.586L130.774 728.774L133.289 731.171L143.349 732.369V734.765H150.893V735.963H129.517L120.715 725.18L118.2 723.982L116.942 726.378V722.784L121.972 721.586Z" fill="#55798D"/>
<path d="M502.978 492.745L506.75 496.34L510.523 504.727L509.265 509.519H505.493L497.948 503.528L499.206 497.538L502.978 492.745Z" fill="#101122"/>
<path d="M294.242 601.774L298.015 602.972L291.727 607.765L285.44 617.35L272.866 629.331L270.351 630.529H261.549L252.747 628.133L257.776 626.935L269.093 629.331L271.608 624.538L276.638 620.944H279.153L280.41 616.152H282.925L285.44 611.359H287.955L290.47 605.369L294.242 601.774Z" fill="#267081"/>
<path d="M319.391 589.793L338.253 590.991L340.768 589.793L352.085 590.991V593.387H323.164L311.847 599.378L298.015 601.774V598.18L304.302 596.982H310.589L319.391 589.793Z" fill="#196B80"/>
<path d="M304.302 750.34L309.332 753.935L308.074 762.322H292.985L290.47 759.925L304.302 750.34Z" fill="#091131"/>
<path d="M294.242 634.123L298.015 638.916V641.312L289.212 648.501H285.44L284.183 643.708V635.321L292.985 636.52L294.242 634.123Z" fill="#E2E5D8"/>
<path d="M418.729 491.548L427.532 493.944V497.538L422.502 498.736V501.133H426.274V504.727L416.215 503.529L414.957 499.934H411.185V497.538L416.215 496.34L418.729 491.548Z" fill="#9E9E96"/>
<path d="M305.559 650.897L309.332 652.095L301.787 662.878L292.985 665.274L284.183 664.076V662.878L298.015 660.482L294.242 658.085L295.5 654.491L305.559 650.897Z" fill="#557385"/>
<path d="M343.283 592.189L352.085 593.387L358.372 598.18L360.887 611.359L358.372 612.557L355.857 606.567L344.54 596.982L340.768 593.387L343.283 592.189Z" fill="#E8E9DA"/>
<path d="M485.374 594.585H490.404L491.661 600.576L490.404 602.972L467.77 600.576L462.74 595.784L479.087 596.982H485.374V594.585Z" fill="#6F96A2"/>
<path d="M471.542 477.17L472.799 480.764L477.829 479.566L479.087 477.17L484.116 479.566L485.374 484.359L479.087 486.755H467.77L469.027 479.566L471.542 477.17Z" fill="#21B9AB"/>
<path d="M38.9808 695.227H55.3276V696.425L30.1787 698.821L13.8319 707.208L7.54468 717.991L6.28723 713.199L10.0596 704.812L16.3468 702.416L18.8617 700.02L28.9213 696.425L38.9808 695.227Z" fill="#15687E"/>
<path d="M475.314 623.34L481.602 624.538L482.859 629.331L476.572 635.321L471.542 634.123L470.285 628.133L475.314 623.34Z" fill="#0F1121"/>
<path d="M324.421 612.557L329.451 614.953L330.708 619.746H333.223L331.966 631.727L325.678 629.331L324.421 624.538V612.557Z" fill="#121324"/>
<path d="M500.463 608.963H508.008L509.265 610.161L508.008 618.548L499.206 619.746L496.691 617.35L497.948 611.359L500.463 608.963Z" fill="#0A0B1D"/>
<path d="M353.342 782.69L359.63 783.888L360.887 785.086L375.976 786.284H379.749V789.878L382.264 793.473H374.719L375.976 789.878L362.144 788.68L349.57 787.482L344.54 786.284L353.342 782.69Z" fill="#D1D1C2"/>
<path d="M593.514 607.765L598.544 612.557V624.538L592.257 622.142L588.485 619.746L591 611.359L593.514 607.765Z" fill="#04051C"/>
<path d="M321.906 839.001L331.966 840.199L335.738 841.397L350.827 842.595L362.144 846.19V847.388L342.025 846.19L323.164 842.595L321.906 839.001Z" fill="#0F182D"/>
<path d="M18.8617 757.529H26.4064L22.634 761.124L36.4659 762.322L38.9808 763.52L28.9213 767.114L17.6042 765.916L12.5745 763.52L16.3468 762.322L15.0894 758.727L18.8617 757.529Z" fill="#638A9A"/>
<path d="M519.325 498.736L533.157 501.132L539.444 507.123V511.915L533.157 509.519L519.325 499.934V498.736Z" fill="#F3F5E9"/>
<path d="M533.157 559.84H535.672L533.157 565.831L529.385 569.425L525.612 575.416L518.068 580.208V577.812L511.78 581.406H506.751V579.01L520.583 573.019L526.87 567.029L533.157 559.84Z" fill="#252F42"/>
<path d="M299.272 641.312L310.589 643.708H318.134V647.302L320.649 648.501L319.391 649.699L305.559 650.897L299.272 642.51V641.312Z" fill="#688896"/>
<path d="M494.176 547.859L499.206 550.255L500.463 551.453V561.038L499.206 562.236H491.661L492.919 549.057L494.176 547.859Z" fill="#191B25"/>
<path d="M391.066 818.633L392.323 823.425L391.066 844.991L384.778 846.19L386.036 829.416L391.066 818.633Z" fill="#354A5C"/>
<path d="M299.272 662.878L305.559 665.274L311.847 670.067L303.044 671.265H292.985V665.274L299.272 662.878Z" fill="#E2E0D0"/>
<path d="M545.731 581.406L550.761 582.604L553.276 585L552.019 590.991L549.504 593.387L543.216 592.189L541.959 586.198L545.731 581.406Z" fill="#090B1D"/>
<path d="M427.531 503.529L436.334 504.727L437.591 508.321L435.076 510.717L438.849 511.915V515.51L432.561 514.312L422.502 511.915V508.321L431.304 509.519V507.123L427.531 505.925V503.529Z" fill="#343E3E"/>
<path d="M319.391 737.161L321.906 738.359L309.332 751.539L305.559 746.746H308.074V744.35H301.787L304.302 741.954L315.619 738.359L319.391 737.161Z" fill="#3E5E6C"/>
<path d="M326.936 630.529L340.768 638.916L336.995 643.708L326.936 642.51V630.529Z" fill="#5A7B8B"/>
<path d="M431.304 501.132L437.591 502.33V504.727L427.531 503.529L431.304 507.123V509.519L422.502 508.321L423.759 513.113L416.214 511.915L421.244 507.123L411.185 511.915L409.927 508.321H414.957V505.925H426.274V502.33L431.304 501.132Z" fill="#C0C5BD"/>
<path d="M476.572 562.236H484.116L486.631 564.633V570.623L485.374 571.821H477.829L475.314 569.425V563.434L476.572 562.236Z" fill="#0D0E1B"/>
<path d="M562.078 567.029L568.365 568.227L570.88 570.623L569.623 576.614L563.336 577.812L559.563 574.218L560.821 568.227L562.078 567.029Z" fill="#374E63"/>
<path d="M442.621 710.803V714.397L435.076 728.774L430.046 732.369L427.531 723.982L435.076 719.19L442.621 710.803Z" fill="#90B0B0"/>
<path d="M446.393 722.784L448.908 726.378L453.938 727.576L452.68 731.17L455.195 732.369L453.938 735.963L447.651 738.359L442.621 740.755L445.136 735.963L450.166 729.972L441.363 734.765L443.878 727.576L446.393 722.784Z" fill="#D4E7E1"/>
<path d="M456.453 630.529L457.71 632.925L476.572 634.123L482.859 630.529L487.889 632.925L479.087 638.916L471.542 637.718L456.453 634.123V630.529Z" fill="#BBBFB3"/>
<path d="M427.531 571.821L430.046 575.416L428.789 579.01L422.502 585.001L416.214 590.991L412.442 589.793L425.017 574.218L427.531 571.821Z" fill="#D1E0D6"/>
<path d="M509.266 532.283L515.553 533.482L516.81 534.68V543.066L514.295 545.463L508.008 544.265L509.266 532.283Z" fill="#141524"/>
<path d="M481.602 484.359H486.631L485.374 490.349L477.829 496.34L475.314 491.548V487.953H467.77V486.755L479.087 485.557L481.602 484.359Z" fill="#EBEEE4"/>
<path d="M335.738 783.888L345.797 785.086L344.54 787.482L329.451 791.076L328.193 787.482L308.074 786.284V785.086L335.738 783.888Z" fill="#0F4A63"/>
<path d="M277.896 653.293L296.757 658.086L299.272 661.68H282.925L277.896 655.689V653.293Z" fill="#0E152A"/>
<path d="M452.681 643.708H458.968V649.699L453.938 654.491H447.651L448.908 647.303L452.681 643.708Z" fill="#0B0B1A"/>
<path d="M245.202 631.727H254.004L256.519 636.52L245.202 641.312L241.43 635.321V632.925L245.202 631.727Z" fill="#222C42"/>
<path d="M545.732 765.916L552.019 767.114L555.791 770.708L554.534 773.105L545.732 774.303L540.702 776.699L536.929 775.501L545.732 765.916Z" fill="#161D35"/>
<path d="M103.111 749.142H106.883V751.539L95.5659 756.331L75.4468 757.529L79.2191 755.133L103.111 749.142Z" fill="#091831"/>
<path d="M286.698 648.501L291.728 654.491V655.689H282.925H279.153L281.668 660.482L275.381 658.086L274.123 652.095L281.668 649.699L286.698 648.501Z" fill="#BCC6C4"/>
<path d="M388.551 833.01H389.808L391.066 844.992L411.185 846.19L409.927 848.586H382.263V846.19L387.293 844.992L388.551 833.01Z" fill="#112136"/>
<path d="M585.97 582.604L594.772 589.793V605.368L592.257 602.972L585.97 586.199V582.604Z" fill="#B5BBB5"/>
<path d="M481.602 474.774L490.404 481.963L499.206 486.755L495.434 487.953L485.374 484.359L481.602 478.368L479.087 477.17L477.829 480.765H472.8V475.972L481.602 474.774Z" fill="#0F1924"/>
<path d="M211.251 656.887H213.766L212.508 665.274L197.419 666.472V662.878L211.251 656.887Z" fill="#2B3A50"/>
<path d="M394.838 478.368L398.61 481.963L402.383 479.566L407.412 480.764L402.383 485.557L399.868 493.944H397.353L393.58 485.557V479.566L394.838 478.368Z" fill="#887985"/>
<path d="M545.731 811.444L548.246 812.642L538.187 818.633H525.612L521.84 816.237L536.929 812.642L545.731 811.444Z" fill="#052846"/>
<path d="M93.051 526.293H94.3085L95.5659 532.284H96.8234V550.255L95.5659 559.84H94.3085L93.051 549.057V526.293Z" fill="#A0B4B0"/>
<path d="M508.008 604.17L510.523 605.369L509.266 607.765L513.038 606.567L519.325 607.765L514.295 613.755L508.008 618.548V610.161L505.493 606.567L508.008 604.17ZM523.098 604.17L524.355 606.567L519.325 607.765V605.369L523.098 604.17Z" fill="#60757F"/>
<path d="M465.255 624.538L470.285 626.935L471.542 634.123L457.71 632.925L460.225 628.133L465.255 624.538Z" fill="#9BA7A2"/>
<path d="M8.802 764.718H17.6041L28.9211 765.916L36.4658 764.718L41.4956 767.114L35.2084 768.312H7.54456L8.802 764.718Z" fill="#082944"/>
<path d="M447.651 717.991L448.908 720.388L441.363 733.567L437.591 734.765V725.18L447.651 717.991Z" fill="#6B949E"/>
<path d="M359.629 616.151L362.144 619.746L363.402 623.34V631.727L359.629 632.925L357.115 629.331V619.746L359.629 616.151Z" fill="#060A21"/>
<path d="M154.666 387.312L158.438 388.51L159.696 395.698L155.923 398.095L149.636 394.5L150.894 388.51L154.666 387.312Z" fill="#236A82"/>
<path d="M372.204 773.105H378.491L375.976 777.897L365.917 779.095L362.144 786.284L357.114 783.888H352.085V781.491H358.372V779.095L363.402 776.699H372.204V773.105Z" fill="#285F77"/>
<path d="M147.121 425.651L153.408 426.849L154.666 432.84L150.894 435.236L145.864 434.038L144.606 428.047L147.121 425.651Z" fill="#8EBAC1"/>
<path d="M435.076 750.34H437.591L436.334 755.133L427.532 759.925L421.244 756.331L422.502 753.935L435.076 750.34Z" fill="#244356"/>
<path d="M372.204 638.916L374.719 642.51H379.749L382.263 644.906L381.006 649.699L379.749 647.302L373.461 648.501L370.946 656.887H369.689V648.501L372.204 638.916Z" fill="#9BA5A3"/>
<path d="M471.542 600.576H484.117L490.404 602.972L491.661 600.576L492.919 601.774V607.765L472.8 602.972L471.542 600.576Z" fill="#8BA8AC"/>
<path d="M441.363 568.227L446.393 569.425L445.136 571.821H436.334L440.106 577.812L433.819 575.415L432.561 579.01H430.046V570.623L441.363 568.227Z" fill="#8CAAB2"/>
<path d="M471.542 471.18L480.344 472.378L481.602 475.972L472.799 477.17L467.77 481.963L466.512 475.972L471.542 471.18Z" fill="#080D17"/>
<path d="M8.80212 743.152L15.0894 747.944L13.8319 758.727L10.0596 756.331V752.737L6.28723 751.539V746.746H8.80212V743.152Z" fill="#CAD5CC"/>
<path d="M375.976 492.745L387.293 496.34V499.934L364.659 498.736V497.538H374.719L375.976 492.745Z" fill="#0B5E75"/>
<path d="M262.806 461.594H264.064L262.806 469.981L260.291 471.179H252.747L250.232 466.387L262.806 463.991V461.594Z" fill="#A9CAC8"/>
<path d="M457.71 458L461.483 459.198L471.542 458L466.512 462.793L455.195 465.189L452.681 463.991H450.166L447.651 462.793L457.71 458Z" fill="#7B7F79"/>
<path d="M158.438 331H165.983L168.498 335.792L163.468 338.189H155.923L157.181 332.198L158.438 331Z" fill="#F6F9EC"/>
<path d="M409.927 599.378L411.185 602.972L408.67 612.557L403.64 610.161L401.125 605.369L409.927 599.378Z" fill="#20384F"/>
<path d="M447.651 575.416L453.938 577.812L458.968 581.406L466.512 583.802L465.255 587.397L458.968 586.199L455.195 582.604L447.651 580.208V575.416Z" fill="#3F6279"/>
<path d="M391.066 544.264H399.868V551.453H389.808V545.463L391.066 544.264Z" fill="#E1A198"/>
<path d="M430.046 496.34H433.819V498.736H441.363L443.878 504.727L442.621 509.519V505.925L437.591 507.123L436.334 502.331L430.046 499.934V496.34Z" fill="#B7B9B0"/>
<path d="M575.91 799.463L578.425 801.859L574.653 805.454L573.395 809.048H560.821L553.276 811.444L548.246 810.246L559.563 806.652L572.138 804.256L575.91 799.463Z" fill="#062542"/>
<path d="M573.395 553.849L575.91 557.444L579.682 568.227L578.425 573.019L572.138 562.236L569.623 555.047L573.395 553.849Z" fill="#81A0A2"/>
<path d="M441.363 479.566H452.68L447.651 486.755L442.621 491.547L441.363 479.566Z" fill="#2F4560"/>
<path d="M446.393 585L455.195 587.397L460.225 590.991L466.512 593.387L469.027 596.982L460.225 595.784L451.423 589.793L446.393 587.397V585Z" fill="#638B9C"/>
<path d="M276.638 375.33H279.153L277.896 381.321L274.123 382.519L266.579 390.906L264.064 392.104L266.579 384.915L272.866 377.727L276.638 375.33Z" fill="#DBECE9"/>
<path d="M344.54 846.19H363.402L379.749 847.388L374.719 849.784H359.63L344.54 847.388V846.19Z" fill="#031E3C"/>
<path d="M197.419 738.359H208.736L211.251 744.35H201.191L197.419 738.359Z" fill="#06091A"/>
<path d="M164.725 539.472L171.013 540.67H179.815L186.102 539.472L181.072 544.265H171.013H167.24V555.048H165.983L164.725 539.472Z" fill="#155A73"/>
<path d="M492.919 515.51L499.206 516.708L500.463 522.698L499.206 523.897H492.919L491.661 522.698V516.708L492.919 515.51Z" fill="#0E101F"/>
<path d="M411.185 504.727H414.957V508.321H409.927L411.185 514.312H413.7L417.472 519.104L411.185 517.906L404.897 510.717L411.185 504.727Z" fill="#656967"/>
<path d="M418.729 529.887H428.789L426.274 535.878L422.502 540.67V537.076H419.987L418.729 529.887Z" fill="#634A5E"/>
<path d="M492.919 471.18L500.463 473.576V484.359L494.176 478.368L492.919 477.17V471.18Z" fill="#171E33"/>
<path d="M394.838 496.34H396.095V505.925L392.323 510.717L388.551 509.519L389.808 501.133L394.838 496.34Z" fill="#F0F1EA"/>
<path d="M362.144 768.312L378.491 769.51L383.521 771.906L381.006 773.105L363.402 771.906L362.144 768.312Z" fill="#0B273F"/>
<path d="M369.689 629.331H377.234L374.719 634.123L372.204 638.916L367.174 637.718L368.432 630.529L369.689 629.331Z" fill="#76959B"/>
<path d="M570.88 571.821H574.653V583.802L567.108 582.604L570.88 571.821Z" fill="#819293"/>
<path d="M388.551 555.048H401.125V556.246L392.323 558.642L389.808 564.633V570.623L387.293 567.029L386.036 559.84L388.551 555.048Z" fill="#D3E5E3"/>
<path d="M552.019 474.774L557.048 475.972L546.989 480.765L541.959 481.963V479.566H533.157V478.368L552.019 474.774Z" fill="#C0D5CD"/>
<path d="M499.206 462.793L505.493 463.991L508.008 466.387L505.493 474.774L501.721 473.576L499.206 462.793Z" fill="#E9F0E6"/>
<path d="M438.849 460.397H441.363L438.849 467.585L432.561 471.18H426.274L427.531 467.585L433.819 466.387L436.334 461.595L438.849 460.397Z" fill="#176D83"/>
<path d="M484.117 460.397H487.889L489.146 465.189L474.057 468.784L480.344 462.793L484.117 460.397Z" fill="#1E2A3A"/>
<path d="M203.706 604.17L208.736 605.369L213.766 607.765H217.538L223.825 613.755V616.152L217.538 613.755L203.706 605.369V604.17Z" fill="#236A83"/>
<path d="M396.095 537.076L402.383 538.274L396.095 544.265L391.066 545.463L389.808 555.048H388.551V544.265L392.323 540.67H396.095V537.076Z" fill="#18677B"/>
<path d="M344.54 817.435H349.57L350.827 819.831V835.407H353.342L350.827 840.199L349.57 837.803L348.312 818.633L340.768 821.029V818.633L344.54 817.435Z" fill="#E4F0E9"/>
<path d="M386.036 769.51H393.58L392.323 773.105L384.778 775.501H377.234L381.006 771.907L386.036 769.51Z" fill="#E1E2CF"/>
<path d="M442.621 497.538L457.71 499.934L453.938 501.132V503.528H442.621V497.538Z" fill="#E8E6DB"/>
<path d="M132.032 732.369H143.349V734.765H150.893V735.963H129.517L132.032 732.369Z" fill="#46657A"/>
<path d="M411.185 676.057L413.7 679.651L418.729 692.831L417.472 695.227L413.7 694.029L411.185 684.444V676.057Z" fill="#8BA8AD"/>
<path d="M392.323 508.321L394.838 513.114L399.868 522.698L398.61 525.095L389.808 517.906V514.312H391.066L392.323 508.321Z" fill="#75959E"/>
<path d="M202.449 496.34L206.221 501.133V519.104L203.706 521.501L204.964 503.529H199.934L201.191 497.538L202.449 496.34Z" fill="#D9F0EA"/>
<path d="M398.61 774.303L399.868 779.095H416.214V781.491H402.383L396.095 780.293L398.61 774.303Z" fill="#384852"/>
<path d="M535.672 692.831L540.702 695.227L546.989 700.02L544.474 704.812L538.187 698.822L535.672 692.831Z" fill="#829598"/>
<path d="M255.261 628.133L261.549 629.331H272.866L271.608 631.727L257.776 632.925L256.519 636.519L254.004 632.925L250.232 630.529H255.261V628.133Z" fill="#C9D3C6"/>
<path d="M303.044 599.378L314.361 600.576V601.774L303.044 602.972L301.787 606.567H292.985L298.015 601.774L303.044 599.378Z" fill="#D4ECE7"/>
<path d="M99.3383 504.727L105.625 510.717V513.114L96.8234 515.51L98.0808 507.123L99.3383 504.727Z" fill="#CCCCBB"/>
<path d="M264.064 382.519L269.093 383.717L264.064 393.302L262.806 405.283H261.549L260.291 389.708L264.064 388.51V382.519Z" fill="#1F6C84"/>
<path d="M108.14 744.35H110.655V747.944L88.0212 753.935H85.5063V751.539L105.625 746.746L108.14 744.35Z" fill="#455D73"/>
<path d="M406.155 539.472L412.442 541.868V543.067L403.64 545.463L402.383 552.651H399.868V544.265L396.095 543.067L402.383 541.868L406.155 539.472Z" fill="#E6C3BC"/>
<path d="M528.127 487.953L531.9 492.746V495.142L534.414 496.34H531.9V501.132L525.612 499.934L528.127 487.953Z" fill="#C7CABE"/>
<path d="M451.423 734.765V738.359L447.651 743.152L452.68 741.954L448.908 745.548L445.136 746.746L442.621 743.152L441.363 740.755L451.423 734.765Z" fill="#87A9A9"/>
<path d="M402.383 570.623H404.898V576.614L394.838 575.416L389.808 573.019L392.323 571.821L402.383 570.623Z" fill="#C6DDDA"/>
<path d="M557.048 469.981L562.078 471.179L573.395 474.774L572.138 479.566L565.85 474.774H553.276L558.306 473.576L557.048 469.981Z" fill="#1B6A7F"/>
<path d="M417.472 842.595H421.244V844.992L423.759 846.19L417.472 848.586H409.927L411.185 844.992L417.472 842.595Z" fill="#0E2944"/>
<path d="M142.091 745.548H171.013V747.944L162.211 749.142L160.953 747.944L142.091 746.746V745.548Z" fill="#010C2D"/>
<path d="M13.8319 703.614L17.6042 704.812L12.5745 709.604L7.54468 717.991L6.28723 713.199L10.0596 704.812L13.8319 703.614Z" fill="#217081"/>
<path d="M377.234 610.161H379.749L382.263 616.152L384.778 617.35V619.746L387.293 620.944L381.006 625.737L378.491 614.953L377.234 610.161Z" fill="#226E82"/>
<path d="M206.221 606.567L215.023 611.359L212.508 613.755L213.766 618.548L211.251 619.746L206.221 611.359V606.567Z" fill="#C8CFC9"/>
<path d="M462.74 595.783L479.087 598.18L480.344 600.576H467.77L462.74 595.783Z" fill="#739AA5"/>
<path d="M95.5659 559.84L100.596 564.633L103.111 570.623L99.3383 573.019L96.8234 570.623L95.5659 559.84Z" fill="#D4D9CA"/>
<path d="M389.808 516.708L396.095 522.698H392.323V520.302H389.808L387.293 525.095H384.778V517.906L389.808 516.708Z" fill="#246E82"/>
<path d="M142.091 472.378H149.636L148.379 474.774L137.062 478.368L124.487 480.764L128.26 477.17L140.834 473.576L142.091 472.378Z" fill="#194A63"/>
<path d="M23.8915 762.322H38.9808L37.7234 764.718L28.9213 767.114H21.3766L20.1191 764.718L23.8915 762.322Z" fill="#5A7A8A"/>
<path d="M51.5552 761.123H57.8424L56.5849 763.52H49.0403V765.916H36.4658L40.2382 763.52L51.5552 761.123Z" fill="#041B38"/>
<path d="M310.589 725.18H314.361V728.774L304.302 731.171H298.015L299.272 727.576L308.074 726.378L310.589 725.18Z" fill="#A5BABA"/>
<path d="M328.193 704.812H330.708L331.966 708.406L326.936 709.605L316.876 717.991L313.104 716.793L328.193 704.812Z" fill="#E8F0E4"/>
<path d="M411.185 592.189H412.442V604.17L409.927 605.368V600.576L403.64 602.972L411.185 592.189Z" fill="#C6D9D6"/>
<path d="M111.913 486.755H114.428V489.151L109.398 491.548L106.883 497.538H104.368L101.853 503.529L99.3383 502.331L104.368 493.944H106.883L108.14 489.151L111.913 486.755Z" fill="#195D77"/>
<path d="M471.542 477.17L472.799 480.764L476.572 481.962L471.542 483.16L470.285 485.557L481.602 484.359L479.087 486.755H467.77L469.027 479.566L471.542 477.17Z" fill="#2D9D97"/>
<path d="M84.2489 756.331H90.5361L86.7638 757.529V759.925L75.4468 762.322H67.9021L72.9319 759.925L84.2489 756.331Z" fill="#03274C"/>
<path d="M299.272 725.18L301.787 726.378L298.015 732.369H291.727V728.774L289.213 727.576L299.272 725.18Z" fill="#486774"/>
<path d="M309.332 714.397H315.619L310.589 720.388H304.302V715.595L309.332 714.397Z" fill="#7BA1A2"/>
<path d="M160.953 659.284L165.983 661.68L174.785 667.67L173.528 672.463H169.755L171.013 668.868L160.953 661.68V659.284Z" fill="#1F5F74"/>
<path d="M423.759 511.916L432.561 513.114L437.591 516.708H435.076L433.819 521.5L432.561 519.104L433.819 516.708L419.987 514.312L423.759 511.916Z" fill="#889595"/>
<path d="M550.761 503.529V507.123L548.246 511.915L553.276 514.312H540.702L543.217 513.113V509.519L550.761 503.529Z" fill="#E3E4E1"/>
<path d="M173.527 660.482H179.815L181.072 662.878L186.102 665.274L179.815 666.472H176.042L173.527 660.482Z" fill="#5A7984"/>
<path d="M408.67 481.962H419.987L418.729 485.557L411.185 486.755L408.67 481.962Z" fill="#55707D"/>
<path d="M149.636 472.378L167.24 473.576V474.774H150.893L149.636 479.566H147.121L149.636 472.378Z" fill="#96B2B3"/>
<path d="M481.602 466.387H485.374V468.783L481.602 472.378L472.8 471.18L474.057 467.585L481.602 466.387Z" fill="#D8DCD7"/>
<path d="M274.123 371.736H279.153V375.33L269.093 381.321L270.351 375.33L274.123 371.736Z" fill="#12627B"/>
<path d="M353.342 782.69L359.63 783.888L362.144 787.482H344.54L348.312 785.086L353.342 782.69Z" fill="#C4D5C7"/>
<path d="M320.649 688.039L329.451 694.029L328.193 700.02L323.163 695.227L320.649 688.039Z" fill="#2B3F5A"/>
<path d="M392.323 667.671L403.64 671.265L409.927 672.463V673.661H394.838L392.323 667.671Z" fill="#C7CABE"/>
<path d="M242.687 625.736L252.747 626.935L255.261 628.133V630.529L242.687 631.727L246.459 629.331V626.935L242.687 625.736Z" fill="#DCDFD3"/>
<path d="M359.629 599.378H367.174L377.234 604.17L375.976 608.963L372.204 605.369L359.629 600.576V599.378Z" fill="#2C7788"/>
<path d="M585.97 582.604L594.772 589.793L593.514 592.189L588.485 593.387L585.97 582.604Z" fill="#A3B8B8"/>
<path d="M563.336 525.095L565.851 527.491L569.623 540.67L565.851 543.066L563.336 531.085V525.095Z" fill="#6F919C"/>
<path d="M427.531 503.529L436.334 504.727L437.591 508.321L430.046 510.717L431.304 507.123L427.531 505.925V503.529Z" fill="#5E6562"/>
<path d="M481.602 484.359L486.631 485.557L480.344 487.953V490.349H475.314V487.953H467.77V486.755L479.087 485.557L481.602 484.359Z" fill="#D2E7D8"/>
<path d="M419.987 481.962H423.759L421.244 486.755L413.7 491.547L411.185 490.349L412.442 486.755L418.729 484.359L419.987 481.962Z" fill="#212A35"/>
<path d="M295.5 450.812L301.787 452.01L300.53 456.802H295.5L294.242 452.01L295.5 450.812Z" fill="#AACED7"/>
<path d="M3.77234 719.189L6.28723 720.388L2.51489 729.972L1.25745 739.557H0V723.982L3.77234 719.189Z" fill="#18687D"/>
<path d="M343.283 592.189L352.085 593.387L357.114 598.18L348.312 596.982V595.784L340.768 594.585L343.283 592.189Z" fill="#D7EFEC"/>
<path d="M389.808 503.529V507.123V509.519L392.323 510.717L391.066 515.51L384.778 513.113L387.293 511.915V509.519L383.521 508.321H387.293V504.727L389.808 503.529Z" fill="#AFC6C8"/>
<path d="M402.383 479.566L407.412 480.764L402.383 485.557L398.61 489.151L397.353 483.161L402.383 479.566Z" fill="#8B6974"/>
<path d="M406.155 471.18H425.017V472.378L411.185 474.774H404.897L406.155 471.18Z" fill="#216F89"/>
<path d="M441.363 714.397L445.136 719.189L438.849 725.18L436.334 726.378L438.849 719.189L441.363 714.397Z" fill="#E5F0EE"/>
<path d="M430.046 579.01L435.076 581.406L436.334 592.189L432.561 587.397L430.046 582.604V579.01Z" fill="#B2C2BF"/>
<path d="M562.078 525.095H563.335V531.085L558.306 534.68L557.048 540.67L553.276 538.274L555.791 533.482L562.078 525.095Z" fill="#1D2C3E"/>
<path d="M421.244 515.51L426.274 516.708L427.532 521.5L414.957 520.302V519.104H421.244V515.51Z" fill="#0F1531"/>
<path d="M508.008 491.548L515.553 495.142L516.81 498.736H508.008V491.548Z" fill="#DEDBC9"/>
<path d="M494.176 461.594L499.206 463.991L500.463 469.981L494.176 467.585L492.919 462.793L494.176 461.594Z" fill="#263542"/>
<path d="M6.28723 753.935L13.8319 758.727L17.6042 763.52H11.317L6.28723 756.331V753.935Z" fill="#6E9DAE"/>
<path d="M446.393 722.784L450.166 727.576L443.878 733.567L441.363 734.765L443.878 727.576L446.393 722.784Z" fill="#D9EBE9"/>
<path d="M336.995 716.793L342.025 722.784L344.54 726.378L338.253 727.576L336.995 716.793Z" fill="#C2CFCC"/>
<path d="M299.272 662.878L303.044 664.076L301.787 666.472L296.757 665.274L295.5 671.265H292.985V665.274L299.272 662.878Z" fill="#D5D8CD"/>
<path d="M172.27 660.482L177.3 666.472L178.557 670.067L174.785 671.265V667.67L169.755 665.274L172.27 660.482Z" fill="#396171"/>
<path d="M291.727 625.736L300.53 628.133L298.015 629.331L296.757 632.925L294.242 634.123L291.727 629.331V625.736Z" fill="#1E1D31"/>
<path d="M280.41 616.151L282.925 617.35L280.41 622.142L275.381 626.935L270.351 625.736L276.638 620.944H279.153L280.41 616.151Z" fill="#13687E"/>
<path d="M96.8234 570.623L99.3383 575.416L101.853 587.397L99.3383 586.199L95.5659 579.01L96.8234 570.623Z" fill="#206A81"/>
<path d="M440.106 505.925H442.621L443.878 511.915H435.076L432.561 509.519L440.106 505.925Z" fill="#A6ADA7"/>
<path d="M510.523 467.585L515.553 468.783L516.81 474.774L513.038 475.972L510.523 471.179V467.585Z" fill="#1A3949"/>
<path d="M179.815 746.746H194.904V749.142L199.934 750.34L193.647 751.539L188.617 749.142L179.815 747.944V746.746Z" fill="#01102F"/>
<path d="M339.51 589.793L352.085 590.991V593.387H330.708V592.189L339.51 589.793Z" fill="#338291"/>
<path d="M423.759 571.821L427.532 573.019L422.502 576.614H417.472L411.185 579.01L408.67 576.614L423.759 571.821Z" fill="#317A88"/>
<path d="M402.383 550.255L403.64 553.849H396.095V555.048H389.808V551.453H399.868L402.383 552.651V550.255Z" fill="#221F2A"/>
<path d="M574.653 483.161L577.168 487.953L578.425 493.944L575.91 497.538L574.653 493.944L572.138 491.547L574.653 483.161Z" fill="#0F1A2E"/>
<path d="M158.438 331H165.983L168.498 335.792L162.21 333.396L160.953 335.792V333.396L158.438 334.594L155.923 338.189L157.181 332.198L158.438 331Z" fill="#E4F7F1"/>
<path d="M353.342 773.105H372.204V776.699H367.174V774.303H353.342V773.105Z" fill="#0E5771"/>
<path d="M277.896 668.869H287.955L290.47 671.265L275.381 672.463L277.896 668.869Z" fill="#E1E2D1"/>
<path d="M508.008 642.51H509.265V649.699L511.78 650.897L504.236 653.293L497.948 652.095V650.897L506.75 648.501L508.008 642.51Z" fill="#A9AEAD"/>
<path d="M481.602 630.529L487.889 631.727L482.859 636.52L476.572 635.321L481.602 630.529Z" fill="#B1B8AD"/>
<path d="M286.698 614.953H287.955V620.944L284.183 622.142L281.668 624.538L277.896 623.34L286.698 614.953Z" fill="#D4EBE5"/>
<path d="M399.868 606.567L408.67 612.557L404.897 614.953L403.64 611.359H396.095L399.868 606.567Z" fill="#B8C6BD"/>
<path d="M319.391 589.793L336.995 590.991V592.189L316.876 593.387L319.391 589.793Z" fill="#0B657F"/>
<path d="M457.71 581.406L466.512 583.802L465.255 587.397L458.968 586.198L456.453 585L457.71 581.406Z" fill="#466C81"/>
<path d="M197.419 531.085L199.934 534.68L193.646 539.472H187.359L193.646 534.68L197.419 531.085Z" fill="#1A6881"/>
<path d="M433.819 522.698L440.106 528.689L443.878 534.68H441.363V532.283L436.334 529.887L433.819 527.491V522.698Z" fill="#23293A"/>
<path d="M500.463 481.962L501.721 486.755V489.151H494.176L492.919 486.755H496.691L494.176 484.359L500.463 481.962Z" fill="#ADB5B3"/>
<path d="M558.306 484.359L563.336 485.557L562.078 492.746L558.306 489.151V486.755L555.791 485.557L558.306 484.359Z" fill="#A5BFBD"/>
<path d="M150.893 390.906H157.181L155.923 396.896L150.893 395.698V390.906Z" fill="#B3D4DF"/>
<path d="M508.008 824.624L513.038 825.822L509.265 828.218L495.433 829.416L497.948 827.02L508.008 824.624Z" fill="#0B4F6D"/>
<path d="M399.868 763.52H402.383V765.916L396.095 769.51H388.551L393.58 765.916L399.868 763.52Z" fill="#D6DACD"/>
<path d="M35.2085 725.18L47.783 726.378L46.5255 728.774L36.4659 729.972L38.9808 728.774V726.378L35.2085 725.18Z" fill="#F4F3E4"/>
<path d="M442.621 710.803V714.397L438.849 721.586L435.076 720.388L438.849 714.397L442.621 710.803Z" fill="#9DB4AE"/>
<path d="M252.747 643.708L257.776 646.104L251.489 649.699L247.717 654.491L248.974 646.104L252.747 643.708Z" fill="#35444D"/>
<path d="M359.629 611.359L364.659 617.349L365.917 622.142L360.887 619.746L358.372 617.349L359.629 611.359Z" fill="#252834"/>
<path d="M184.844 588.595L193.647 595.784L196.161 599.378H192.389L188.617 595.784L186.102 594.586L184.844 588.595Z" fill="#CFDCD3"/>
<path d="M421.244 574.218L422.502 579.01L417.472 583.803L416.214 576.614L421.244 574.218Z" fill="#0F677F"/>
<path d="M416.214 499.935H419.987V502.331L426.274 501.133V504.727L416.214 503.529V499.935Z" fill="#525252"/>
<path d="M397.353 475.972L406.155 478.368L402.383 480.765L397.353 483.161L396.095 477.17L397.353 475.972Z" fill="#E2E3DE"/>
<path d="M147.121 425.651L153.408 426.849V430.444H145.864L147.121 425.651Z" fill="#E4F5F1"/>
<path d="M154.666 334.594L157.181 338.189L167.24 339.387L162.211 341.783H159.696L158.438 344.179L154.666 339.387V334.594Z" fill="#A0C4C2"/>
<path d="M373.461 840.199L374.719 842.595L373.461 844.992L377.234 846.19L374.719 847.388H367.174L373.461 840.199Z" fill="#5C7884"/>
<path d="M309.332 816.237H310.589L311.846 829.416L314.361 834.209L309.332 833.01V816.237Z" fill="#1A5C70"/>
<path d="M494.176 821.029H501.721L497.949 823.426L490.404 825.822L485.374 823.426L494.176 821.029Z" fill="#08203C"/>
<path d="M103.111 749.142H106.883V751.539L101.853 753.935H95.5659L98.0808 750.34L103.111 749.142Z" fill="#081429"/>
<path d="M13.8318 706.01H16.3467L13.8318 710.803L10.0594 717.991H7.54456L10.0594 712.001L13.8318 706.01Z" fill="#DBEEEC"/>
<path d="M386.036 661.68L389.808 664.076V666.472H387.293L388.551 673.661V676.057H386.036V661.68Z" fill="#0D1222"/>
<path d="M211.251 656.887H213.766L212.508 665.274L208.736 664.076L207.479 658.086L211.251 656.887Z" fill="#364357"/>
<path d="M120.715 618.548L127.002 622.142L128.26 625.737L125.745 628.133L120.715 622.142V618.548Z" fill="#558194"/>
<path d="M191.132 608.963L192.389 611.359L188.617 618.548L183.587 620.944L189.874 610.161L191.132 608.963Z" fill="#1F2634"/>
<path d="M393.58 610.161H396.095L393.58 614.953L387.293 619.746V614.953H391.066V611.359L393.58 610.161Z" fill="#297580"/>
<path d="M124.487 575.416H137.062L139.577 579.01L129.517 577.812L124.487 575.416Z" fill="#2E323D"/>
<path d="M162.211 544.264H163.468L164.725 557.444L160.953 559.84L162.211 544.264Z" fill="#090617"/>
<path d="M391.066 544.264L396.095 545.463V549.057H392.323V551.453H389.808V545.463L391.066 544.264Z" fill="#D7C1BD"/>
<path d="M399.868 487.953H401.125L402.383 495.142L399.868 497.538L397.353 502.331L396.095 491.547L397.353 493.944H399.868V487.953Z" fill="#403C45"/>
<path d="M299.272 489.151L304.302 490.349L303.044 495.142L298.015 493.944L299.272 489.151Z" fill="#AFD6E1"/>
<path d="M472.8 475.972H481.602L479.087 477.17L477.829 480.765H472.8V475.972Z" fill="#092034"/>
<path d="M409.927 797.067H421.244L422.502 799.463L413.7 800.661L409.927 799.463V797.067Z" fill="#152F4F"/>
<path d="M18.8617 757.529H26.4064L22.634 761.124L18.8617 762.322L15.0894 761.124V758.727L18.8617 757.529Z" fill="#528193"/>
<path d="M193.647 738.359L198.676 739.557L201.191 743.152L207.479 744.35V745.548H199.934L193.647 740.756V738.359Z" fill="#1C273C"/>
<path d="M448.908 728.774L451.423 729.973L445.136 737.161H440.106V734.765L448.908 728.774Z" fill="#779DA6"/>
<path d="M492.919 604.17L495.434 608.963L500.463 610.161L496.691 613.755H494.176V610.161L491.661 607.765L492.919 604.17Z" fill="#647882"/>
<path d="M418.729 582.604L421.244 583.802L418.729 589.793L412.442 590.991L417.472 583.802L418.729 582.604Z" fill="#DAEDE5"/>
<path d="M436.334 571.821H445.136L446.393 574.218L437.591 575.416L436.334 571.821Z" fill="#3D667E"/>
<path d="M384.778 505.925H387.293V508.321L374.719 511.915V509.519H377.234V507.123L384.778 505.925Z" fill="#15657B"/>
<path d="M425.017 497.538L430.046 498.736L431.304 502.33L422.502 501.132V498.736L425.017 497.538Z" fill="#E3E5D6"/>
<path d="M344.54 496.34H349.57L350.827 502.331L344.54 501.133V496.34Z" fill="#186A88"/>
<path d="M469.027 458L471.542 459.198L463.997 463.991L461.482 462.793V459.198L469.027 458Z" fill="#686961"/>
<path d="M447.651 456.802H456.453V459.198L450.165 461.594V459.198L445.136 458L447.651 456.802Z" fill="#D6E9E6"/>
<path d="M315.619 744.35L318.134 746.746H315.619V750.34L311.846 752.737L308.074 751.539L315.619 744.35Z" fill="#A1BBBC"/>
<path d="M592.257 606.567L594.772 607.765L589.742 616.152L588.485 613.755L585.97 612.557L592.257 606.567Z" fill="#243246"/>
<path d="M383.521 525.095V528.689L378.491 535.878L377.234 531.085L383.521 525.095Z" fill="#3A819A"/>
<path d="M407.412 511.916H411.185V514.312H413.7L417.472 519.104L411.185 517.906L407.412 514.312V511.916Z" fill="#7E8E92"/>
<path d="M430.046 496.34H433.819V498.736H438.849V501.133H431.304L430.046 496.34Z" fill="#555754"/>
<path d="M573.395 479.566L578.425 480.764L579.682 486.755L573.395 484.359V479.566Z" fill="#19607E"/>
<path d="M471.542 471.18L480.344 472.378L481.602 474.774H472.8L471.542 471.18Z" fill="#0A0A0E"/>
<path d="M260.291 459.198L262.806 460.396V463.991L254.004 466.387L255.262 462.793H259.034L260.291 459.198Z" fill="#E7F3EE"/>
<path d="M314.361 798.265L318.134 799.463L314.361 805.454L311.846 811.444L310.589 806.652L314.361 798.265Z" fill="#183C4E"/>
<path d="M352.085 781.492H363.402L360.887 786.284L357.114 783.888H352.085V781.492Z" fill="#37606F"/>
<path d="M33.951 764.718L41.4957 765.916V767.114L27.6638 768.312L28.9213 765.916L33.951 764.718Z" fill="#0B2D48"/>
<path d="M389.808 752.737L396.095 753.935L401.125 756.331V757.529H392.323V755.133L389.808 752.737Z" fill="#BDD1CD"/>
<path d="M398.61 751.539L402.383 752.737L403.64 757.529L396.095 755.133L393.58 752.737L398.61 751.539Z" fill="#86A6AD"/>
<path d="M534.414 698.822H536.929L534.414 703.614L530.642 708.406H528.127L530.642 703.614L534.414 698.822Z" fill="#1B2737"/>
<path d="M452.681 643.708H458.968L453.938 646.104L450.166 652.095H447.651L450.166 646.104L452.681 643.708Z" fill="#363538"/>
<path d="M549.504 620.944H550.761V626.935L546.989 630.529H540.702L545.731 629.331L548.246 624.538L549.504 620.944Z" fill="#1F2331"/>
<path d="M359.629 616.151H360.887V623.34L357.115 626.935V619.746L359.629 616.151Z" fill="#0B0C1A"/>
<path d="M409.927 599.378L411.185 602.972L409.927 606.567L403.64 605.369L409.927 599.378Z" fill="#192F45"/>
<path d="M486.631 585H492.919L490.404 593.387L487.889 590.991L486.631 585Z" fill="#223148"/>
<path d="M499.206 581.406H505.493L502.978 586.198L497.948 585L494.176 583.802L499.206 581.406Z" fill="#273345"/>
<path d="M422.502 532.283L426.274 533.482L423.759 540.67L422.502 537.076H419.987L422.502 532.283Z" fill="#775B6F"/>
<path d="M518.067 510.717H519.325L520.582 523.897L515.552 519.104H518.067V510.717Z" fill="#899595"/>
<path d="M417.472 507.123H421.244L418.729 513.114L411.185 511.916L417.472 507.123Z" fill="#676B64"/>
<path d="M541.959 503.529L545.731 505.925H543.216L544.474 509.519L540.702 511.915L539.444 505.925L541.959 503.529Z" fill="#0C102E"/>
<path d="M489.146 481.962L499.206 486.755L495.433 487.953L486.631 485.557L489.146 481.962Z" fill="#23282F"/>
<path d="M441.363 479.566H452.68L448.908 485.557L446.393 481.962L441.363 479.566Z" fill="#4D5E6B"/>
<path d="M121.972 479.566H124.487V481.962H120.715V484.359L114.428 486.755L115.685 481.962L121.972 479.566Z" fill="#195B77"/>
<path d="M491.661 472.378L494.176 477.17L497.948 481.963L492.919 480.764L490.404 479.566L491.661 472.378Z" fill="#A7B2B2"/>
<path d="M494.176 467.585L501.721 468.783V472.377L492.919 471.179L494.176 467.585Z" fill="#CFD2CF"/>
<path d="M422.502 753.935H428.789L426.274 755.133V757.529L430.047 758.727L427.532 759.925L421.244 756.331L422.502 753.935Z" fill="#324A5A"/>
<path d="M257.776 735.963L261.549 737.161L256.519 739.557L255.261 741.954L252.747 737.161L257.776 735.963Z" fill="#253B4F"/>
<path d="M225.083 665.274L227.598 668.869L223.825 670.067V673.661L226.34 674.859H222.568L221.31 671.265L225.083 665.274Z" fill="#282F37"/>
<path d="M284.183 665.274H291.727V670.067L285.44 668.869L284.183 665.274Z" fill="#192334"/>
<path d="M305.559 650.897L309.332 652.095L304.302 660.482L303.044 655.689L305.559 650.897Z" fill="#475F76"/>
<path d="M509.265 650.897H511.78L510.523 655.689H502.978L506.751 652.095L509.265 650.897Z" fill="#283949"/>
<path d="M461.483 592.189L466.512 593.387L469.027 596.982L460.225 595.784L458.968 593.387L461.483 592.189Z" fill="#68909E"/>
<path d="M569.623 570.623L570.88 575.416L568.365 577.812L562.078 576.614L565.85 574.217H569.623V570.623Z" fill="#4B5F6B"/>
<path d="M94.3085 559.84H95.5659L96.8234 570.623H93.051L94.3085 559.84Z" fill="#256E88"/>
<path d="M99.3383 504.727L101.853 507.123L100.596 514.312L96.8234 515.51L98.0808 507.123L99.3383 504.727Z" fill="#B5CAC1"/>
<path d="M569.623 495.142L573.395 496.34L567.108 503.528L564.593 502.33L569.623 495.142Z" fill="#1E1D28"/>
<path d="M383.521 495.142L387.293 496.34V499.934H378.491L379.749 497.538H383.521V495.142Z" fill="#10657A"/>
<path d="M486.631 485.557L492.919 486.755L491.661 492.746L486.631 487.953V485.557Z" fill="#C4C3BF"/>
<path d="M165.983 471.18L171.013 472.378V474.774L157.181 473.576V472.378L165.983 471.18Z" fill="#1C6780"/>
<path d="M487.889 459.198L494.176 460.396V462.793L489.146 465.189L487.889 459.198Z" fill="#C9DDDC"/>
<path d="M264.064 382.519L269.093 383.717L264.064 393.302L262.806 388.51L264.064 382.519Z" fill="#246C7E"/>
</svg>
