<svg width="741" height="433" viewBox="0 0 741 433" fill="none" xmlns="http://www.w3.org/2000/svg">
<mask id="mask0_4_6629" style="mask-type:luminance" maskUnits="userSpaceOnUse" x="0" y="0" width="741" height="433">
<path d="M0.940674 0L740.32 -5.02286e-06L740.32 433L0.940675 433L0.940674 0Z" fill="white"/>
</mask>
<g mask="url(#mask0_4_6629)">
<mask id="mask1_4_6629" style="mask-type:luminance" maskUnits="userSpaceOnUse" x="167" y="-12" width="379" height="530">
<path d="M167.662 -11.0001L545.716 -11.0001L545.716 517.775L167.662 517.775L167.662 -11.0001Z" fill="white"/>
</mask>
<g mask="url(#mask1_4_6629)">
<path d="M183.677 253.468C182.617 251.314 178.999 243.83 178.277 242.141C176.863 238.831 175.531 235.07 176.773 229.581C178.997 219.748 223.207 30.8286 225.1 22.1756C229.393 2.54744 232.562 0.463095 242.853 0.379671C252.827 0.298689 287.605 0.81775 298.613 0.81775C305.05 0.81775 306.506 4.25915 308.081 7.67863C310.206 12.2922 311.68 15.7068 313.415 19.758C314.559 22.4268 316.394 23.9994 314.851 31.196C312.726 41.1066 266.823 233.887 264.463 244.552C262.102 255.217 256.726 259.8 250.99 259.88C245.254 259.96 192.205 258.613 189.034 258.315C185.863 258.017 184.366 254.869 183.677 253.468Z" fill="#231D24"/>
<path d="M185.457 243.215C187.576 233.927 231.395 46.2842 233.284 37.9365C234.92 30.7064 238.602 19.5572 246.986 19.5811C256.578 19.6089 304.129 19.8543 306.102 19.8538C311.312 19.8528 315.51 23.6332 314.851 31.1956C312.844 41.1731 266.823 233.887 264.463 244.552C262.103 255.216 256.91 259.976 251.174 260.055C245.438 260.135 192.205 258.613 189.034 258.315C185.863 258.017 183.943 249.851 185.457 243.215Z" fill="#2B6087"/>
<path d="M189.638 239.658C191.396 231.825 234.256 49.1214 236.137 41.8015C238.795 31.4596 244.091 27.9787 249.775 28.026C255.869 28.0767 292.452 28.3899 302.53 27.9704C306.967 27.786 311.679 30.9508 309.129 42.5522C307.126 51.6623 264.754 229.607 262.338 239.362C260.218 247.922 255.693 252.778 249.107 252.586C244.996 252.466 198.705 251.611 193.537 251.507C190.609 251.449 188.362 245.339 189.638 239.658Z" fill="white"/>
<mask id="mask2_4_6629" style="mask-type:alpha" maskUnits="userSpaceOnUse" x="189" y="27" width="121" height="226">
<path d="M189.636 239.658C191.394 231.825 234.254 49.1214 236.135 41.8015C238.793 31.4596 244.089 27.9787 249.773 28.026C255.867 28.0767 292.451 28.3899 302.528 27.9704C306.965 27.786 311.677 30.9508 309.127 42.5522C307.124 51.6623 264.752 229.607 262.336 239.362C260.216 247.922 255.691 252.778 249.105 252.586C244.994 252.466 198.703 251.611 193.535 251.507C190.608 251.449 188.36 245.339 189.636 239.658Z" fill="white"/>
</mask>
<g mask="url(#mask2_4_6629)">
<path d="M233.666 24.1221L181.953 250.461L197.717 254.364C197.717 254.364 207.147 211.437 208.325 205.828C209.504 200.218 212.892 198.511 215.25 203.876C217.607 209.242 241.18 265.095 241.18 265.095L266.374 262.168L319.708 25.0977L233.666 24.1221Z" fill="#C4F3FF"/>
</g>
<mask id="mask3_4_6629" style="mask-type:alpha" maskUnits="userSpaceOnUse" x="189" y="27" width="121" height="226">
<path d="M189.636 239.658C191.394 231.825 234.254 49.1214 236.135 41.8015C238.793 31.4596 244.089 27.9787 249.773 28.026C255.867 28.0767 292.451 28.3899 302.528 27.9704C306.965 27.786 311.677 30.9508 309.127 42.5522C307.124 51.6623 264.752 229.607 262.336 239.362C260.216 247.922 255.691 252.778 249.105 252.586C244.994 252.466 198.703 251.611 193.535 251.507C190.608 251.449 188.36 245.339 189.636 239.658Z" fill="white"/>
</mask>
<g mask="url(#mask3_4_6629)">
<mask id="mask4_4_6629" style="mask-type:luminance" maskUnits="userSpaceOnUse" x="167" y="-11" width="379" height="529">
<path d="M167.662 -11L545.716 -11L545.716 517.775L167.662 517.775L167.662 -11Z" fill="white"/>
</mask>
<g mask="url(#mask4_4_6629)">
<path d="M273.3 145.34C270.132 145.34 259.819 145.34 255.178 145.34C250.537 145.34 248.18 150.584 247.001 155.462C245.772 160.55 241.255 179.608 239.708 185.583C238.161 191.559 238.751 197.534 242.508 197.534C245.823 197.534 258.788 197.534 261.882 197.534C265.27 197.534 268.291 192.047 269.322 187.778C270.353 183.51 276.099 159.608 277.131 155.096C278.162 150.584 277.425 145.34 273.3 145.34Z" stroke="#66E1FF" stroke-width="2.439"/>
<path d="M261.107 157.108C260.183 158.383 256.687 162.901 256.687 162.901C256.687 162.901 256.319 162.474 255.508 161.011C254.698 159.547 253.446 160.096 252.893 162.047C252.481 163.505 250.794 169.181 249.284 174.669C247.774 180.157 246.779 190.644 253.704 190.644C260.076 190.644 266.89 179.974 265.232 167.962C264.731 164.324 264.091 160.95 263.685 158.206C263.311 155.673 262.433 155.279 261.107 157.108Z" fill="#66E1FF"/>
<path d="M287.223 86.9258C284.055 86.9258 273.742 86.9258 269.101 86.9258C264.46 86.9258 262.103 92.1696 260.924 97.0476C259.694 102.136 255.178 121.194 253.631 127.169C252.084 133.145 252.673 139.12 256.43 139.12C259.745 139.12 272.711 139.12 275.805 139.12C279.193 139.12 282.213 133.633 283.245 129.364C284.276 125.096 290.022 101.194 291.053 96.6818C292.085 92.1696 291.348 86.9258 287.223 86.9258Z" stroke="#66E1FF" stroke-width="2.439"/>
<path d="M283.907 92.0479C279.045 94.6088 277.351 98.5112 276.393 101.316C278.309 101.926 283.023 99.7307 283.907 92.0479Z" fill="#66E1FF"/>
<path d="M275.805 97.4746C274 97.4746 273.595 105.218 273.595 105.218C273.595 105.218 272.969 101.743 270.022 101.743C267.075 101.743 262.508 105.584 262.066 114.182C261.629 122.688 261.882 129.913 265.528 129.913C267.186 129.913 267.386 129.121 268.291 129.121C269.112 129.121 268.806 129.913 270.501 129.913C274.405 129.913 277.573 122.596 281.366 114.852C285.16 107.109 282.545 102.17 279.783 101.743C277.02 101.316 274.515 105.036 274.515 105.036C274.515 105.036 277.609 97.4746 275.805 97.4746Z" fill="#66E1FF"/>
<path d="M258.049 211.802C252.672 211.802 213.334 211.314 205.967 211.314C198.232 211.314 193.223 232.046 201.253 232.046C204.936 232.046 244.789 233.022 252.893 233.022C260.259 233.022 266.005 211.802 258.049 211.802Z" fill="#66E1FF"/>
</g>
</g>
<mask id="mask5_4_6629" style="mask-type:alpha" maskUnits="userSpaceOnUse" x="189" y="27" width="121" height="226">
<path d="M189.636 239.658C191.394 231.825 234.254 49.1214 236.135 41.8015C238.793 31.4596 244.089 27.9787 249.773 28.026C255.867 28.0767 292.451 28.3899 302.528 27.9704C306.965 27.786 311.677 30.9508 309.127 42.5522C307.124 51.6623 264.752 229.607 262.336 239.362C260.216 247.922 255.691 252.778 249.105 252.586C244.994 252.466 198.703 251.611 193.535 251.507C190.608 251.449 188.36 245.339 189.636 239.658Z" fill="white"/>
</mask>
<g mask="url(#mask5_4_6629)">
<mask id="mask6_4_6629" style="mask-type:luminance" maskUnits="userSpaceOnUse" x="167" y="-11" width="379" height="529">
<path d="M167.662 -11L545.716 -11L545.716 517.775L167.662 517.775L167.662 -11Z" fill="white"/>
</mask>
<g mask="url(#mask6_4_6629)">
<mask id="mask7_4_6629" style="mask-type:alpha" maskUnits="userSpaceOnUse" x="181" y="24" width="139" height="242">
<path d="M233.665 24.1211L181.952 250.46L197.716 254.363C197.716 254.363 207.146 211.436 208.324 205.827C209.503 200.217 212.891 198.51 215.249 203.875C217.606 209.241 241.179 265.094 241.179 265.094L266.373 262.167L319.707 25.0967L233.665 24.1211Z" fill="#C4F3FF"/>
</mask>
<g mask="url(#mask7_4_6629)">
<path d="M258.049 211.802C252.671 211.802 213.334 211.314 205.967 211.314C198.232 211.314 193.223 232.046 201.252 232.046C204.936 232.046 244.789 233.022 252.892 233.022C260.259 233.022 266.005 211.802 258.049 211.802Z" fill="#E5E5E5"/>
</g>
</g>
</g>
<mask id="mask8_4_6629" style="mask-type:alpha" maskUnits="userSpaceOnUse" x="189" y="27" width="121" height="226">
<path d="M189.636 239.658C191.394 231.825 234.254 49.1214 236.135 41.8015C238.793 31.4596 244.089 27.9787 249.773 28.026C255.867 28.0767 292.451 28.3899 302.528 27.9704C306.965 27.786 311.677 30.9508 309.127 42.5522C307.124 51.6623 264.752 229.607 262.336 239.362C260.216 247.922 255.691 252.778 249.105 252.586C244.994 252.466 198.703 251.611 193.535 251.507C190.608 251.449 188.36 245.339 189.636 239.658Z" fill="white"/>
</mask>
<g mask="url(#mask8_4_6629)">
<mask id="mask9_4_6629" style="mask-type:luminance" maskUnits="userSpaceOnUse" x="167" y="-11" width="379" height="529">
<path d="M167.662 -11L545.716 -11L545.716 517.775L167.662 517.775L167.662 -11Z" fill="white"/>
</mask>
<g mask="url(#mask9_4_6629)">
<path d="M239.857 145.34C236.689 145.34 226.376 145.34 221.735 145.34C217.094 145.34 214.737 150.584 213.558 155.462C212.328 160.551 207.812 179.608 206.265 185.583C204.718 191.559 205.307 197.535 209.064 197.535C212.379 197.535 225.345 197.535 228.439 197.535C231.827 197.535 234.848 192.047 235.879 187.779C236.91 183.51 242.656 159.608 243.687 155.096C244.719 150.584 243.982 145.34 239.857 145.34Z" fill="#C4F3FF"/>
<path d="M239.857 145.34C236.689 145.34 226.376 145.34 221.735 145.34C217.094 145.34 214.737 150.584 213.558 155.462C212.328 160.551 207.812 179.608 206.265 185.583C204.718 191.559 205.307 197.535 209.064 197.535C212.379 197.535 225.345 197.535 228.439 197.535C231.827 197.535 234.848 192.047 235.879 187.779C236.91 183.51 242.656 159.608 243.687 155.096C244.719 150.584 243.982 145.34 239.857 145.34Z" stroke="#66E1FF" stroke-width="2.439"/>
<path d="M229.175 155.157C224.313 155.157 219.893 160.157 216.983 168.389C214.418 175.647 215.105 186.272 220.778 186.272C227.26 186.272 231.632 178.898 233.853 171.62C235.658 165.706 234.774 155.157 229.175 155.157Z" fill="#66E1FF"/>
<path d="M253.777 86.9259C250.609 86.9259 240.296 86.9259 235.655 86.9259C231.014 86.9259 228.657 92.1698 227.478 97.0478C226.249 102.136 221.732 121.194 220.185 127.169C218.638 133.145 219.228 139.121 222.985 139.121C226.3 139.121 239.265 139.121 242.359 139.121C245.748 139.121 248.768 133.633 249.799 129.365C250.83 125.096 256.576 101.194 257.608 96.6819C258.639 92.1698 257.902 86.9259 253.777 86.9259Z" fill="#C4F3FF"/>
<path d="M253.777 86.9259C250.609 86.9259 240.296 86.9259 235.655 86.9259C231.014 86.9259 228.657 92.1698 227.478 97.0478C226.249 102.136 221.732 121.194 220.185 127.169C218.638 133.145 219.228 139.121 222.985 139.121C226.3 139.121 239.265 139.121 242.359 139.121C245.748 139.121 248.768 133.633 249.799 129.365C250.83 125.096 256.576 101.194 257.608 96.6819C258.639 92.1698 257.902 86.9259 253.777 86.9259Z" stroke="#66E1FF" stroke-width="2.439"/>
<path d="M249.947 100.218C249.754 100.218 249.242 100.218 248.51 100.218C249.689 92.7792 244.533 93.084 242.654 96.9864C242.028 92.2304 237.129 93.206 235.287 100.218C234.359 100.218 233.694 100.218 233.446 100.218C232.083 100.218 231.936 100.95 231.567 102.23C231.199 103.511 230.057 107.962 229.799 109.181C229.541 110.401 229.284 111.925 230.978 111.925C230.315 114.425 227.737 125.401 227.368 126.986C227 128.571 227.331 130.096 228.215 130.096C229.099 130.096 239.486 130.096 240.849 130.096C242.212 130.096 242.949 129.974 243.612 127.169C244.275 124.364 246.853 112.291 246.853 112.291C246.853 112.291 248.418 112.827 249.173 109.791C249.689 107.718 250.274 105.623 250.573 104.181C250.978 102.23 251.162 100.218 249.947 100.218Z" fill="#66E1FF"/>
<path d="M295.698 47.7607C293.162 47.7607 250.74 47.9017 247.265 47.9017C243.617 47.9017 241.254 57.6801 245.042 57.6801C246.779 57.6801 289.444 57.7689 293.266 57.7689C296.74 57.7689 299.451 47.7607 295.698 47.7607Z" fill="#66E1FF"/>
</g>
</g>
</g>
<mask id="mask10_4_6629" style="mask-type:luminance" maskUnits="userSpaceOnUse" x="239" y="-12" width="407" height="394">
<path d="M239.548 -11.0001L645.006 -11.0001L645.006 381.191L239.548 381.191L239.548 -11.0001Z" fill="white"/>
</mask>
<g mask="url(#mask10_4_6629)">
<path d="M525.18 4.90878C528.245 5.58534 531.38 6.46436 533.478 7.3429C535.98 8.39019 538.779 10.4633 541.618 14.8906C546.235 22.09 627.619 143.213 631.835 149.213C639.481 160.096 638.597 169.242 635.201 177.385C629.534 190.972 613.182 232.29 606.785 248.044C603.194 256.887 601.543 257.9 598.829 259.11C595.445 260.619 594.618 261.193 592.656 261.737C590.707 262.278 587.289 264.653 583.499 260.302C578.278 254.31 495.621 118.684 491.069 110.187C486.516 101.689 487.223 92.7142 489.7 84.1489C492.177 75.5837 516.063 13.1365 517.618 8.55115C519.173 3.96587 524.099 4.66977 525.18 4.90878Z" fill="#242F62"/>
<path d="M529.962 10.5959C535.096 17.6583 617.582 144.493 621.528 150.558C626.147 157.657 629.217 166.238 623.775 180.096C618.412 193.754 597.565 246.68 594.491 254.355C591.917 260.781 587.734 263.337 583.499 260.302C578.208 254.48 495.621 118.684 491.069 110.187C486.516 101.689 487.048 92.9102 489.524 84.345C492.001 75.7797 516.063 13.1364 517.618 8.55108C519.173 3.96581 524.829 3.53356 529.962 10.5959Z" fill="#026CB2"/>
<path d="M487.78 93.3143C488.04 90.3123 488.665 87.3163 489.524 84.3451C492 75.7798 516.063 13.1365 517.618 8.55119C518.709 5.33321 521.82 4.16051 525.353 6.18882C525.74 8.99998 527.562 21.3701 527.562 21.3701L492.584 93.7469C492.584 93.7469 489.422 93.5113 487.78 93.3143Z" fill="#252F62"/>
<path d="M607.273 162.047L610.209 214.745C610.209 214.745 596.105 250.261 594.416 254.477C591.843 260.903 587.66 263.459 583.424 260.424C580.84 257.58 538.511 188.827 538.511 188.827L529.374 126.284L607.273 162.047Z" fill="#3FA0D2"/>
<path d="M527.846 14.7184C531.607 20.2896 615.582 147.623 618.84 153.47C624.231 163.144 623.315 170.55 619.662 179.192C615.981 187.9 595.87 236.07 590.182 249.379C587.618 255.377 584.398 256.799 579.223 247.91C575.159 240.929 498.46 115.966 494.228 108.088C490.515 101.175 489.867 95.7264 492.864 86.0167C494.736 79.9548 516.753 22.4139 519.85 14.4574C521.436 10.3843 524.561 9.85308 527.846 14.7184Z" fill="white"/>
<path d="M352.672 369.51C351.039 370.152 346.953 371.553 344.441 372.639C341.87 373.751 337.481 372.492 335.056 368.222C330.712 360.572 258.038 217.168 250.759 203.287C243.486 189.42 245.736 182.046 247.906 170.947C250.976 155.238 260.101 105.461 262.929 89.9343C264.521 81.1934 267.173 81.0715 270.317 80.13C273.766 79.0978 276.258 78.3369 279.22 77.551C281.172 77.033 283.011 74.6081 286.325 81.1651C290.401 89.2314 360.503 239.626 364.559 248.787C368.615 257.949 368.467 261.334 367.53 270.702C366.593 280.07 359.894 359.61 358.33 364.186C356.766 368.763 354.909 368.63 352.672 369.51Z" fill="#304974"/>
<path d="M290.241 280.689C290.241 280.689 254.165 209.783 250.759 203.287C243.486 189.42 245.736 182.046 247.906 170.947C250.976 155.238 260.101 105.461 262.929 89.9343C264.521 81.1934 267.173 81.0715 270.317 80.13C273.766 79.0978 276.258 78.3369 279.22 77.551C281.172 77.033 283.011 74.6081 286.325 81.1651C290.401 89.2314 309.76 279.273 309.76 279.273L290.241 280.689Z" fill="#231D24"/>
<path d="M349.23 362.455C345.164 355.156 270.635 206.68 266.453 197.861C262.206 188.906 261.501 180.826 263.378 170.619C266.172 155.429 277.612 90.4671 278.764 83.0862C279.917 75.7053 283.085 75.0955 286.325 81.1647C290.47 89.1349 360.503 239.626 364.559 248.787C368.615 257.948 368.603 261.065 367.666 270.433C366.729 279.801 359.894 359.609 358.33 364.186C356.766 368.762 352.331 368.019 349.23 362.455Z" fill="#598EC0"/>
<path d="M307.321 279.605C307.321 279.605 268.524 202.228 266.453 197.861C262.206 188.906 261.501 180.826 263.378 170.619C266.172 155.429 277.612 90.4671 278.764 83.0862C279.917 75.7053 283.085 75.0955 286.325 81.1647C290.47 89.1349 360.503 239.626 364.559 248.787C365.376 250.633 366.028 252.233 366.541 253.688C365.916 253.886 362.478 254.701 362.478 254.701L317.088 278.996L307.321 279.605Z" fill="#2F4A75"/>
<path d="M348.194 352.844C344.845 346.593 272.846 204.119 269.368 196.796C265.171 187.962 265.111 178.388 266.167 172.041C267.785 162.314 277.708 103.388 280.404 88.1987C281.656 81.1495 285.074 83.0226 287.318 87.8977C289.562 92.7728 357.12 238.265 361.177 247.329C364.788 255.398 364.855 260.653 364.066 271.478C363.573 278.236 356.934 343.542 355.602 354.368C354.762 361.191 352.405 360.703 348.194 352.844Z" fill="white"/>
<path d="M270.34 219.119C266.877 213.265 262.163 219.363 265.183 225.46C267.002 229.134 275.737 244.574 277.559 247.655C280.947 253.387 285.22 245.582 282.715 241.192C280.676 237.618 272.308 222.446 270.34 219.119Z" fill="#283C60"/>
<path d="M267.541 87.0467C262.311 90.8271 267.394 97.0466 267.394 97.0466C267.394 97.0466 266.731 92.5344 269.383 90.7052C272.035 88.8759 274.024 92.4125 274.024 92.4125C274.024 92.4125 274.324 82.1443 267.541 87.0467Z" fill="#332E3B"/>
<mask id="mask11_4_6629" style="mask-type:alpha" maskUnits="userSpaceOnUse" x="265" y="83" width="100" height="277">
<path d="M348.196 352.845C344.847 346.594 272.848 204.12 269.369 196.797C265.173 187.963 265.113 178.389 266.168 172.042C267.786 162.315 277.709 103.389 280.406 88.1997C281.657 81.1505 285.076 83.0236 287.32 87.8987C289.564 92.7738 357.121 238.266 361.178 247.33C364.79 255.399 364.856 260.654 364.067 271.479C363.575 278.237 356.936 343.543 355.604 354.369C354.764 361.192 352.407 360.704 348.196 352.845Z" fill="white"/>
</mask>
<g mask="url(#mask11_4_6629)">
<path d="M280.803 68.0243L255.462 189.486L309.975 280.705L367.729 252.413L280.803 68.0243Z" fill="#9DEBFF"/>
</g>
<mask id="mask12_4_6629" style="mask-type:alpha" maskUnits="userSpaceOnUse" x="265" y="83" width="100" height="277">
<path d="M348.196 352.845C344.847 346.594 272.848 204.12 269.369 196.797C265.173 187.963 265.113 178.389 266.168 172.042C267.786 162.315 277.709 103.389 280.406 88.1997C281.657 81.1505 285.076 83.0236 287.32 87.8987C289.564 92.7738 357.121 238.266 361.178 247.33C364.79 255.399 364.856 260.654 364.067 271.479C363.575 278.237 356.936 343.543 355.604 354.369C354.764 361.192 352.407 360.704 348.196 352.845Z" fill="white"/>
</mask>
<g mask="url(#mask12_4_6629)">
<path d="M353.218 241.071C352.174 238.912 350.787 239.241 350.418 243.144C350.05 247.046 342.168 315.948 341.652 321.314C341.136 326.68 342.315 330.094 342.978 331.802C343.641 333.509 344.599 335.216 346.293 338.753C347.987 342.289 349.019 338.387 349.313 335.704C349.608 333.021 357.048 263.997 357.564 258.144C358.017 253.006 357.122 249.485 356.459 248.022C355.796 246.558 354.396 243.51 353.218 241.071Z" fill="#E5E5E5"/>
<path d="M326.182 183.632C325.139 181.473 323.678 181.803 323.309 185.706C322.941 189.608 313.512 257.656 312.996 263.022C312.48 268.388 313.438 271.436 314.101 273.144C314.764 274.851 316.974 278.997 318.889 282.534C320.709 285.895 321.615 282.168 321.91 279.485C322.204 276.802 331.118 208.754 331.633 202.9C332.086 197.762 331.191 194.242 330.528 192.779C329.865 191.315 327.361 186.071 326.182 183.632Z" stroke="#E5E5E5" stroke-width="2.439"/>
</g>
<mask id="mask13_4_6629" style="mask-type:alpha" maskUnits="userSpaceOnUse" x="311" y="254" width="54" height="106">
<path d="M348.196 352.845C346.594 349.854 311.26 280.03 311.26 280.03C311.26 280.03 361.984 255.217 363.615 254.356C364.748 259.247 364.609 264.051 364.068 271.479C363.575 278.237 356.936 343.543 355.604 354.369C354.765 361.191 352.407 360.704 348.196 352.845Z" fill="white"/>
</mask>
<g mask="url(#mask13_4_6629)">
<mask id="mask14_4_6629" style="mask-type:luminance" maskUnits="userSpaceOnUse" x="239" y="-11" width="407" height="393">
<path d="M239.55 -11L645.008 -11L645.008 381.191L239.55 381.191L239.55 -11Z" fill="white"/>
</mask>
<g mask="url(#mask14_4_6629)">
<mask id="mask15_4_6629" style="mask-type:alpha" maskUnits="userSpaceOnUse" x="265" y="83" width="100" height="277">
<path d="M348.198 352.844C344.849 346.593 272.85 204.119 269.372 196.796C265.175 187.962 265.115 178.388 266.171 172.041C267.789 162.314 277.712 103.388 280.408 88.1988C281.66 81.1496 285.078 83.0228 287.322 87.8978C289.566 92.7729 357.124 238.265 361.181 247.329C364.792 255.399 364.859 260.653 364.07 271.478C363.577 278.236 356.938 343.543 355.606 354.368C354.766 361.191 352.409 360.703 348.198 352.844Z" fill="white"/>
</mask>
<g mask="url(#mask15_4_6629)">
<path d="M353.22 241.07C352.177 238.911 350.789 239.241 350.421 243.143C350.052 247.045 342.17 315.947 341.654 321.313C341.139 326.679 342.317 330.093 342.98 331.801C343.643 333.508 344.601 335.215 346.295 338.752C347.99 342.288 349.021 338.386 349.316 335.703C349.61 333.02 357.051 263.996 357.566 258.143C358.019 253.005 357.124 249.484 356.461 248.021C355.798 246.558 354.399 243.509 353.22 241.07Z" fill="#3DBCF8"/>
<path d="M326.184 183.631C325.141 181.472 323.68 181.802 323.311 185.705C322.943 189.607 313.514 257.655 312.998 263.021C312.483 268.387 313.44 271.435 314.103 273.143C314.766 274.85 316.976 278.996 318.891 282.533C320.712 285.894 321.617 282.167 321.912 279.484C322.206 276.801 331.12 208.753 331.636 202.9C332.088 197.762 331.194 194.241 330.531 192.778C329.868 191.314 327.363 186.07 326.184 183.631Z" stroke="#3DBCF8" stroke-width="2.439"/>
</g>
</g>
</g>
<mask id="mask16_4_6629" style="mask-type:alpha" maskUnits="userSpaceOnUse" x="490" y="11" width="133" height="244">
<path d="M527.844 14.7184C531.606 20.2896 615.58 147.623 618.839 153.47C624.23 163.144 623.314 170.55 619.66 179.192C615.979 187.9 595.868 236.07 590.18 249.379C587.617 255.377 584.396 256.799 579.221 247.91C575.157 240.929 498.459 115.966 494.227 108.088C490.513 101.175 489.866 95.7264 492.863 86.0167C494.734 79.9548 516.751 22.4139 519.849 14.4574C521.435 10.3843 524.56 9.85309 527.844 14.7184Z" fill="white"/>
</mask>
<g mask="url(#mask16_4_6629)">
<mask id="mask17_4_6629" style="mask-type:luminance" maskUnits="userSpaceOnUse" x="239" y="-12" width="407" height="394">
<path d="M239.549 -11.0001L645.008 -11.0001L645.008 381.191L239.549 381.191L239.549 -11.0001Z" fill="white"/>
</mask>
<g mask="url(#mask17_4_6629)">
<path d="M550.839 145.728C549.252 150.267 546.387 157.798 544.345 163.738C542.536 168.999 544.083 176.438 546.527 180.711C548.803 184.691 554.102 193.267 557.009 198.026C559.802 202.597 563.752 203.267 565.995 197.683C568.052 192.564 571.192 184.242 573.146 178.999C574.925 174.224 574.213 166.438 571.898 162.801C569.883 159.637 561.852 146.423 559.696 143.176C556.68 138.633 552.85 139.975 550.839 145.728Z" fill="white"/>
<path d="M550.839 145.728C549.252 150.267 546.387 157.798 544.345 163.738C542.536 168.999 544.083 176.438 546.527 180.711C548.803 184.691 554.102 193.267 557.009 198.026C559.802 202.597 563.752 203.267 565.995 197.683C568.052 192.564 571.192 184.242 573.146 178.999C574.925 174.224 574.213 166.438 571.898 162.801C569.883 159.637 561.852 146.423 559.696 143.176C556.68 138.633 552.85 139.975 550.839 145.728Z" stroke="#D9D9D9" stroke-width="2.439"/>
<path d="M552.332 160.564C550.419 166.688 551.125 173.953 554.37 180.41C557.232 186.105 563.021 188.476 565.253 181.331C567.804 173.165 565.813 165.522 562.806 160.255C560.362 155.975 554.535 153.511 552.332 160.564Z" fill="#1CB0F6"/>
<path d="M554.949 163.877C552.702 162.474 551.302 166.803 553.88 172.108C553.475 177.047 556.532 182.291 558.448 176.011C560.547 178.206 561.8 172.535 559.59 168.755C560.216 162.169 555.648 159.486 554.949 163.877Z" fill="#0390D4"/>
<path d="M528.096 106.634C526.477 110.951 523.184 119.756 521.324 125.245C519.184 131.56 520.853 138.481 522.567 141.419C524.856 145.34 531.97 156.817 534.182 160.311C536.054 163.267 539.923 163.95 541.671 159.756C543.715 154.853 547.72 144.388 548.878 140.653C550.713 134.731 549.829 128.267 547.287 123.441C545.867 120.747 536.963 107.074 535.294 104.541C533.624 102.008 529.878 101.881 528.096 106.634Z" fill="white"/>
<path d="M528.096 106.634C526.477 110.951 523.184 119.756 521.324 125.245C519.184 131.56 520.853 138.481 522.567 141.419C524.856 145.34 531.97 156.817 534.182 160.311C536.054 163.267 539.923 163.95 541.671 159.756C543.715 154.853 547.72 144.388 548.878 140.653C550.713 134.731 549.829 128.267 547.287 123.441C545.867 120.747 536.963 107.074 535.294 104.541C533.624 102.008 529.878 101.881 528.096 106.634Z" stroke="#DADADA" stroke-width="2.439"/>
<path d="M534.037 114.798C533.96 115.026 533.466 115.937 533.255 116.865C530.087 112.78 527.93 119.43 529.09 122.873C526.551 121.926 524.673 127.963 527.453 132.734C527.03 133.817 526.652 134.76 526.517 135.011C526.109 135.768 526.143 136.699 526.595 137.514C527.047 138.329 529.431 142.266 529.888 142.924C530.345 143.582 531.009 144.14 531.497 141.99C532.396 143.51 536.837 150.864 537.426 151.755C538.264 153.024 538.999 152.59 539.394 151.585C540.216 149.487 544.272 138.442 544.878 136.89C545.483 135.341 545.946 134.436 544.914 132.834C543.883 131.231 538.554 122.671 538.554 122.671C538.554 122.671 539.369 121.012 538.649 119.901C537.879 118.711 536.114 115.859 535.577 115.078C535.17 114.488 534.433 113.634 534.037 114.798Z" fill="#9A75D9"/>
<path d="M533.255 116.865C530.087 112.78 527.93 119.43 529.09 122.873C526.551 121.926 524.673 127.963 527.453 132.734C527.03 133.817 528.727 129.096 528.727 129.096L532.709 135.319L532.908 134.815L541.014 147.438L543.552 140.793L535.632 127.956L535.902 127.122L531.872 120.755C531.872 120.755 533.466 115.937 533.255 116.865Z" fill="#FFC800"/>
<path d="M525.815 39.6094C524.415 43.5118 507.708 90.8425 505.041 98.5112C503.641 102.536 506.853 108.874 508.651 103.755C510.492 98.5112 527.583 51.3166 529.425 45.9508C531.266 40.585 527.215 35.707 525.815 39.6094Z" fill="#D9D9D9"/>
<path d="M510.087 84.3043C508.688 88.2067 507.708 90.8428 505.041 98.5115C503.641 102.536 506.853 108.874 508.651 103.755C510.492 98.5115 511.524 95.7676 513.623 89.975C515.541 84.6828 511.487 80.4019 510.087 84.3043Z" fill="#79C700"/>
<path d="M542.849 65.5206C541.215 70.0132 538.572 77.1819 536.098 84.5019C533.919 90.9506 535.844 98.9456 538.185 102.494C541.028 106.804 545.706 113.816 548.43 118.498C551.155 123.181 555.282 123.084 556.98 118.57C558.733 113.912 562.207 104.365 564.218 98.9588C566.171 93.7081 565.128 86.0745 563.154 82.8424C561.179 79.6102 553.425 67.4074 551.315 64.0801C549.204 60.7528 545.042 59.4875 542.849 65.5206Z" fill="white"/>
<path d="M542.849 65.5206C541.215 70.0132 538.572 77.1819 536.098 84.5019C533.919 90.9506 535.844 98.9456 538.185 102.494C541.028 106.804 545.706 113.816 548.43 118.498C551.155 123.181 555.282 123.084 556.98 118.57C558.733 113.912 562.207 104.365 564.218 98.9588C566.171 93.7081 565.128 86.0745 563.154 82.8424C561.179 79.6102 553.425 67.4074 551.315 64.0801C549.204 60.7528 545.042 59.4875 542.849 65.5206Z" stroke="#D8D8D8" stroke-width="2.439"/>
<path d="M544.621 69.7314C543.605 76.4387 545.142 80.6484 546.233 82.9362C547.228 80.5289 548.231 73.6192 544.621 69.7314Z" fill="#A7ED6E"/>
<path d="M547.353 87.8539C547.353 87.8539 544.524 86.9778 543.268 90.6655C542.012 94.3533 542.253 101.101 545.933 104.399C549.977 108.023 554.263 110.425 555.817 105.861C556.524 103.787 556.287 103.058 556.673 101.926C557.023 100.898 557.325 101.637 558.048 99.5162C559.712 94.6299 557.233 87.109 555.044 80.2505C552.767 73.116 548.725 75.5847 547.724 78.0842C546.156 82.0032 547.353 87.8539 547.353 87.8539Z" fill="#F8526B"/>
<path d="M544.932 82.1698C544.122 80.5845 543.127 82.5357 544.011 83.7552C544.895 84.9747 546.009 86.8859 547.069 87.9317C547.241 88.102 547.511 87.6195 547.411 87.3312C546.793 85.5522 545.357 83.001 544.932 82.1698Z" fill="#8B4C32"/>
</g>
</g>
<mask id="mask18_4_6629" style="mask-type:alpha" maskUnits="userSpaceOnUse" x="265" y="83" width="100" height="277">
<path d="M348.196 352.845C344.847 346.594 272.848 204.12 269.369 196.797C265.173 187.963 265.113 178.389 266.168 172.042C267.786 162.315 277.709 103.389 280.406 88.1997C281.657 81.1505 285.076 83.0236 287.32 87.8987C289.564 92.7738 357.121 238.266 361.178 247.33C364.79 255.399 364.856 260.654 364.067 271.479C363.575 278.237 356.936 343.543 355.604 354.369C354.764 361.192 352.407 360.704 348.196 352.845Z" fill="white"/>
</mask>
<g mask="url(#mask18_4_6629)">
<path d="M315.572 161.072C314.528 158.913 313.067 159.243 312.699 163.145C312.331 167.047 302.312 234.852 301.796 240.217C301.281 245.583 302.238 248.632 302.901 250.339C303.564 252.047 305.774 256.193 307.69 259.729C309.51 263.09 310.415 259.364 310.71 256.681C311.005 253.998 320.507 186.194 321.023 180.34C321.476 175.202 320.581 171.681 319.918 170.218C319.255 168.755 316.75 163.511 315.572 161.072Z" fill="#3DBCF8"/>
<path d="M290.3 115.12C289.843 114.148 289.191 114.28 289.012 116.015C288.833 117.749 278.154 184.319 277.904 186.704C277.654 189.089 278.07 190.457 278.359 191.224C278.648 191.992 279.617 193.861 280.458 195.456C281.256 196.972 281.673 195.321 281.814 194.129C281.955 192.936 292.406 126.362 292.657 123.759C292.878 121.475 292.492 119.897 292.202 119.239C291.912 118.58 290.816 116.219 290.3 115.12Z" fill="#3DBCF8"/>
<path d="M303.187 189.836C302.951 189.348 302.62 189.422 302.537 190.305C302.454 191.187 296.357 232.497 296.241 233.711C296.124 234.924 296.341 235.614 296.491 236C296.641 236.386 297.14 237.324 297.573 238.124C297.985 238.884 298.19 238.041 298.257 237.434C298.323 236.827 304.303 195.518 304.42 194.194C304.522 193.032 304.32 192.236 304.17 191.905C304.02 191.574 303.453 190.388 303.187 189.836Z" fill="#3DBCF8"/>
</g>
<mask id="mask19_4_6629" style="mask-type:alpha" maskUnits="userSpaceOnUse" x="490" y="11" width="133" height="244">
<path d="M527.844 14.7184C531.606 20.2896 615.58 147.623 618.839 153.47C624.23 163.144 623.314 170.55 619.66 179.192C615.979 187.9 595.868 236.07 590.18 249.379C587.617 255.377 584.396 256.799 579.221 247.91C575.157 240.929 498.459 115.966 494.227 108.088C490.513 101.175 489.866 95.7264 492.863 86.0167C494.734 79.9548 516.751 22.4139 519.849 14.4574C521.435 10.3843 524.56 9.85309 527.844 14.7184Z" fill="white"/>
</mask>
<g mask="url(#mask19_4_6629)">
<mask id="mask20_4_6629" style="mask-type:luminance" maskUnits="userSpaceOnUse" x="239" y="-12" width="407" height="394">
<path d="M239.549 -11.0001L645.008 -11.0001L645.008 381.191L239.549 381.191L239.549 -11.0001Z" fill="white"/>
</mask>
<g mask="url(#mask20_4_6629)">
<path d="M567.241 102.167C565.225 107.291 562.058 115.584 559.758 121.831C557.343 128.392 559.702 136.252 561.95 139.962C564.294 143.832 570.166 153.06 572.948 157.648C574.728 160.583 579.369 162.169 581.202 157.712C583.068 153.176 586.81 143.388 588.883 137.971C590.696 133.232 590.379 124.921 588.004 121.105C585.631 117.291 578.678 106.469 576.596 103.092C573.697 98.3889 569.379 96.7333 567.241 102.167Z" fill="white"/>
<path d="M567.241 102.167C565.225 107.291 562.058 115.584 559.758 121.831C557.343 128.392 559.702 136.252 561.95 139.962C564.294 143.832 570.166 153.06 572.948 157.648C574.728 160.583 579.369 162.169 581.202 157.712C583.068 153.176 586.81 143.388 588.883 137.971C590.696 133.232 590.379 124.921 588.004 121.105C585.631 117.291 578.678 106.469 576.596 103.092C573.697 98.3889 569.379 96.7333 567.241 102.167Z" stroke="#D8D8D8" stroke-width="2.439"/>
<path d="M568.256 121.935C568.602 123.842 569.224 128.744 569.224 128.744C569.224 128.744 568.253 129.259 567.121 129.918C565.99 130.577 566.393 132.089 567.26 133.697C567.908 134.897 570.141 139.015 572.708 143.294C576.055 148.876 579.974 147.408 582.434 142.471C584.895 137.535 583.79 122.291 576.864 120.037C574.652 119.318 570.973 118.535 569.289 118.074C567.735 117.65 567.761 119.198 568.256 121.935Z" fill="#FF9600"/>
<path d="M574.949 128.145C573.374 127.492 573.684 129.476 573.881 130.827C574.139 132.596 574.474 134.346 574.802 136.559C575.318 140.035 578.264 142.84 579.885 139.73C580.719 138.13 580.937 135.475 580.327 132.901C579.59 129.791 576.865 128.937 574.949 128.145Z" fill="#FFC800"/>
<path d="M598.301 149.12C596.441 153.979 577.462 202.665 573.991 211.924C570.013 222.534 578.102 238.739 583.052 226.192C585.409 220.216 604.5 171.692 607.509 163.632C611.561 152.778 603.015 136.803 598.301 149.12Z" fill="#E5E5E5"/>
</g>
</g>
</g>
</g>
<path d="M438.39 223.112L411.469 239.992L405.028 279.392L411.984 287.28L447.159 227.43L438.39 223.112Z" fill="#22A782"/>
<path d="M438.39 223.112L411.469 239.992L405.028 279.392L411.984 287.28L447.159 227.43L438.39 223.112Z" stroke="#22A882" stroke-width="14.634" stroke-linecap="round" stroke-linejoin="round"/>
<path d="M447.76 229.474L419.568 247.054L413.084 288.258L439.945 270.169L447.76 229.474Z" fill="#22CE9B"/>
<path d="M447.76 229.474L419.568 247.054L413.084 288.258L439.945 270.169L447.76 229.474Z" stroke="#22CE9B" stroke-width="14.634" stroke-linecap="round" stroke-linejoin="round"/>
<path d="M478.025 233.909L495.282 200.587L486.901 175.725L475.159 162.363L467.409 222.275L478.025 233.909Z" fill="#4CE1D3"/>
<path d="M478.025 233.909L495.282 200.587L486.901 175.725L475.159 162.363L467.409 222.275L478.025 233.909Z" stroke="#4CE1D3" stroke-width="9.756" stroke-linecap="round" stroke-linejoin="round"/>
<path d="M466.552 221.291L482.878 189.244L473.702 161.609L457.224 193.983L466.552 221.291Z" fill="#3CD598"/>
<path d="M466.552 221.291L482.878 189.244L473.702 161.609L457.224 193.983L466.552 221.291Z" stroke="#3CD598" stroke-width="8.16245" stroke-linecap="round" stroke-linejoin="round"/>
<path d="M475.096 179.891C474.226 181.54 474.029 181.974 473.479 182.992C469.936 176.393 462.309 187.25 465.982 197.764C465.452 198.77 465.018 199.593 464.487 200.599C463.619 202.246 464.532 204.399 465.4 202.753C465.882 201.838 466.316 201.015 466.847 200.009C471.007 208.212 478.402 195.019 474.348 185.088C474.59 184.631 475.107 183.605 475.801 182.196C476.819 180.126 475.965 178.242 475.096 179.891Z" fill="white"/>
<path d="M472.866 187.929L467.952 197.557C467.952 197.557 470.245 201.946 472.278 198.091C475.038 192.86 472.866 187.929 472.866 187.929Z" fill="#3CD598"/>
<path d="M472.261 185.855C472.261 185.855 470.146 181.782 468.062 185.732C466.124 189.406 467.394 195.288 467.394 195.288L472.261 185.855Z" fill="#3CD598"/>
<path d="M422.911 53.1466L413.104 101.173L444.423 120.61L449.534 116.806L428.043 49.3232L422.911 53.1466Z" fill="#00C6A0"/>
<path d="M422.911 53.1466L413.104 101.173L444.423 120.61L449.534 116.806L428.043 49.3232L422.911 53.1466Z" stroke="#00C6A0" stroke-width="14.634" stroke-linecap="round" stroke-linejoin="round"/>
<path d="M429.184 49.0031L419.665 96.7041L450.369 116.091L460.154 67.4253L429.184 49.0031Z" fill="#2BE69C"/>
<path d="M429.184 49.0031L419.665 96.7041L450.369 116.091L460.154 67.4253L429.184 49.0031Z" stroke="#2BE69C" stroke-width="14.634" stroke-linecap="round" stroke-linejoin="round"/>
<path d="M439.645 59.6405L435.947 63.7868L430.784 89.3963L434.791 84.6403L439.645 59.6405Z" fill="white"/>
<path d="M443.96 64.3965L441.956 68.2989L444.961 72.3232L447.196 68.4208L443.96 64.3965Z" fill="white"/>
<path d="M445.655 79.0305L442.804 83.7866C442.804 83.7866 445.424 89.6402 444.191 92.3231C443.522 93.7791 443.308 94.163 441.109 95.9816C435.947 100.25 432.402 92.3231 432.402 92.3231C432.402 102.811 438.696 109.554 444.653 97.0791C449.661 86.5914 445.655 79.0305 445.655 79.0305Z" fill="white"/>
<path d="M350.551 188.606L383.318 205.576L412.76 167.918L411.512 149.407L346.383 172.506L350.551 188.606Z" fill="#00C6A0"/>
<path d="M350.551 188.606L383.318 205.576L412.76 167.918L411.512 149.407L346.383 172.506L350.551 188.606Z" stroke="#00C6A0" stroke-width="29.268" stroke-linecap="round" stroke-linejoin="round"/>
<path d="M342.64 168.272L379.608 184.726L412.425 142.648L375.395 127.622L342.64 168.272Z" fill="#2BE69C"/>
<path d="M342.64 168.272L379.608 184.726L412.425 142.648L375.395 127.622L342.64 168.272Z" stroke="#2BE69C" stroke-width="19.512" stroke-linecap="round" stroke-linejoin="round"/>
<path d="M363.055 161.905L371.843 149.702C371.843 149.702 377.589 159.488 378.374 171.027" stroke="white" stroke-width="4.3902" stroke-linecap="round" stroke-linejoin="round"/>
<path d="M372.981 139.904L393.348 151.694" stroke="white" stroke-width="4.3902" stroke-linecap="round" stroke-linejoin="round"/>
<path d="M387.795 139.425L383.358 146.125" stroke="white" stroke-width="4.3902" stroke-linecap="round" stroke-linejoin="round"/>
</svg>
