<svg width="100" height="100" viewBox="0 0 100 100" fill="none" xmlns="http://www.w3.org/2000/svg">
<g clip-path="url(#clip0_8_20414)">
<g clip-path="url(#clip1_8_20414)">
<g clip-path="url(#clip2_8_20414)">
<mask id="mask0_8_20414" style="mask-type:luminance" maskUnits="userSpaceOnUse" x="0" y="0" width="100" height="100">
<path d="M100 0H0V100H100V0Z" fill="white"/>
</mask>
<g mask="url(#mask0_8_20414)">
<path d="M100 0H0V100H100V0Z" fill="white" fill-opacity="0.01"/>
<path d="M63.2104 70.2586L58.4746 65.5913L65.005 59.0371L69.7408 63.7045C70.9465 64.8875 72.47 65.698 74.1276 66.0381C75.7813 66.4177 77.2987 67.2421 78.5145 68.4215L97.7568 87.339C99.1552 88.7203 99.9501 90.5954 99.9688 92.5569C99.9875 94.5185 99.2284 96.4083 97.8565 97.8157C96.4631 99.202 94.5769 99.9847 92.6075 99.994C90.6381 100.003 88.7445 99.2384 87.338 97.8653L68.0957 78.9478C66.8872 77.7475 66.0409 76.2337 65.6531 74.5784C65.2942 72.9263 64.4429 71.4206 63.2104 70.2586Z" fill="#CFD4DB"/>
<path d="M63.2098 70.2583L61.7641 68.8184C61.3315 68.3935 60.988 67.8871 60.7536 67.3288C60.5191 66.7705 60.3984 66.1714 60.3984 65.5662C60.3984 64.961 60.5191 64.3619 60.7536 63.8036C60.988 63.2453 61.3315 62.7389 61.7641 62.314C62.1874 61.8798 62.6932 61.5338 63.2519 61.2961C63.8107 61.0583 64.4113 60.9334 65.0189 60.9288C65.6265 60.9242 66.2289 61.0399 66.7912 61.2691C67.3536 61.4984 67.8645 61.8367 68.2945 62.2643L69.7402 63.7042C70.9458 64.8873 72.4693 65.6977 74.127 66.0379C75.7807 66.4175 77.2981 67.2419 78.5138 68.4212L97.7561 87.3388C99.1546 88.7201 99.9495 90.5951 99.9682 92.5567C99.9868 94.5183 99.2278 96.408 97.8558 97.8154C96.4624 99.2017 94.5762 99.9845 92.6068 99.9938C90.6374 100.003 88.7439 99.2381 87.3374 97.8651L68.0951 78.9475C66.8866 77.7473 66.0403 76.2335 65.6524 74.5781C65.2936 72.926 64.4422 71.4204 63.2098 70.2583Z" fill="url(#paint0_linear_8_20414)"/>
<g style="mix-blend-mode:multiply">
<path d="M65.6026 74.4292C65.2194 72.8405 64.3894 71.3937 63.2098 70.2583L61.7641 68.8184C61.3315 68.3935 60.988 67.8871 60.7536 67.3288C60.5191 66.7705 60.3984 66.1714 60.3984 65.5662C60.3984 64.961 60.5191 64.3619 60.7536 63.8036C60.988 63.2453 61.3315 62.7389 61.7641 62.314C62.1874 61.8798 62.6932 61.5338 63.2519 61.2961C63.8107 61.0583 64.4113 60.9334 65.0189 60.9288C65.6265 60.9242 66.2289 61.0399 66.7912 61.2691C67.3536 61.4984 67.8645 61.8367 68.2945 62.2643L69.7402 63.7042C70.8874 64.8495 72.3409 65.6423 73.9276 65.9882C72.7599 67.6007 71.4771 69.1273 70.0891 70.5563C68.6876 71.9515 67.1883 73.2457 65.6026 74.4292Z" fill="#FFE380"/>
</g>
<path d="M77.5172 38.3317C77.4559 30.7007 75.1268 23.2587 70.8237 16.9447C66.5206 10.6307 60.4363 5.7276 53.3385 2.85408C46.2407 -0.0194378 38.4475 -0.734646 30.942 0.798697C23.4365 2.33204 16.5552 6.04523 11.1662 11.4698C7.58113 15.068 4.74821 19.3388 2.83147 24.0349C0.914734 28.731 -0.0477557 33.7591 -0.000278522 38.8283C0.0204902 43.8963 1.04878 48.91 3.02524 53.5802C5.00169 58.2503 7.88718 62.4843 11.5152 66.0378C16.9734 71.3938 23.902 75.0194 31.4269 76.4573C38.9518 77.8951 46.7357 77.0807 53.7963 74.1168C60.857 71.1529 66.878 66.1724 71.0996 59.8036C75.3213 53.4349 77.5544 45.9633 77.5172 38.3317Z" fill="#008472"/>
<path d="M17.7463 17.9247C21.1565 14.4858 25.3656 11.9376 30.0006 10.5057C34.6357 9.07397 39.5537 8.80272 44.3191 9.71608C49.0846 10.6294 53.5503 12.6992 57.3209 15.742C61.0915 18.7849 64.0505 22.707 65.9358 27.1609C67.8212 31.6148 68.5748 36.463 68.1297 41.2762C67.6847 46.0894 66.0549 50.7192 63.3846 54.7551C60.7142 58.7911 57.0859 62.109 52.8208 64.4148C48.5557 66.7206 43.7855 67.9432 38.9327 67.9744C33.1058 67.9882 27.4048 66.2866 22.5458 63.0832C17.6869 59.8798 13.8868 55.3176 11.623 49.9697C9.35916 44.6218 8.73263 38.7268 9.8221 33.0254C10.9116 27.324 13.6684 22.0704 17.7463 17.9247Z" fill="#DEEBFF"/>
<path d="M20.041 16.3357C17.0661 18.8081 14.6167 21.8471 12.8362 25.2746C11.0557 28.7021 9.97996 32.4491 9.67211 36.296C9.0234 44.0576 11.494 51.7585 16.5412 57.7073C21.5884 63.6561 28.7997 67.3666 36.5914 68.0239C42.4082 68.5281 48.2442 67.2994 53.3587 64.4938C58.4731 61.6882 62.6352 57.4323 65.3167 52.2662C67.9982 47.1002 69.078 41.257 68.4192 35.4786C67.7603 29.7001 65.3925 24.247 61.6163 19.8114C59.1186 16.8596 56.0607 14.4277 52.6179 12.655C49.175 10.8823 45.4149 9.80362 41.5528 9.48075C37.6907 9.15788 33.8026 9.59718 30.1112 10.7735C26.4198 11.9498 22.9978 13.8399 20.041 16.3357Z" fill="#B2D4FF"/>
<path d="M39.232 13.0583C35.374 12.733 31.4895 13.171 27.8021 14.3469C24.1148 15.5229 20.6973 17.4136 17.7464 19.9103C16.0125 21.3616 14.4564 23.0116 13.1104 24.8259C10.7828 29.1148 9.5648 33.9138 9.56641 38.7892C9.56801 43.6646 10.7892 48.4628 13.1195 52.7502C15.4499 57.0376 18.8161 60.6791 22.9138 63.3457C27.0116 66.0124 31.7119 67.62 36.5899 68.0235C40.4533 68.3733 44.348 67.9519 48.0458 66.7839C51.7437 65.6158 55.1704 63.7247 58.1253 61.2211C59.8476 59.7391 61.4021 58.0742 62.7614 56.2559C65.0767 51.9615 66.2835 47.1609 66.273 42.2865C66.2625 37.412 65.0352 32.6167 62.7014 28.3321C60.3677 24.0476 57.0008 20.4084 52.9039 17.7422C48.807 15.0759 44.1087 13.4663 39.232 13.0583Z" fill="#DEEBFF"/>
<path d="M38.7344 57.0505L60.2698 35.6006H45.9129L38.7344 57.0505Z" fill="#008472"/>
<path d="M31.6055 35.6006L38.7341 57.0505L45.9126 35.6006H31.6055Z" fill="#2684FF"/>
<path d="M17.248 35.6008L38.7336 57.0507L31.605 35.6008H17.248Z" fill="#B2D4FF"/>
<path d="M53.0906 26.4647L45.9121 35.6008H60.269L53.0906 26.4647Z" fill="#2684FF"/>
<path d="M38.7341 26.4648L31.6055 35.6009H45.9126L38.7341 26.4648Z" fill="#4C9AFF"/>
<path d="M31.6061 35.6009L38.7347 26.4648H24.4277L31.6061 35.6009Z" fill="#B2D4FF"/>
<path d="M45.9129 35.6009L53.0913 26.4648H38.7344L45.9129 35.6009Z" fill="#008472"/>
<path d="M24.4265 26.4647L17.248 35.6008H31.605L24.4265 26.4647Z" fill="white"/>
<path d="M24.4265 31.5792C24.7036 30.3359 25.3281 29.196 26.2278 28.2911C27.1275 27.3862 28.2658 26.7531 29.5113 26.465C28.2645 26.1974 27.1216 25.5773 26.2197 24.679C25.3178 23.7807 24.6952 22.6423 24.4265 21.4004C24.1466 22.6372 23.5203 23.7694 22.6202 24.6659C21.7202 25.5623 20.5834 26.1861 19.3418 26.465C20.5847 26.7585 21.7201 27.3934 22.6189 28.2974C23.5177 29.2014 24.144 30.3384 24.4265 31.5792Z" fill="#4C9AFF"/>
<path d="M54.5873 57.0507C54.7907 56.1536 55.2452 55.3323 55.8981 54.682C56.551 54.0317 57.3756 53.579 58.2762 53.3764C57.3806 53.1631 56.5618 52.7068 55.9107 52.0583C55.2595 51.4097 54.8015 50.5942 54.5873 49.7021C54.3839 50.5992 53.9294 51.4206 53.2765 52.0709C52.6236 52.7212 51.799 53.1738 50.8984 53.3764C51.8016 53.5735 52.6292 54.0243 53.283 54.6755C53.9368 55.3268 54.3895 56.151 54.5873 57.0507Z" fill="white"/>
</g>
</g>
</g>
</g>
<defs>
<linearGradient id="paint0_linear_8_20414" x1="99.9794" y1="80.4619" x2="60.4082" y2="80.4619" gradientUnits="userSpaceOnUse">
<stop stop-color="#FF991F"/>
<stop offset="1" stop-color="#FFC400"/>
</linearGradient>
<clipPath id="clip0_8_20414">
<rect width="100" height="100" fill="white"/>
</clipPath>
<clipPath id="clip1_8_20414">
<rect width="100" height="100" fill="white"/>
</clipPath>
<clipPath id="clip2_8_20414">
<rect width="100" height="100" fill="white"/>
</clipPath>
</defs>
</svg>
